<svg id="Capa_1" enable-background="new 0 0 512 512" height="512" viewBox="0 0 512 512" width="512" xmlns="http://www.w3.org/2000/svg"><g><g><path d="m443.218 95.357v184.089l-187.218 37.258-187.218-37.258v-184.089l187.218-34.917z" fill="#78cbec"/><path d="m362.087 289.308c23.82 0 43.13-19.31 43.13-43.13s-19.31-43.13-43.13-43.13c-2.551 0-5.046.234-7.475.659-3.598-27.433-27.05-48.617-55.465-48.617-10.599 0-20.509 2.948-28.957 8.067-2.283-3.345-4.893-6.535-7.861-9.503-25.7-25.7-67.369-25.7-93.069 0-13.579 13.579-19.977 31.615-19.207 49.398-.047 0-.093-.004-.14-.004-23.82 0-43.13 19.31-43.13 43.13s19.31 43.13 43.13 43.13z" fill="#fff"/><path d="m88.138 192.084c0-37.901 8.713-73.584 24.063-104.825l-43.418 8.098v184.089l38.922 7.746c-12.542-28.843-19.567-61.081-19.567-95.108z" fill="#34b5e1"/><path d="m169.453 211.785c0-30.102 14.05-57.287 36.641-76.687-13.479 1.999-26.458 8.18-36.833 18.555-13.579 13.579-19.977 31.615-19.207 49.398-.047 0-.093-.003-.14-.003-23.82 0-43.13 19.31-43.13 43.13s19.31 43.13 43.13 43.13h57.161c-23.166-19.45-37.622-46.987-37.622-77.523z" fill="#e5e5e5"/><path d="m443.218 279.446v29.635c0 32.15-26.062 58.222-58.222 58.222h-257.982c-32.16 0-58.232-26.072-58.232-58.222v-29.635z" fill="#c1e9fa"/><path d="m443.218 65.732v29.625h-187.218-187.218v-29.625c0-32.16 26.072-58.232 58.232-58.232h257.982c32.16 0 58.222 26.072 58.222 58.232z" fill="#c1e9fa"/><circle cx="256" cy="356.326" fill="#78cbec" r="39.622"/><path d="m276 375.948c-21.883 0-39.622-17.739-39.622-39.622 0-5.762 1.24-11.231 3.452-16.17-13.819 6.188-23.452 20.05-23.452 36.17 0 21.883 17.74 39.622 39.622 39.622 16.121 0 29.983-9.633 36.17-23.452-4.939 2.212-10.408 3.452-16.17 3.452z" fill="#34b5e1"/><g><ellipse cx="256" cy="227.607" fill="#423e4f" rx="13.288" ry="14.869"/></g><path d="m258.22 423.015c-1.237-1.203-3.203-1.203-4.441 0-44.259 43.043-32.352 81.485 2.221 81.485s46.48-38.442 2.22-81.485z" fill="#dadada"/><g fill="#90d3f1"><path d="m104.496 279.446h-35.714v29.635c0 32.15 26.072 58.222 58.232 58.222h39.471c-26.903-22.99-48.375-53.162-61.989-87.857z"/><path d="m178.287 7.5h-51.273c-32.16 0-58.232 26.072-58.232 58.232v29.625h39.622c15.796-35.58 40.032-65.893 69.883-87.857z"/></g></g><g><path d="m192.342 201.658c-4.142 0-7.5 3.358-7.5 7.5v9.709c0 4.142 3.358 7.5 7.5 7.5s7.5-3.358 7.5-7.5v-9.709c0-4.142-3.358-7.5-7.5-7.5z"/><path d="m256 205.237c-11.462 0-20.788 10.035-20.788 22.369s9.326 22.369 20.788 22.369 20.788-10.035 20.788-22.369-9.326-22.369-20.788-22.369zm0 29.739c-3.138 0-5.788-3.375-5.788-7.369s2.65-7.369 5.788-7.369c3.137 0 5.788 3.375 5.788 7.369s-2.651 7.369-5.788 7.369z"/><path d="m319.657 201.658c-4.142 0-7.5 3.358-7.5 7.5v9.709c0 4.142 3.358 7.5 7.5 7.5s7.5-3.358 7.5-7.5v-9.709c0-4.142-3.358-7.5-7.5-7.5z"/><path d="m263.449 417.638c-4.178-4.063-10.721-4.063-14.899 0-25.936 25.224-36.493 52.417-28.239 72.743 5.498 13.537 18.839 21.619 35.689 21.619s30.191-8.082 35.689-21.62c8.253-20.325-2.303-47.519-28.24-72.742zm14.342 67.099c-3.211 7.908-10.95 12.263-21.791 12.263s-18.58-4.355-21.791-12.263c-4.349-10.709-.729-30.15 21.791-53.337 22.519 23.187 26.14 42.628 21.791 53.337z"/><path d="m61.282 137.585c0 4.142 3.358 7.5 7.5 7.5s7.5-3.358 7.5-7.5v-34.728h359.436v83.154c0 4.142 3.358 7.5 7.5 7.5s7.5-3.358 7.5-7.5c0-13.813 0-113.962 0-120.279 0-36.245-29.483-65.732-65.722-65.732h-257.982c-36.245 0-65.732 29.487-65.732 65.732zm65.732-122.585h257.981c27.968 0 50.722 22.758 50.722 50.732v22.125h-359.435v-22.125c0-27.974 22.758-50.732 50.732-50.732z"/><path d="m384.996 374.803c36.239 0 65.722-29.483 65.722-65.722 0-10.708 0-82.348 0-93.07 0-4.142-3.358-7.5-7.5-7.5s-7.5 3.358-7.5 7.5v55.935h-30.052c20.189-34.098-5.165-77.515-44.981-76.378-9.654-38.456-52.294-58.86-88.356-42.043-27.294-33.116-77.57-35.976-108.372-5.174-12.757 12.757-20.328 29.835-21.346 47.723-35.539 5.156-54.575 44.968-36.276 75.873h-30.053v-104.362c0-4.142-3.358-7.5-7.5-7.5s-7.5 3.358-7.5 7.5v141.496c0 36.239 29.487 65.722 65.732 65.722h85.642c7.2 16.825 23.916 28.645 43.344 28.645s36.144-11.82 43.344-28.645zm-234.942-164.252c4.267 0 7.678-3.56 7.493-7.825-.706-16.296 5.497-32.25 17.017-43.77 25.722-25.722 68.677-21.99 89.432 8.427 2.246 3.292 6.675 4.252 10.082 2.188 29.601-17.937 68.551.439 73.098 35.11.555 4.23 4.527 7.149 8.729 6.413 22.039-3.856 41.813 13.187 41.813 35.083 0 9.801-3.987 19.054-11.022 25.768h-261.39c-22.976-21.924-7.777-61.394 24.748-61.394zm58.953 149.252h-81.993c-27.974 0-50.732-22.754-50.732-50.722v-22.135h359.436v22.135c0 27.968-22.754 50.722-50.722 50.722h-82.003c.053-.707.129-2.291.129-3.477 0-25.983-21.139-47.122-47.122-47.122s-47.122 21.139-47.122 47.122c0 1.201.079 2.812.129 3.477zm46.993 28.645c-17.943 0-32.122-14.675-32.122-32.122 0-17.712 14.41-32.122 32.122-32.122 17.72 0 32.122 14.427 32.122 32.122 0 17.46-14.189 32.122-32.122 32.122z"/></g></g></svg>