<svg id="Capa_1" enable-background="new 0 0 512 512" height="512" viewBox="0 0 512 512" width="512" xmlns="http://www.w3.org/2000/svg"><g><g><path d="m121.097 339.96h-65.761c-12.315 0-22.299 9.984-22.299 22.299v142.241h110.359l55.181-77.264-55.181-64.977c0-12.316-9.984-22.299-22.299-22.299z" fill="#36d39a"/><path d="m231.456 304.225h-65.757c-12.315 0-22.299 9.984-22.299 22.299v177.976h110.355l55.177-95.131-55.177-82.845c-.001-12.315-9.984-22.299-22.299-22.299z" fill="#f9ed80"/><path d="m341.81 268.491h-65.757c-12.315 0-22.299 9.984-22.299 22.299v213.71h110.355l55.183-112.998-55.183-100.712c0-12.315-9.983-22.299-22.299-22.299z" fill="#fccb88"/><path d="m452.173 232.76h-65.761c-12.315 0-22.299 9.984-22.299 22.299v249.44h110.359v-249.44c0-12.315-9.984-22.299-22.299-22.299z" fill="#ff748f"/><path d="m466.461 85.029c-10.249-4.531-15.131-16.313-11.09-26.765l.017-.044c6.571-16.995-10.149-33.716-27.144-27.145l-.044.017c-10.452 4.041-22.234-.841-26.765-11.09-7.369-16.67-31.023-16.67-38.392 0-4.531 10.249-16.313 15.131-26.765 11.09l-.044-.017c-16.995-6.571-33.716 10.149-27.145 27.144l.017.044c4.041 10.452-.841 22.234-11.09 26.765-16.67 7.369-16.67 31.023 0 38.392 10.249 4.53 15.131 16.313 11.09 26.765l-.017.044c-6.571 16.995 10.149 33.716 27.144 27.145l.044-.017c10.452-4.041 22.234.841 26.765 11.09 7.369 16.67 31.023 16.67 38.392 0 4.531-10.249 16.313-15.131 26.765-11.09l.044.017c16.995 6.571 33.716-10.149 27.145-27.144l-.017-.044c-4.041-10.452.841-22.234 11.09-26.765 16.669-7.369 16.669-31.023 0-38.392z" fill="#36d39a"/><path d="m255.027 174.201-41.647-15.078c-10.137-3.67-20.023 6.007-16.569 16.22l3.236 9.57-127.577 43.144c-6.053 2.047-9.301 8.614-7.254 14.667l3.813 11.275c2.047 6.053 8.614 9.301 14.667 7.254l127.578-43.142 3.236 9.57c3.454 10.213 17.183 11.905 23.013 2.835l23.949-37.26c4.465-6.947 1.321-16.243-6.445-19.055z" fill="#ff748f"/><path d="m74.603 368.27c0-9.639.641-19.092 1.856-28.311h-21.123c-12.315 0-22.299 9.983-22.299 22.299v142.241h94.172c-32.113-32.294-52.606-81.325-52.606-136.229z" fill="#00c67f"/><path d="m105.28 216.961-32.81 11.095c-6.053 2.047-9.301 8.614-7.254 14.667l3.813 11.275c2.047 6.053 8.614 9.301 14.667 7.254l44.847-15.166c-10.04-8.127-18.033-18.036-23.263-29.125z" fill="#fd5f7e"/><path d="m315.741 90.527c0-22.077 8.363-42.44 22.46-58.796-.645-.181-1.287-.392-1.924-.638l-.044-.017c-16.995-6.571-33.716 10.149-27.145 27.144l.017.044c4.041 10.452-.841 22.234-11.09 26.765-16.67 7.369-16.67 31.023 0 38.392 10.249 4.53 15.131 16.313 11.09 26.765l-.017.044c-6.571 16.995 10.149 33.715 27.144 27.145l.044-.018c10.452-4.041 22.234.841 26.765 11.09 7.369 16.67 31.023 16.67 38.392 0 .407-.92.89-1.78 1.407-2.61-49.837-9.726-87.099-48.701-87.099-95.31z" fill="#00c67f"/></g><g><path d="m474.47 512c4.142 0 7.5-3.358 7.5-7.5v-249.439c0-16.431-13.368-29.799-29.799-29.799h-65.76c-16.431 0-29.799 13.368-29.799 29.799v9.885c-4.365-2.51-9.417-3.953-14.803-3.953h-65.757c-16.432 0-29.799 13.368-29.799 29.799v9.886c-4.364-2.508-9.415-3.951-14.799-3.951h-65.757c-16.432 0-29.799 13.368-29.799 29.799v9.888c-4.365-2.509-9.417-3.953-14.803-3.953h-65.76c-16.431 0-29.799 13.368-29.799 29.799v142.24c0 4.142 3.358 7.5 7.5 7.5zm-213.217-221.208c0-8.16 6.639-14.799 14.799-14.799h65.757c8.16 0 14.799 6.639 14.799 14.799v53.272c0 4.142 3.358 7.5 7.5 7.5h.002s.001 0 .002 0c4.142 0 7.5-3.358 7.5-7.5v-89.003c0-8.16 6.639-14.799 14.799-14.799h65.76c8.16 0 14.799 6.639 14.799 14.799v241.939h-95.358v-122.936c0-4.142-3.358-7.5-7.5-7.5-.001 0-.001 0-.002 0s-.001 0-.002 0c-4.142 0-7.5 3.358-7.5 7.5v122.937h-95.355v-170.475zm-125.358 71.468v62.097c0 4.142 3.358 7.5 7.5 7.5h.002s.001 0 .002 0c4.142 0 7.5-3.358 7.5-7.5v-97.831c0-8.161 6.639-14.799 14.799-14.799h65.757c8.16 0 14.799 6.639 14.799 14.799v170.475h-95.355v-42.644c0-4.142-3.358-7.5-7.5-7.5-.001 0-.001 0-.002 0s-.001 0-.002 0c-4.142 0-7.5 3.358-7.5 7.5v42.643h-95.358v-134.74c0-8.161 6.639-14.799 14.799-14.799h65.76c8.16 0 14.799 6.638 14.799 14.799z"/><path d="m469.49 78.171c-6.598-2.916-9.728-10.472-7.11-17.244 8.917-23.062-13.748-45.775-36.889-36.827-6.728 2.601-14.284-.529-17.2-7.127-10.008-22.639-42.113-22.621-52.111 0-2.917 6.598-10.472 9.729-17.245 7.11-23.066-8.919-45.774 13.75-36.827 36.889 2.601 6.728-.529 14.284-7.127 17.2-22.637 10.007-22.623 42.111 0 52.112 6.598 2.916 9.728 10.472 7.109 17.245-8.916 23.061 13.749 45.774 36.889 36.827 6.728-2.601 14.284.529 17.201 7.127 10.009 22.644 42.116 22.61 52.112 0 2.916-6.598 10.47-9.729 17.244-7.11 23.065 8.919 45.774-13.751 36.827-36.889-2.601-6.729.53-14.284 7.128-17.201 22.637-10.007 22.623-42.11-.001-52.112m-153.409-22.654c-4.223-10.923 6.442-21.697 17.489-17.427 14.21 5.495 30.169-1.117 36.329-15.053 4.748-10.742 19.922-10.745 24.673 0 6.16 13.936 22.118 20.548 36.373 15.036 10.923-4.224 21.698 6.442 17.428 17.488-5.495 14.211 1.117 30.169 15.053 36.329 10.743 4.748 10.745 19.923 0 24.673-13.936 6.16-20.548 22.118-15.036 36.373 4.223 10.925-6.444 21.697-17.488 17.427-14.212-5.494-30.169 1.118-36.329 15.053-4.748 10.742-19.922 10.745-24.673 0-4.691-10.612-15.06-16.976-26.036-16.976-3.438 0-6.938.625-10.338 1.939-10.922 4.225-21.698-6.443-17.428-17.488 5.496-14.211-1.117-30.169-15.053-36.329-10.742-4.749-10.746-19.924 0-24.673 13.936-6.158 20.548-22.116 15.036-36.372z"/><path d="m400.233 114.723c2.722-3.123 2.396-7.86-.726-10.582-3.123-2.722-7.861-2.397-10.582.726-3.538 4.06-9.83 4.072-13.378 0-2.722-3.123-7.459-3.447-10.582-.726s-3.448 7.459-.726 10.582c9.505 10.906 26.462 10.937 35.994 0z"/><path d="m324.301 100.281 3.64.976c-.04.729-.008-.018-.021 8.193 0 4.142 3.358 7.5 7.5 7.5s7.5-3.358 7.5-7.5v-4.22c3.993.745 7.628-1.761 8.608-5.418 1.072-4.001-1.303-8.113-5.304-9.186l-18.041-4.834c-3.996-1.072-8.113 1.302-9.186 5.303-1.072 4.002 1.303 8.115 5.304 9.186z"/><path d="m421.552 105.23v4.22c0 4.142 3.358 7.5 7.5 7.5s7.5-3.358 7.5-7.5c-.015-8.7.025-7.366-.021-8.193l3.64-.976c4.001-1.072 6.375-5.185 5.304-9.186-1.072-4.001-5.187-6.375-9.186-5.303l-18.041 4.834c-4.001 1.072-6.375 5.185-5.304 9.186.981 3.66 4.617 6.163 8.608 5.418z"/><path d="m58.111 245.128 3.813 11.275c3.352 9.912 14.166 15.34 24.174 11.956l120.473-40.74.833 2.466c5.459 16.141 27.189 18.862 36.427 4.488l23.949-37.26c7.063-10.988 2.105-25.708-10.2-30.162l-41.647-15.078c-16.024-5.8-31.701 9.488-26.226 25.675l.833 2.465-120.472 40.74c-9.962 3.369-15.326 14.214-11.957 24.175zm16.761-9.965 127.577-43.142c3.921-1.325 6.03-5.584 4.702-9.508l-3.236-9.57c-1.285-3.801 1.795-7.114 5.013-7.114 1.778 0 .151-.154 43.545 15.426 3.237 1.172 4.556 5.041 2.688 7.948l-23.949 37.26c-2.432 3.783-8.153 3.093-9.599-1.183l-3.236-9.57c-1.326-3.921-5.583-6.029-9.507-4.702l-127.578 43.142c-2.124.718-4.44-.426-5.159-2.552l-3.813-11.275c-.719-2.126.426-4.441 2.552-5.16z"/></g></g></svg>