<svg id="Capa_1" enable-background="new 0 0 512 512" height="512" viewBox="0 0 512 512" width="512" xmlns="http://www.w3.org/2000/svg"><g><g><path d="m381.404 7.5h-250.808c-41.452 0-75.056 33.604-75.056 75.056v346.887c0 41.452 33.604 75.056 75.056 75.056h250.807c41.452 0 75.056-33.604 75.056-75.056v-346.887c.001-41.452-33.603-75.056-75.055-75.056z" fill="#5c586f"/><path d="m130.279 236.082c0-89.078 16.856-169.789 58.618-228.582h-58.3c-41.453 0-75.057 33.604-75.057 75.056v346.888c0 41.453 33.604 75.056 75.056 75.056h117.86c-71.373-58.714-118.177-157.026-118.177-268.418z" fill="#4f4c5f"/><path d="m130.596 404.936c-8.446 0-15.318-6.871-15.318-15.318v-307.062c0-8.446 6.872-15.318 15.318-15.318h250.807c8.446 0 15.318 6.872 15.318 15.318v307.062c0 8.446-6.871 15.318-15.318 15.318z" fill="#78cbec"/><circle cx="256" cy="282.883" fill="#ff748f" r="78.925"/><path d="m276 341.808c-43.589 0-78.925-35.336-78.925-78.925 0-16.686 5.191-32.151 14.027-44.898-20.555 14.248-34.027 37.994-34.027 64.898 0 43.589 35.336 78.925 78.925 78.925 26.904 0 50.65-13.472 64.898-34.027-12.747 8.836-28.213 14.027-44.898 14.027z" fill="#fd5f7e"/><path d="m292.339 271.518-45.377-22.689c-8.448-4.224-18.387 1.919-18.387 11.364v45.377c0 9.445 9.94 15.588 18.387 11.364l45.377-22.689c9.365-4.681 9.365-18.044 0-22.727z" fill="#fff"/><circle cx="256" cy="454.718" fill="#4f4c5f" r="21.387"/><path d="m130.279 236.082c0-61.817 8.11-119.61 27.03-168.843h-26.713c-8.446 0-15.318 6.872-15.318 15.318v307.062c0 8.446 6.872 15.318 15.318 15.318h39.124c-25.028-49.236-39.441-107.034-39.441-168.855z" fill="#34b5e1"/></g><g><path d="m130.596 512h250.807c45.521 0 82.556-37.035 82.556-82.557v-346.887c.001-45.521-37.034-82.556-82.555-82.556h-250.808c-45.521 0-82.556 37.035-82.556 82.556v235.138c0 4.142 3.358 7.5 7.5 7.5s7.5-3.358 7.5-7.5v-235.138c0-37.25 30.306-67.556 67.556-67.556h250.807c37.25 0 67.556 30.306 67.556 67.556v346.887c0 37.251-30.306 67.557-67.556 67.557h-250.807c-37.25 0-67.556-30.306-67.556-67.557v-81.75c0-4.142-3.358-7.5-7.5-7.5s-7.5 3.358-7.5 7.5v81.75c0 45.522 37.035 82.557 82.556 82.557z"/><path d="m107.779 82.556v307.062c0 12.582 10.236 22.818 22.818 22.818h250.807c12.582 0 22.818-10.236 22.818-22.818v-188.005c0-4.142-3.358-7.5-7.5-7.5s-7.5 3.358-7.5 7.5v188.004c0 4.311-3.507 7.818-7.818 7.818h-250.808c-4.311 0-7.818-3.507-7.818-7.818v-307.061c0-4.311 3.507-7.818 7.818-7.818h250.807c4.311 0 7.818 3.507 7.818 7.818v89.057c0 4.142 3.358 7.5 7.5 7.5s7.5-3.358 7.5-7.5v-89.057c0-12.582-10.236-22.818-22.818-22.818h-250.807c-12.582 0-22.817 10.237-22.817 22.818z"/><path d="m256 369.308c47.655 0 86.425-38.771 86.425-86.425s-38.77-86.425-86.425-86.425-86.425 38.771-86.425 86.425 38.769 86.425 86.425 86.425zm0-157.851c39.384 0 71.425 32.041 71.425 71.425s-32.041 71.425-71.425 71.425-71.425-32.042-71.425-71.425c-.001-39.384 32.04-71.425 71.425-71.425z"/><path d="m250.316 323.643 45.377-22.689c14.886-7.442 14.882-28.703 0-36.144l-45.377-22.688c-13.448-6.725-29.241 3.068-29.241 18.072v45.377c-.001 15.011 15.811 24.788 29.241 18.072zm-14.242-63.449c0-3.826 4.026-6.41 7.533-4.656l45.377 22.688c3.835 1.918 3.85 7.386 0 9.312l-45.377 22.688c-3.455 1.729-7.533-.78-7.533-4.656z"/><path d="m227.113 454.718c0 15.929 12.959 28.887 28.887 28.887s28.887-12.958 28.887-28.887-12.959-28.888-28.887-28.888-28.887 12.959-28.887 28.888zm42.774 0c0 7.657-6.23 13.887-13.887 13.887s-13.887-6.23-13.887-13.887 6.23-13.888 13.887-13.888 13.887 6.231 13.887 13.888z"/><path d="m262.61 37.369c0-3.651-2.959-6.61-6.61-6.61s-6.61 2.959-6.61 6.61c0 3.65 2.959 6.61 6.61 6.61s6.61-2.959 6.61-6.61z"/><path d="m167.125 99.554c-4.142 0-7.5 3.358-7.5 7.5v62.793c0 3.653 2.631 6.774 6.231 7.392 1.688.289 20.454.124 23.317.108 4.142-.023 7.481-3.4 7.458-7.542s-3.379-7.492-7.542-7.458c-4.987.028-10.338.048-14.465.053v-55.346c.001-4.142-3.357-7.5-7.499-7.5z"/><path d="m224.803 169.901v-62.847c0-4.142-3.358-7.5-7.5-7.5s-7.5 3.358-7.5 7.5v62.847c0 4.142 3.358 7.5 7.5 7.5s7.5-3.358 7.5-7.5z"/><path d="m344.875 115.128c4.142 0 7.5-3.358 7.5-7.5s-3.358-7.5-7.5-7.5h-26.239c-4.142 0-7.5 3.358-7.5 7.5v62.273c0 4.142 3.358 7.5 7.5 7.5h26.239c4.142 0 7.5-3.358 7.5-7.5s-3.358-7.5-7.5-7.5h-18.739v-16.137h16.804c4.142 0 7.5-3.358 7.5-7.5s-3.358-7.5-7.5-7.5h-16.804v-16.136z"/><path d="m277.429 171.304 20.52-61.77c1.306-3.931-.822-8.176-4.753-9.482-3.933-1.307-8.176.823-9.482 4.753l-14.872 44.768-15.612-44.978c-1.358-3.914-5.633-5.983-9.545-4.626-3.913 1.358-5.984 5.632-4.626 9.545l21.505 61.954c2.806 7.897 14.114 7.931 16.865-.164z"/></g></g></svg>