<svg id="Capa_1" enable-background="new 0 0 512 512" height="512" viewBox="0 0 512 512" width="512" xmlns="http://www.w3.org/2000/svg"><g><g><path d="m256 55.976-186.932 102.766v287.774c0 32.023 25.96 57.984 57.984 57.984h257.896c32.023 0 57.984-25.96 57.984-57.984v-287.774z" fill="#ff748f"/><path d="m89.514 268.602c0-48.875 9.735-95.043 27.005-135.946l-47.452 26.086v287.774c0 32.023 25.96 57.983 57.984 57.983h37.351c-49.515-51.558-74.888-131.432-74.888-235.897z" fill="#fd5f7e"/><path d="m489.397 141.437-210.165-127.443c-14.279-8.658-32.187-8.66-46.464-.001l-210.165 127.444c-12.044 7.303-15.887 22.988-8.584 35.032l20.017 33.01c7.303 12.044 22.988 15.887 35.032 8.584l186.932-113.356 186.932 113.355c12.044 7.303 27.728 3.46 35.032-8.584l20.016-33.009c7.304-12.044 3.461-27.728-8.583-35.032z" fill="#f9ed80"/><circle cx="139.051" cy="275.994" fill="#423e4f" r="29.702"/><path d="m240.283 236.702c15.476-25.269 43.34-42.135 75.148-42.135 34.635 0 64.597 19.994 78.975 49.072l-32.645 34.089h-89.718z" fill="#5c586f"/><path d="m291.198 197.956c-21.433 6.124-39.529 20.155-50.915 38.746l12.121 15.657c6.622-22.012 20.437-41.015 38.794-54.403z" fill="#4f4c5f"/><path d="m403.5 282.635c0 48.635-39.434 88.059-88.069 88.059s-88.059-39.425-88.059-88.059c0-16.827 4.722-32.556 12.912-45.934 81.657-13.232 65.374 27.582 154.123 6.937 5.819 11.756 9.093 24.998 9.093 38.997z" fill="#ffdcce"/><path d="m248.059 281.951c0-17.125 4.206-33.288 11.662-47.561-5.815.406-12.239 1.145-19.438 2.311-8.19 13.378-12.912 29.107-12.912 45.934 0 41.364 28.521 76.06 66.969 85.511-27.959-18.901-46.281-50.454-46.281-86.195z" fill="#ffcabd"/><path d="m112.337 331.955c10.508-33.173 41.494-57.38 78.395-57.38 36.672 0 67.857 24.067 78.405 57.38l-78.405 39.631z" fill="#5c586f"/><path d="m149.049 285.91c-17.324 10.212-30.546 26.581-36.712 46.045l16.876 8.531c1.141-20.099 8.285-38.765 19.836-54.576z" fill="#4f4c5f"/><path d="m272.964 356.817c0 45.411-36.822 82.232-82.232 82.232-45.421 0-82.232-36.822-82.232-82.232 0-8.659 1.342-17.009 3.837-24.863 9.384 1.412 55.222 6.839 78.395-17.695 23.182 24.544 69.05 19.097 78.405 17.695 2.485 7.844 3.827 16.194 3.827 24.863z" fill="#ffdcce"/><path d="m260.399 383.847c8.838-28.938 35.718-50.143 67.768-50.143 31.861 0 58.92 21.075 67.788 50.143l-67.78 32.706z" fill="#4f4c5f"/><path d="m399.036 404.574c0 39.138-31.732 70.86-70.87 70.86s-70.86-31.722-70.86-70.86c0-7.197 1.074-14.166 3.092-20.727 13.579-1.342 36.414-5.149 56.972-15.866 6.75-3.519 14.852-3.519 21.612 0 20.558 10.716 43.393 14.524 56.972 15.866 2.009 6.551 3.082 13.51 3.082 20.727z" fill="#ffcabd"/><path d="m161.796 57.031-139.193 84.405c-12.044 7.304-15.887 22.988-8.583 35.032l20.017 33.01c7.303 12.044 22.988 15.887 35.031 8.583l26.648-16.159c10.49-55.592 33.811-105.416 66.08-144.871z" fill="#fccb88"/><path d="m129.051 346.188c0-4.322.286-8.583.825-12.775-8.183-.195-14.623-1.021-17.539-1.459-2.495 7.854-3.837 16.204-3.837 24.862 0 43.687 34.074 79.407 77.103 82.057-33.987-19.44-56.552-53.683-56.552-92.685z" fill="#ffcabd"/></g><g><path d="m145.077 350.097c-4.141 0-7.5 3.358-7.5 7.5v8.773c0 4.142 3.358 7.5 7.5 7.5s7.5-3.357 7.5-7.5v-8.773c0-4.142-3.357-7.5-7.5-7.5z"/><path d="m236.394 350.097c-4.141 0-7.5 3.358-7.5 7.5v8.773c0 4.142 3.358 7.5 7.5 7.5s7.5-3.357 7.5-7.5v-8.773c-.001-4.142-3.358-7.5-7.5-7.5z"/><path d="m207.701 360.456c-3.122-2.721-7.86-2.396-10.581.727-3.375 3.874-9.381 3.886-12.767 0-2.722-3.122-7.459-3.448-10.581-.727-3.123 2.721-3.448 7.459-.727 10.581 9.362 10.743 26.03 10.73 35.383 0 2.72-3.123 2.395-7.86-.727-10.581z"/><path d="m268.447 266.395c-4.142 0-7.5 3.358-7.5 7.5v9.395c0 4.142 3.358 7.5 7.5 7.5s7.5-3.358 7.5-7.5v-9.395c0-4.142-3.358-7.5-7.5-7.5z"/><path d="m366.236 266.395c-4.142 0-7.5 3.358-7.5 7.5v9.395c0 4.142 3.358 7.5 7.5 7.5s7.5-3.358 7.5-7.5v-9.395c0-4.142-3.358-7.5-7.5-7.5z"/><path d="m335.16 277.357c-3.122-2.722-7.86-2.395-10.581.727-3.828 4.392-10.635 4.405-14.474 0-2.721-3.122-7.459-3.448-10.58-.727-3.123 2.722-3.448 7.459-.727 10.581 9.812 11.26 27.286 11.248 37.089 0 2.721-3.123 2.395-7.86-.727-10.581z"/><path d="m288.825 396.997c-4.142 0-7.5 3.358-7.5 7.5v7.561c0 4.141 3.358 7.5 7.5 7.5s7.5-3.358 7.5-7.5v-7.561c-.001-4.142-3.358-7.5-7.5-7.5z"/><path d="m367.516 396.997c-4.142 0-7.5 3.358-7.5 7.5v7.561c0 4.141 3.358 7.5 7.5 7.5s7.5-3.358 7.5-7.5v-7.561c0-4.142-3.358-7.5-7.5-7.5z"/><path d="m343.471 406.178c-3.123-2.721-7.86-2.395-10.581.727-2.498 2.866-6.934 2.874-9.439 0-2.722-3.123-7.458-3.448-10.581-.728-3.122 2.721-3.449 7.459-.727 10.581 8.48 9.731 23.583 9.721 32.055 0 2.721-3.122 2.396-7.859-.727-10.58z"/><path d="m401.122 240.33v-.001s0-.001-.001-.001v-.001s0-.001-.001-.001c-16.241-32.84-49.075-53.24-85.692-53.24-33.525 0-64.006 17.09-81.539 45.715v.001c-7.331 11.975-11.889 25.398-13.426 39.311-9.354-3.26-19.366-5.024-29.726-5.024-5.19 0-10.289.451-15.266 1.298-3.526-16.869-18.511-29.58-36.413-29.58-20.512 0-37.2 16.688-37.2 37.2 0 12.016 5.678 22.935 14.99 29.831-4.939 7.19-8.903 15.186-11.649 23.851 0 .001-.001.002-.001.004 0 .001-.001.002-.001.003s-.001.002-.001.003-.001.002-.001.003c-2.778 8.747-4.186 17.872-4.186 27.123 0 49.475 40.252 89.727 89.728 89.727 22.808 0 44.673-8.805 61.147-24.124 8.103 34.63 39.216 60.506 76.28 60.506 43.211 0 78.365-35.15 78.365-78.356 0-21.081-8.332-40.591-22.749-55.167 17.383-17.79 27.212-41.682 27.212-66.764-.001-14.849-3.321-29.087-9.87-42.317zm-85.695-38.247c27.574 0 52.605 13.725 67.395 36.388-68.602 13.579-60.878-16.754-125.763-11.398 15.034-15.874 35.891-24.99 58.368-24.99zm68.596 172.587c-14.927-2.588-28.296-6.555-41.582-13.334-4.47-2.328-9.373-3.491-14.274-3.491-15.385.002-18.493 10.405-55.851 16.826 24.015-44.691 87.748-44.379 111.707-.001zm-125.42-49.096c-21.108 1.656-47.943-1.128-62.415-16.454-1.417-1.5-3.389-2.35-5.452-2.35-7.202 0-15.243 22.712-67.625 18.827-.097-.007-.187-.015-.282-.022 11.951-26.115 38.303-43.488 67.907-43.488 30.99 0 56.381 18.668 67.867 43.487zm-141.747-49.567c0-12.242 9.959-22.201 22.201-22.201 10.925 0 20.032 7.932 21.864 18.339-13.134 4.594-24.951 12.168-34.565 22.076-5.891-4.085-9.5-10.806-9.5-18.214zm73.88 155.546c-41.206 0-74.728-33.523-74.728-74.728 0-5.629.624-11.198 1.861-16.627 24.372 2.474 53.718-.247 72.867-15.735 19.117 15.46 48.318 18.167 72.864 15.734 1.334 5.872 1.945 11.882 1.845 17.434-9.803 13.077-15.212 28.93-15.61 44.898-14.12 18.218-36.035 29.024-59.099 29.024zm137.427 36.383c-40.482 0-70.588-37.612-61.833-77.201 18.717-2.361 37.909-7.444 54.505-16.096 4.714-2.457 10.195-2.336 14.676 0 16.532 8.617 35.934 13.764 54.503 16.095 8.837 39.614-21.402 77.202-61.851 77.202zm44.057-128.16c-28.249-19.27-66.042-17.891-92.786 3.434-.31-2.374-1.473-8.246-3.148-13.51v-.001c-6.863-21.676-21.574-39.902-41.313-51.044.608-12.329 4.021-24.322 9.988-35.074 77.956-11.537 61.788 26.382 145.117 8.719 3.927 9.612 5.914 19.795 5.914 30.348 0 21.54-8.598 42.046-23.772 57.128z"/><path d="m27.636 213.383c7.041 11.612 20.486 17.728 33.943 15.373v217.764c0 36.106 29.374 65.48 65.48 65.48h257.882c36.106 0 65.48-29.374 65.48-65.48v-217.764c1.883.329 3.779.509 5.669.509 11.165-.001 22.074-5.658 28.274-15.883l20.015-33.007c9.436-15.56 4.453-35.895-11.107-45.331l-124.42-75.448c-3.541-2.147-8.154-1.017-10.301 2.524-2.148 3.542-1.018 8.154 2.524 10.302l124.421 75.448c8.508 5.16 11.219 16.219 6.059 24.729l-20.015 33.007c-5.147 8.487-16.24 11.206-24.728 6.06 0 0-.001 0-.001-.001l-186.922-113.349c-2.39-1.449-5.387-1.449-7.777 0l-118.048 71.584c-3.547 2.151-4.669 6.764-2.524 10.302 2.148 3.542 6.76 4.671 10.301 2.524l114.159-69.227 179.422 108.801v224.22c0 27.835-22.646 50.481-50.481 50.481h-257.882c-27.835 0-50.481-22.646-50.481-50.481v-224.22l38.809-23.533c3.541-2.147 4.672-6.76 2.524-10.301-2.147-3.542-6.76-4.671-10.301-2.524l-42.42 25.723s0 0-.001 0c-8.488 5.146-19.58 2.428-24.728-6.06l-20.016-33.008c-5.147-8.488-2.429-19.581 6.059-24.728l210.155-127.436c11.929-7.235 26.752-7.235 38.683.001l59.322 35.973c3.542 2.148 8.154 1.018 10.301-2.524 2.148-3.542 1.018-8.154-2.524-10.302l-59.321-35.972c-16.73-10.144-37.514-10.145-54.239 0l-210.154 127.435c-15.56 9.436-20.542 29.772-11.107 45.332z"/></g></g></svg>