<svg id="Capa_1" enable-background="new 0 0 512 512" height="512" viewBox="0 0 512 512" width="512" xmlns="http://www.w3.org/2000/svg"><g><g><ellipse cx="133.22" cy="89.683" fill="#ff9dd3" rx="81.505" ry="82.856" transform="matrix(.707 -.707 .707 .707 -24.396 120.468)"/><path d="m182.565 117.588c-54.349 0-98.408-37.711-98.408-84.231 0-3.726.286-7.394.834-10.991-3.632 2.58-7.106 5.477-10.359 8.73-31.83 31.829-31.402 83.863.956 116.22 32.357 32.357 84.391 32.786 116.221.956 9.956-9.957 16.755-21.889 20.409-34.579-9.359 2.528-19.319 3.895-29.653 3.895z" fill="#ff88ca"/><path d="m166.743 442.84h178.514v61.658h-178.514z" fill="#78cbec"/><ellipse cx="378.78" cy="89.683" fill="#ff9dd3" rx="82.856" ry="81.505" transform="matrix(.707 -.707 .707 .707 47.527 294.105)"/><path d="m47.676 239.31c0-114.87 93.454-208.324 208.324-208.324 114.871 0 208.325 93.454 208.325 208.324z" fill="#5c586f"/><path d="m256.003 239.308v171.85h-124.84c-44.11 0-78.3-38.27-73.72-82.15 2.64-25.24 3.62-55.51.66-89.7z" fill="#4f4c5f"/><path d="m380.833 411.158h-124.83v-171.85h197.9c-2.96 34.19-1.99 64.46.65 89.7 4.59 43.88-29.6 82.15-73.72 82.15z" fill="#5c586f"/><path d="m110.734 220.368c0-74.007 35.047-139.818 89.439-181.775-87.847 24.464-152.497 105.178-152.497 200.717h63.842c-.511-6.247-.784-12.562-.784-18.942z" fill="#4f4c5f"/><circle cx="425.453" cy="252.123" fill="#ffbd86" r="49.136"/><path d="m376.317 462.177c0-73.498-42.328-94.871-42.328-94.871h-155.978s-42.328 21.373-42.328 94.871z" fill="#78cbec"/><path d="m98.385 170.749c-8.891 20.406-13.936 42.874-14.215 66.488-1.131 95.665 75.02 173.291 170.69 173.912 95.43.62 172.984-76.553 172.984-171.839 0-27.599-6.51-53.676-18.074-76.785-6.099-12.187-21.201-16.84-33.203-10.385-111.409 59.915-119.633-28.218-228.825-17.277-21.757 2.18-40.624 15.842-49.357 35.886z" fill="#fed2a4"/><g><g><g><ellipse cx="162.212" cy="276.367" fill="#ff889e" rx="34.606" ry="27.558"/></g><g><ellipse cx="349.788" cy="276.367" fill="#ff889e" rx="34.606" ry="27.558"/></g></g></g><g><path d="m140.042 492.158c-10.454-13.746-7.786-33.364 5.959-43.818l48.972-37.247c13.745-10.456 33.365-7.786 43.818 5.959 10.455 13.746 7.787 33.364-5.959 43.818l-48.972 37.247c-13.747 10.458-33.365 7.784-43.818-5.959z" fill="#c1e9fa"/></g><g><path d="m371.958 492.158c10.454-13.746 7.786-33.364-5.959-43.818l-48.972-37.247c-13.745-10.456-33.365-7.786-43.818 5.959-10.455 13.746-7.787 33.364 5.959 43.818l48.972 37.247c13.747 10.458 33.365 7.784 43.818-5.959z" fill="#c1e9fa"/></g><path d="m227.997 371.55c-15.466 0-28.004 12.538-28.004 28.004v32.304c0 15.466 12.538 28.004 28.004 28.004 15.466 0 28.003-12.538 28.003-28.004v-32.304c0-15.467-12.538-28.004-28.003-28.004z" fill="#ffbd86"/><path d="m284.004 371.55c15.466 0 28.004 12.538 28.004 28.004v32.304c0 15.466-12.538 28.004-28.003 28.004-15.466 0-28.004-12.538-28.004-28.004v-32.304c-.001-15.467 12.537-28.004 28.003-28.004z" fill="#ffad6d"/><path d="m199.775 401.838c-54.165-41.971-89.041-107.643-89.041-181.47 0-27.472 4.835-53.813 13.689-78.228-11.401 6.31-20.65 16.242-26.038 28.609-4.475 10.271-7.973 21.064-10.382 32.263-.484-.014-.968-.025-1.456-.025-27.137 0-49.136 21.999-49.136 49.136s21.999 49.136 49.136 49.136c2.976 0 5.885-.279 8.715-.786 17.948 47.474 56.253 84.807 104.513 101.365z" fill="#ffbd86"/></g><g><path d="m182.378 222.371c-13.219 0-23.972 10.754-23.972 23.972 0 4.142 3.358 7.5 7.5 7.5s7.5-3.358 7.5-7.5c0-4.947 4.025-8.972 8.972-8.972s8.972 4.025 8.972 8.972c0 4.142 3.358 7.5 7.5 7.5s7.5-3.358 7.5-7.5c.001-13.218-10.753-23.972-23.972-23.972z"/><path d="m329.622 222.371c-13.219 0-23.972 10.754-23.972 23.972 0 4.142 3.358 7.5 7.5 7.5s7.5-3.358 7.5-7.5c0-4.947 4.025-8.972 8.972-8.972s8.972 4.025 8.972 8.972c0 4.142 3.358 7.5 7.5 7.5s7.5-3.358 7.5-7.5c0-13.218-10.754-23.972-23.972-23.972z"/><path d="m278.401 259.942c-3.123-2.722-7.861-2.397-10.582.727-6.248 7.169-17.37 7.19-23.637 0-2.721-3.123-7.459-3.448-10.582-.727s-3.448 7.459-.727 10.581c12.239 14.044 34.028 14.03 46.255 0 2.72-3.122 2.395-7.86-.727-10.581z"/><path d="m470.775 218.153c-2.552-26.135-9.817-51.312-21.287-74.46 12.777-16.54 19.481-36.856 18.939-57.772-.591-22.788-9.736-44.157-25.75-60.171-36.347-36.347-96.466-33.81-130.689 5.081-36.871-9.91-75.681-9.784-111.998-.026-1.26-1.431-2.541-2.804-3.836-4.099-35.23-35.231-92.126-35.66-126.831-.956-16.014 16.014-25.159 37.384-25.75 60.172-.543 20.932 6.171 41.262 18.966 57.808-11.481 23.173-18.767 48.357-21.314 74.422-7.105 9.465-11.321 21.216-11.321 33.936 0 18.287 8.719 34.567 22.21 44.929-.362 10.489-1.063 20.96-2.132 31.183-5.039 48.206 32.579 90.424 81.181 90.424h2.63c-3.319 11.786-5.491 25.765-5.601 42.228-7.713 23.06 7.352 47.478 31.509 50.766 3.78.515-12.889.361 187.29.361 26.723-.007 45.197-26.073 36.817-51.127-.11-16.461-2.28-30.44-5.599-42.228 1.527-.22 25.675 2.084 49.694-14.943 3.379-2.396 4.177-7.077 1.781-10.456-2.397-3.38-7.077-4.176-10.456-1.781-21.422 15.186-42.27 11.701-46.255 12.181-3.105-7.293-6.869-13.988-10.902-19.699 25.421-18.657 46.399-44.32 59.383-75.344 7.753.57 15.981-.533 23.745-3.401.419 8.271 1.055 16.499 1.9 24.58 1.55 14.828-1.718 29.342-9.451 41.971-2.163 3.533-1.053 8.15 2.48 10.313 3.534 2.164 8.15 1.052 10.313-2.48 9.47-15.466 13.474-33.228 11.578-51.364-1.069-10.222-1.77-20.694-2.132-31.183 24.816-19.063 29.403-54.204 10.888-78.865zm-43.845 75.54c8.607-27.018 10.474-55.444 6.234-82.515 19.312 3.599 33.931 20.616 33.931 40.909.001 22.469-17.884 40.829-40.165 41.606zm-108.386 97.59c-6.898-28.76-44.239-37.09-62.544-13.562-18.262-23.472-55.798-15.238-62.569 13.671-73.711-30.14-114.868-108.882-98.103-186.828 2.391-11.121 7.849-29.041 14.127-38.63 8.65-13.213 22.955-22.036 39.03-23.646 105.248-10.545 116.767 78.197 231.637 16.42 8.292-4.459 18.737-1.271 22.945 7.136 41.82 83.561 5.354 188.311-84.523 225.439zm4.024 14.568c8.948-3.574 18.256-8.18 27.035-13.552 9.932 13.961 15.391 30.707 17.742 47.61-8.116-6.173-35.1-26.697-44.777-34.058zm-38.577 46.48c-11.504-.009-20.491-9.443-20.491-20.504 0-11.296 0-21.222 0-32.305 0-12.106 10.486-21.627 22.597-20.398 10.326 1.052 18.411 9.799 18.411 20.398v32.305c0 6.591-3.139 12.449-7.985 16.203-6.092 4.717-12.632 4.319-12.532 4.301zm-76.499-20.503c0-23.839 0-8.368 0-32.305 0-11.318 9.209-20.504 20.504-20.504 11.306 0 20.504 9.198 20.504 20.504 0 0 1.027 34.026-1.607 40.259-9.299 21.101-39.401 13.652-39.401-7.954zm-45.206-39.373c8.522 5.193 17.559 9.708 27.045 13.474l-44.676 33.98c2.331-16.754 7.796-33.607 17.631-47.454zm165.721-356.653c29.475-27.876 75.712-27.796 104.064.555 24.675 24.675 28.039 63.538 9.422 92.681-25.774-43.222-65.971-76.354-113.486-93.236zm-210.852 58.523c2.991-2.866 3.091-7.614.225-10.604-2.844-2.971-7.595-3.112-10.606-.226-14.414 13.792-26.778 29.627-36.262 45.551-18.621-29.144-15.259-68.012 9.418-92.689 28.349-28.349 74.575-28.434 104.05-.567-16.883 5.996-32.572 13.991-46.566 23.248-6.516 4.302-7.974 5.266-8.994 7.356-3.415 7.048 4.863 13.857 11.105 9.388 98.972-70.744 237.64-37.692 294.414 70.473 9.416 17.976 15.936 36.848 19.57 56.612-7.342-4.191-15.575-6.607-23.498-7.234-3.261-13.03-7.946-25.346-13.529-36.501-8.031-16.048-27.773-22.073-43.464-13.635-107.737 57.938-113.174-29.446-226.027-18.135-24.447 2.449-45.708 17.913-55.486 40.355-3.761 8.629-7.056 18.159-9.499 27.914-7.991.63-16.222 3.076-23.507 7.232 7.441-40.352 27.465-78.647 58.656-108.538zm-72.251 157.763c0-20.108 14.402-37.24 33.937-40.911-4.254 27.078-2.377 55.561 6.137 82.514-21.831-.74-40.074-18.844-40.074-41.603zm94.123 151.535c-3.043-.546-33.691 4.198-57.287-21.993-12.677-14.071-18.815-32.977-16.839-51.87.845-8.081 1.481-16.31 1.9-24.58 7.452 2.753 15.558 3.978 23.616 3.41 12.984 31.235 34.03 56.953 59.388 75.513-4.256 6.062-8.002 13.003-10.778 19.52zm4.27 59.734c3.326-7.344 6.377-8.393 49.194-40.985.061 16.908.07 28.123 15.632 38.863 2.102 1.424 4.468 2.688 6.973 3.672-38.064 28.919-36.783 28.293-40.211 29.879-4.191 1.939-8.761 2.567-13.161 1.967-15.826-2.152-24.986-18.934-18.427-33.396zm54.422 33.613c10.805-8.223 42.213-32.091 41.112-31.328 6.34-2.023 12.543-6.095 17.169-12.028 4.499 5.77 10.597 9.922 17.169 12.028 2.236 1.836-1.578-1.189 41.113 31.328zm168.274-9.38c-7.992 10.507-22.914 12.44-33.31 4.53l-35.778-27.212c7.157-2.789 13.66-8.131 17.839-15.346 5.47-9.446 4.73-17.221 4.766-27.19 46.188 35.159 46.613 34.2 49.722 42.25 2.867 7.445 1.934 16.165-3.239 22.968z"/></g></g></svg>