<svg id="Capa_1" enable-background="new 0 0 512 512" height="512" viewBox="0 0 512 512" width="512" xmlns="http://www.w3.org/2000/svg"><g><g><path d="m234.246 203.868-43.487 153.485h47.885c28.799 0 54.218-18.813 62.634-46.354l32.734-107.131z" fill="#5c586f"/><path d="m91.662 55.575c-15.386 0-29.443 8.682-36.345 22.433-10.497 20.911-26.447 55.185-43.647 101.12-15.872 42.39 15.534 87.586 60.798 87.586l71.767-211.139s-35.056 0-52.573 0z" fill="#4f4c5f"/><path d="m190.759 357.353h47.885c2.344 0 4.663-.137 6.955-.381 4.437-17.327 9.23-33.582 14.367-50.997 2.084-7.063 4.196-14.224 6.33-21.619 5.733-19.884 24.204-33.77 44.917-33.77h8.524l14.275-46.717h-99.765z" fill="#4f4c5f"/><path d="m203.313 412.255c9.361-56.02 21.395-91.986 34.157-136.211 9.475-32.857 39.544-55.458 73.743-55.458h101.243l46.021-75.226-46.021-89.785h-268.22s-78.735 135.556-115.659 356.68l93.919 35.941z" fill="#fccb88"/><path d="m93.935 299.691c0-95.748 38.917-182.249 101.539-244.116h-51.239s-78.735 135.556-115.659 356.68l93.919 35.941 4.065-1.808c-20.908-44.426-32.625-94.17-32.625-146.697z" fill="#fab659"/><path d="m221.163 449.587c-5.511-12.698-11.485-25.146-17.85-37.332h-174.736c-2.382 14.268-4.589 28.891-6.591 43.859-1.984 14.83 9.549 28.022 24.511 28.022h151.968c17.788 0 29.779-18.231 22.698-34.549z" fill="#5c586f"/><path d="m332.711 86.587h-130.045c-8.566 0-16.332 5.019-19.846 12.831-5.341 11.874-11.567 26.612-18.149 43.972-5.396 14.232 5.135 29.466 20.355 29.466h147.684c12.019 0 21.763-9.744 21.763-21.763v-42.743c0-12.019-9.743-21.763-21.762-21.763z" fill="#5c586f"/><path d="m112.709 412.255h-84.132c-2.382 14.269-4.589 28.892-6.591 43.859-1.984 14.83 9.549 28.022 24.511 28.022h100.836c-14.176-22.304-25.842-46.403-34.624-71.881z" fill="#4f4c5f"/><path d="m476.791 27.864h-36.629c-15.303 0-27.709 12.406-27.709 27.709v165.011c0 15.303 12.406 27.709 27.709 27.709h36.629c15.303 0 27.709-12.406 27.709-27.709v-165.011c0-15.303-12.406-27.709-27.709-27.709z" fill="#5c586f"/><path d="m442.816 100.385c0-26.842 6.505-51.787 17.651-72.521h-20.304c-15.303 0-27.709 12.406-27.709 27.709v165.012c0 15.303 12.406 27.709 27.709 27.709h36.629c15.303 0 27.709-12.406 27.709-27.709v-1.245c-36.364-20.397-61.685-65.985-61.685-118.955z" fill="#4f4c5f"/></g><g><path d="m185.008 180.352h147.692c16.137 0 29.264-13.128 29.264-29.265v-42.746c0-16.136-13.128-29.264-29.264-29.264h-130.051c-11.497 0-21.973 6.773-26.688 17.256-6.299 14.005-12.464 28.94-18.323 44.393-7.248 19.116 6.914 39.626 27.37 39.626zm-13.343-34.308c5.753-15.172 11.801-29.826 17.977-43.557 2.297-5.108 7.404-8.409 13.008-8.409h130.05c7.865 0 14.264 6.399 14.264 14.263v42.746c0 7.865-6.399 14.264-14.264 14.264h-147.692c-9.984 0-16.885-9.967-13.343-19.307z"/><path d="m208.408 140.75c4.142 0 7.5-3.358 7.5-7.5v-10.969c0-4.142-3.358-7.5-7.5-7.5s-7.5 3.358-7.5 7.5v10.969c0 4.143 3.358 7.5 7.5 7.5z"/><path d="m322.574 140.75c4.142 0 7.5-3.358 7.5-7.5v-10.969c0-4.142-3.358-7.5-7.5-7.5s-7.5 3.358-7.5 7.5v10.969c0 4.143 3.358 7.5 7.5 7.5z"/><path d="m286.196 137.851c2.721-3.123 2.396-7.86-.727-10.582s-7.861-2.397-10.583.727c-4.967 5.7-13.808 5.717-18.79 0-2.722-3.123-7.459-3.448-10.583-.727-3.123 2.722-3.448 7.459-.727 10.582 10.959 12.572 30.464 12.559 41.41 0z"/><path d="m52.139 271.346c-4.313 15.469-8.519 31.632-12.532 48.477-.96 4.03 1.528 8.075 5.558 9.035 4.029.96 8.075-1.528 9.035-5.558 34.79-146.009 83.81-240.73 94.428-260.236h256.32v150.02c-9.895 0-82.04 0-93.746 0-37.195 0-70.441 24.43-80.953 60.882-12.393 42.947-24.028 78.005-33.278 130.798h-159.535c2.997-17.244 6.356-34.571 10.01-51.629.868-4.051-1.712-8.038-5.763-8.906-4.05-.866-8.037 1.713-8.905 5.763-7.938 37.053-13.879 72.414-18.255 105.14-2.585 19.319 12.458 36.518 31.947 36.518h151.977c23.175 0 38.808-23.772 29.579-45.038-5.121-11.8-10.81-23.751-16.916-35.563 2.885-16.936 6.033-32.077 9.375-46.189h18.143c32.313 0 60.368-20.763 69.81-51.666l26.006-85.109h71.316c3.448 15.822 17.558 27.709 34.399 27.709h36.63c19.416 0 35.211-15.795 35.211-35.211v-97.722c0-4.142-3.358-7.5-7.5-7.5s-7.5 3.358-7.5 7.5v97.722c0 11.144-9.066 20.21-20.21 20.21h-36.63c-11.144 0-20.211-9.066-20.211-20.21v-165.02-.001c0-11.144 9.066-20.21 20.211-20.21h36.63c11.144 0 20.21 9.066 20.21 20.21v37.297c0 4.142 3.358 7.5 7.5 7.5s7.5-3.358 7.5-7.5v-37.297c0-19.415-15.795-35.211-35.211-35.211h-36.63c-16.842 0-30.952 11.888-34.4 27.712-38.854 0-274.33 0-314.121 0-18.328 0-34.824 10.181-43.051 26.57-10.47 20.861-26.598 55.466-43.969 101.86-14.889 39.767 7.617 83.302 47.521 94.853zm146.308 205.302h-151.977c-10.417 0-18.46-9.198-17.079-19.528 1.664-12.436 3.518-24.973 5.525-37.356h163.815c5.595 10.915 10.812 21.937 15.535 32.819 4.939 11.382-3.397 24.065-15.819 24.065zm95.645-167.837c-7.501 24.552-29.791 41.048-55.464 41.048h-14.431c6.388-24.738 13.384-47.201 20.465-71.735 8.496-29.462 35.858-50.039 66.54-50.039h7.558zm-275.425-127.057c17.139-45.773 33.021-79.858 43.328-100.391 5.665-11.287 17.024-18.298 29.644-18.298h39.951c-13.328 25.411-46.002 92.833-75.365 193.854-31.289-9.119-49.438-43.44-37.558-75.165z"/></g></g></svg>