<svg id="Capa_1" enable-background="new 0 0 512 512" height="512" viewBox="0 0 512 512" width="512" xmlns="http://www.w3.org/2000/svg"><g><g><path d="m423.709 75.154h-335.418c-29.84 0-54.029 24.19-54.029 54.029v295.171h443.476v-295.17c0-29.84-24.19-54.03-54.029-54.03z" fill="#5c586f"/><path d="m96.571 157.449h318.857v266.906h-318.857z" fill="#78cbec"/><path d="m373.505 399.446-40.378 24.908-45.391-24.908-31.736-53.378 31.736-65.196h32.266s53.503 45.693 53.503 118.574z" fill="#fff"/><path d="m224.264 280.872 31.736 65.196-31.736 53.379-42.884 24.908-42.884-24.908c0-72.881 53.503-118.575 53.503-118.575z" fill="#fff"/><path d="m224.264 280.872h63.472v118.575h-63.472z" fill="#80dfb5"/><path d="m191.998 399.446h-157.736c-14.778 0-26.762 11.984-26.762 26.762v12.4c0 33.398 27.073 60.471 60.461 60.471h376.078c33.387 0 60.461-27.073 60.461-60.471v-12.4c0-14.778-11.984-26.762-26.762-26.762h-157.736z" fill="#c7c5cb"/><circle cx="393.444" cy="175.299" fill="#ffcabd" r="38.758"/><path d="m125.898 98.565s0 0-.01 0c21.694-50.377 71.78-85.644 130.112-85.644s108.418 35.267 130.112 85.644l-130.112 43.851z" fill="#ff9e8e"/><path d="m239.99 13.819c-51.373 5.781-94.421 39.044-114.102 84.746h.01l34.647 11.678c12.936-39.759 41.486-73.717 79.445-96.424z" fill="#fb8978"/><path d="m397.598 154.529c0 78.198-63.389 141.598-141.598 141.598s-141.598-63.4-141.598-141.598c0-19.877 4.092-38.798 11.486-55.964h.01c138.971-43.388 122.355 51.146 260.204 0h.01c7.394 17.166 11.486 36.088 11.486 55.964z" fill="#ffdcce"/><path d="m320.002 399.446v17.717c0 17.727-14.373 32.1-32.1 32.1h-63.805c-17.727 0-32.1-14.373-32.1-32.1v-17.717z" fill="#b2b0bc"/><path d="m224.286 292.559c-43.628-32.056-71.389-80.252-71.389-134.154 0-24.875 5.924-48.531 16.578-69.952-12.667 1.733-27.015 4.941-43.577 10.112 0 0 0 0-.01 0-5.144 11.942-8.684 24.734-10.366 38.105-19.986 1.549-35.724 18.245-35.724 38.629 0 21.405 17.353 38.758 38.758 38.758 3.028 0 5.846-.358 8.468-1.015 18.033 39.685 53.84 69.582 97.262 79.517z" fill="#ffcabd"/><g><g><g><ellipse cx="173.381" cy="193.28" fill="#ff889e" rx="30.485" ry="24.276"/></g><g><ellipse cx="338.619" cy="193.28" fill="#ff889e" rx="30.485" ry="24.276"/></g></g></g><path d="m339.77 345.456h-5.976v-5.976c0-4.143-3.357-7.5-7.5-7.5s-7.5 3.357-7.5 7.5v5.976h-5.976c-4.143 0-7.5 3.358-7.5 7.5s3.357 7.5 7.5 7.5h5.976v5.976c0 4.143 3.357 7.5 7.5 7.5s7.5-3.357 7.5-7.5v-5.976h5.976c4.143 0 7.5-3.358 7.5-7.5s-3.358-7.5-7.5-7.5z" fill="#ff748f"/><path d="m64.216 399.447h-29.954c-14.778 0-26.762 11.984-26.762 26.762v12.399c0 33.398 27.073 60.471 60.461 60.471h54.741c-28.702-28.191-49.212-62.226-58.486-99.632z" fill="#b2b0bc"/></g><g><path d="m191.147 177.411c4.142 0 7.5-3.358 7.5-7.5v-12.462c0-4.143-3.358-7.5-7.5-7.5s-7.5 3.357-7.5 7.5v12.462c0 4.141 3.358 7.5 7.5 7.5z"/><path d="m320.852 177.411c4.142 0 7.5-3.358 7.5-7.5v-12.462c0-4.143-3.358-7.5-7.5-7.5s-7.5 3.357-7.5 7.5v12.462c0 4.141 3.358 7.5 7.5 7.5z"/><path d="m256 184.829c8.72 0 17.013-3.776 22.752-10.361 2.722-3.122 2.396-7.86-.726-10.582s-7.86-2.397-10.582.726c-2.89 3.315-7.061 5.217-11.444 5.217s-8.555-1.901-11.444-5.217c-2.721-3.123-7.46-3.447-10.582-.726-3.123 2.721-3.448 7.459-.726 10.582 5.739 6.584 14.032 10.361 22.752 10.361z"/><path d="m67.961 506.579h376.079c37.474 0 67.96-30.492 67.96-67.971v-12.4c0-16.315-11.467-29.994-26.762-33.425v-147.8c0-4.142-3.358-7.5-7.5-7.5s-7.5 3.358-7.5 7.5v146.963h-47.31v-181.032c29.917-24.81 17.564-72.812-19.829-80.845-2.802-17.011-8.525-33.079-16.447-47.415h37.056c25.656 0 46.529 20.873 46.529 46.529v85.8c0 4.142 3.358 7.5 7.5 7.5s7.5-3.358 7.5-7.5v-85.8c0-33.927-27.602-61.529-61.529-61.529h-46.498c-27.629-38.566-72.457-62.233-121.21-62.233s-93.581 23.667-121.21 62.234h-46.498c-33.927 0-61.529 27.602-61.529 61.529v263.6c-15.296 3.43-26.763 17.109-26.763 33.424v12.4c0 37.48 30.487 67.971 67.961 67.971zm339.968-287.337v172.705h-27.106c-2.627-55.267-33.663-94.053-48.377-109.457 23.994-14.388 43.97-35.452 56.861-61.12 6.309.565 12.715-.186 18.622-2.128zm-120.027 222.521h-63.805c-13.586 0-24.6-11.055-24.6-24.6v-10.216h113.004v10.216c.001 13.582-11.051 24.6-24.599 24.6zm-180.769-295.537c-1.248 18.307 1.572 40.124 9.062 60.233-9.499-.749-17.689-5.597-22.937-12.831-12.041-16.557-5.045-39.885 13.875-47.402zm155.527-34.361c33.728 12.385 64.854 15.154 119.157-3.787 30.017 81.25-24.241 170.097-111.102 179.733-101.747 10.981-176.329-90.302-139.23-183.133 56.415-17.538 78.217-12.267 131.175 7.187zm17.576 280.082h-48.472v-90.284c15.984 2.596 32.469 2.606 48.472 0zm-63.472-93.541v93.541c-13.11 0-37.993 0-70.567 0 2.902-53.727 36.21-91.135 47.19-102.072 7.542 3.494 15.369 6.35 23.377 8.531zm78.472 93.541v-93.541c8.013-2.182 15.843-5.04 23.388-8.536 10.991 10.901 44.288 48.18 47.18 102.077-13.274 0-56.695 0-70.568 0zm100.569-185.488c7.416-19.908 10.297-41.47 9.062-60.233 31.336 12.493 23.412 57.674-9.062 60.233zm-139.805-186.038c49.898 0 96.484 27.684 119.824 73.858-44.428 15.372-73.351 16.946-115.835.535-45.396-17.596-69.357-21.11-119.639-8.174 24.304-41.239 68.098-66.219 115.65-66.219zm-214.238 108.763c0-25.657 20.873-46.529 46.529-46.529h37.055c-8.006 14.48-13.677 30.599-16.447 47.415-20.88 4.463-36.602 23.255-36.602 45.23 0 14.311 6.534 27.123 16.773 35.615v89.147c0 4.142 3.358 7.5 7.5 7.5s7.5-3.358 7.5-7.5v-80.819c5.963 1.96 12.42 2.685 18.622 2.128 12.397 24.684 31.896 46.147 56.861 61.12-14.713 15.403-45.749 54.19-48.376 109.457h-27.106v-61.886c0-4.142-3.358-7.5-7.5-7.5s-7.5 3.358-7.5 7.5v61.886h-47.309zm-26.762 297.024c0-10.621 8.641-19.262 19.262-19.262h150.236v10.217c0 21.906 17.832 39.6 39.6 39.6h63.805c21.835 0 39.6-17.764 39.6-39.6v-10.217h150.236c10.621 0 19.262 8.641 19.262 19.262v12.4c0 29.208-23.758 52.971-52.96 52.971h-376.08c-29.203 0-52.961-23.762-52.961-52.971z"/></g></g></svg>