<svg id="Capa_1" enable-background="new 0 0 512 512" height="512" viewBox="0 0 512 512" width="512" xmlns="http://www.w3.org/2000/svg"><g><g><path d="m41.787 221.713c0-118.118 96.095-214.213 214.213-214.213 118.117 0 214.213 96.095 214.213 214.213z" fill="#5c586f"/><g><path d="m471.904 206.952c3.138 7.067 4.895 14.882 4.895 23.112 0 31.494-25.531 57.024-57.024 57.024-19.98 0-37.549-10.284-47.732-25.839l28.733-36.067z" fill="#c5836a"/></g><path d="m109.6 217.926c0-96.391 63.778-178.572 153.293-210.303-2.29-.073-4.586-.123-6.893-.123-118.118 0-214.213 96.096-214.213 214.213h67.864c-.023-1.261-.051-2.521-.051-3.787z" fill="#4f4c5f"/><path d="m332.221 504.5h-152.442l-55.081-48.804c13.451-56.689 47.475-76.768 47.475-76.768h167.656s34.024 20.078 47.475 76.768z" fill="#f7eb7f"/><circle cx="256" cy="399.852" fill="#d89b80" r="42.002"/><path d="m384.46 98.318c-5.948-6.189-16.03-5.098-20.624 2.154-7.934 12.526-21.911 20.843-37.837 20.843-10.132 0-19.474-3.369-26.974-9.046-4.769-3.609-11.282-3.609-16.051 0-7.5 5.676-16.842 9.046-26.974 9.046s-19.474-3.369-26.974-9.046c-4.769-3.609-11.282-3.609-16.051 0-7.5 5.676-16.842 9.046-26.974 9.046-15.926 0-29.903-8.317-37.837-20.843-4.593-7.252-14.676-8.343-20.624-2.154-30.763 32.011-49.678 75.49-49.678 123.395 0 68.079 38.188 127.231 94.31 157.215h167.656c56.122-29.983 94.31-89.136 94.31-157.215 0-47.905-18.915-91.384-49.678-123.395z" fill="#d89b80"/><path d="m472.788 186.688c-5.176-10.141-17.592-14.166-27.732-8.99l-118.552 60.507 18.742 36.722 118.552-60.506c10.141-5.177 14.166-17.593 8.99-27.733z" fill="#d8d8d8"/><path d="m157.386 474.729c0-38.12 18.456-72.343 47.733-95.8h-32.947s-34.024 20.078-47.475 76.768l33.15 29.372c-.302-3.412-.461-6.86-.461-10.34z" fill="#fccb88"/><path d="m109.6 217.926c0-44.139 13.381-85.293 36.473-119.995-5.099-4.864-13.371-4.984-18.534.388-30.763 32.011-49.678 75.49-49.678 123.395 0 .667.028 1.329.035 1.994l-37.8-16.756c-3.138 7.067-4.895 14.882-4.895 23.112 0 30.827 24.464 55.924 55.034 56.974 15.572 39.479 44.828 72.064 81.937 91.89h8.909c-44.078-40.767-71.481-97.829-71.481-161.002z" fill="#c5836a"/><path d="m39.212 186.688c5.176-10.141 17.592-14.166 27.732-8.99l118.552 60.507-18.742 36.722-118.552-60.507c-10.141-5.176-14.166-17.592-8.99-27.732z" fill="#d8d8d8"/><path d="m377.439 286.566c-9.338 71.222-36.621 91.641-37.611 92.362-.021.01-.031.021-.031.021-24.974 13.337-53.504 20.903-83.797 20.903s-58.823-7.565-83.797-20.903c0 0-.01-.01-.031-.021-.989-.721-28.272-21.14-37.611-92.362-2.278-17.398 3.803-34.879 16.347-47.155 20.645-20.202 57.349-47.464 105.092-47.464s84.446 27.262 105.092 47.464c12.543 12.275 18.625 29.756 16.347 47.155z" fill="#5c586f"/><path d="m179.779 455.696v48.804h-60.462c0-18.656 2.061-34.838 5.38-48.804z" fill="#d89b80"/><path d="m392.683 504.5h-60.462v-48.804h55.081c3.32 13.966 5.381 30.148 5.381 48.804z" fill="#d89b80"/><path d="m109.6 217.926c0-6.083.263-12.107.761-18.068l-43.417-22.16c-10.14-5.176-22.557-1.151-27.732 8.99-5.175 10.141-1.151 22.557 8.99 27.732l63.324 32.319c-1.269-9.434-1.926-19.051-1.926-28.813z" fill="#cacac8"/><path d="m157.386 474.729c0-6.468.536-12.822 1.562-19.033h-34.25c-3.319 13.966-5.38 30.148-5.38 48.804h41.931c-2.521-9.554-3.863-19.521-3.863-29.771z" fill="#c5836a"/></g><g><path d="m203.73 303.399h104.529c4.142 0 7.5-3.358 7.5-7.5s-3.358-7.5-7.5-7.5h-104.529c-4.142 0-7.5 3.358-7.5 7.5s3.358 7.5 7.5 7.5z"/><path d="m206.456 265.614c27.944-10.904 71.094-10.919 99.077 0 3.868 1.509 8.211-.411 9.713-4.261 1.506-3.858-.402-8.207-4.26-9.713-31.432-12.265-78.495-12.287-109.983 0-3.858 1.506-5.766 5.854-4.26 9.713 1.505 3.859 5.853 5.768 9.713 4.261z"/><path d="m305.533 326.184c-27.944 10.904-71.094 10.919-99.077 0-3.86-1.506-8.207.402-9.713 4.261-1.506 3.858.402 8.207 4.26 9.713 31.432 12.265 78.496 12.286 109.983 0 3.858-1.506 5.766-5.854 4.26-9.713-1.505-3.859-5.853-5.768-9.713-4.261z"/><path d="m164.618 197.468c4.142 0 7.5-3.357 7.5-7.5v-17.558c0-4.142-3.358-7.5-7.5-7.5s-7.5 3.358-7.5 7.5v17.559c0 4.142 3.358 7.499 7.5 7.499z"/><path d="m347.371 197.468c4.142 0 7.5-3.357 7.5-7.5v-17.558c0-4.142-3.358-7.5-7.5-7.5s-7.5 3.358-7.5 7.5v17.559c0 4.142 3.358 7.499 7.5 7.499z"/><path d="m85.074 294.163c15.442 36.464 41.747 66.004 73.643 85.674-26.463 23.578-46.906 65.55-46.906 124.664 0 4.142 3.358 7.5 7.5 7.5h273.366c4.142 0 7.5-3.358 7.5-7.5 0-59.206-20.63-101.252-46.906-124.664 31.868-19.652 58.188-49.18 73.643-85.674 41.683-4.585 68.118-47.418 53.241-86.817 5.106-11.672 1.701-24.867-7.493-32.7-10.479-48.238-37.231-92.125-75.574-123.836-39.618-32.766-89.727-50.81-141.094-50.81-24.84 0-49.257 4.106-72.572 12.205-3.913 1.359-5.983 5.633-4.624 9.546s5.634 5.982 9.546 4.624c21.729-7.548 44.489-11.375 67.65-11.375 47.886 0 94.599 16.823 131.534 47.369 33.13 27.399 56.987 64.528 68.085 105.597-4.96-.218-9.782.912-13.971 3.051h-.001c-.104.053-6.565 3.35-6.169 3.148-7.858-29.743-23.5-58.04-45.609-81.044-9.284-9.665-25.145-8.066-32.367 3.337-11.834 18.684-36.797 22.81-53.949 9.831-7.39-5.594-17.713-5.594-25.103 0-13.201 9.99-31.55 10.1-44.897 0-7.39-5.594-17.713-5.594-25.103 0-17.279 13.077-42.213 8.701-53.949-9.83-7.217-11.396-23.071-13.013-32.368-3.338-22.584 23.499-37.946 52.018-45.609 81.045-7.413-3.758-11.69-6.572-20.139-6.201 15.147-55.951 53.074-102.569 103.365-129.147 3.662-1.936 5.062-6.473 3.126-10.135-1.935-3.662-6.474-5.063-10.135-3.126-28.612 15.121-54.083 36.793-73.657 62.672-19.288 25.5-32.979 55.321-39.739 86.407-9.17 7.803-12.656 20.975-7.513 32.732-14.767 39.155 11.316 82.182 53.248 86.795zm-27.021-111.197c4.199.154-.623-1.661 92.935 46.049-2.171 1.981-4.678 4.383-5.33 5.035-4.748 4.649-8.775 10.183-11.703 15.718-89.524-45.69-83.35-42.313-85.264-44.073-8.946-8.307-2.728-23.162 9.362-22.729zm294.861 59.005c6.123 5.745 11.214 11.549 14.642 21.157 9.519 26.676-11.802 92.699-31.836 109.484-49.635 26.257-109.746 26.302-159.45.001-2.377-1.989-17.422-15.777-27.655-53.303-2.42-8.847-6.94-30.328-7.019-39.457-.124-13.005 5.175-25.958 14.635-35.162 59.016-57.676 133.898-61.742 196.683-2.72zm-62.688 162.209c-2.136 16.989-16.673 30.173-34.232 30.173s-32.096-13.184-34.232-30.173c21.76 4.067 45.319 4.333 68.464 0zm-211.221-126.367c-25.051-6.828-40.398-31.887-35.38-57.341.875.5 1.213.647 27.177 13.906.975 14.375 3.726 29.299 8.203 43.435zm7.626-35.356c3.629 1.852 39.866 20.347 41.908 21.389-6.034 23.838 5.08 63.884 14.855 86.068-32.28-28.381-51.872-66.933-56.763-107.457zm44.092 220.739h41.55v33.804h-45.344c.376-11.841 1.647-23.165 3.794-33.804zm208.993 33.804v-33.804h41.55c2.147 10.639 3.418 21.963 3.794 33.804zm37.813-48.804c-7.778 0-32.199 0-45.314 0-4.142 0-7.5 3.358-7.5 7.5v41.304h-137.442v-41.304c0-4.142-3.358-7.5-7.5-7.5h-45.309c10.893-36.294 30.594-54.512 38.302-60.508 10.266 5.141 21.736 9.634 33.746 12.943.42 26.936 22.448 48.722 49.482 48.722s49.062-21.786 49.482-48.722c11.894-3.276 23.493-7.794 33.775-12.958 7.718 5.934 27.344 23.967 38.278 60.523zm-8.935-98.282c11.885-26.949 14.675-53.483 16.276-62.375 1.023-8.041.493-16.133-1.421-23.693 2.041-1.041 38.263-19.529 41.908-21.389-4.845 40.142-24.206 78.834-56.763 107.457zm64.389-72.101c4.543-14.344 7.244-29.288 8.203-43.435 27.52-14.058 26.093-13.286 27.177-13.906 5.023 25.477-10.349 50.519-35.38 57.341zm-291.162-173.328c16.554 26.136 51.554 32.017 75.674 13.764 2.093-1.584 4.905-1.584 6.999 0 18.573 14.055 44.303 14.15 63.001 0 2.093-1.584 4.905-1.584 6.999 0 24.173 18.293 59.149 12.323 75.673-13.765 1.964-3.102 6.267-3.689 8.88-.97 21.451 22.315 35.978 49.806 42.72 77.646l-18.171 9.274c-6.891 3.517-4.541 13.981 3.224 14.179 3.326.086 3.119-.917 26.96-12.743 12.551-6.385 19.667-12.251 27.959-6.688 8.435 5.718 7.381 18.1-1.355 22.556-6.202 3.165-48.097 24.548-82.35 42.029-4.941-9.329-9.771-13.945-17.034-20.753 25.203-12.921 24.563-12.391 25.66-13.267 2.726-2.177 3.642-6.039 1.994-9.267-1.883-3.689-6.4-5.153-10.09-3.271l-29.996 15.31c-58.636-45.584-126.931-45.257-185.148 0-13.49-6.885-53.707-27.411-73.199-37.359 7.024-28.707 21.582-55.656 42.72-77.646 2.587-2.69 6.897-2.16 8.88.971z"/></g></g></svg>