<svg id="Capa_1" enable-background="new 0 0 512 512" height="512" viewBox="0 0 512 512" width="512" xmlns="http://www.w3.org/2000/svg"><g><g><path d="m447.18 347.205c-25.33 6.35-64.6 12.18-123.39 12.18h-67.79v-105.11h199.37s4.29 24.4 14.21 47.53c8.07 18.83-2.531 40.41-22.4 45.4z" fill="#fd9c8c"/><path d="m255.999 254.275v105.11h-67.79c-58.79 0-98.06-5.83-123.39-12.18-19.87-4.99-30.47-26.57-22.4-45.4 9.93-23.13 14.22-47.53 14.22-47.53z" fill="#f98778"/><path d="m332.221 504.5h-152.442l-55.081-48.804c13.451-56.689 47.475-76.768 47.475-76.768h167.656s34.024 20.078 47.475 76.768z" fill="#fd748d"/><circle cx="256" cy="399.852" fill="#fdd1ba" r="42.002"/><path d="m41.787 221.713c0-118.118 96.095-214.213 214.213-214.213 118.117 0 214.213 96.095 214.213 214.213z" fill="#fd9c8c"/><g><path d="m471.904 206.952c3.138 7.067 4.895 14.882 4.895 23.112 0 31.494-25.531 57.024-57.024 57.024-19.98 0-37.549-10.284-47.732-25.839l28.733-36.067z" fill="#fdbc9a"/></g><path d="m106.317 216.991c0-101.348 72.786-186.245 170.553-208.473-6.869-.666-13.829-1.018-20.87-1.018-118.118 0-214.213 96.095-214.213 214.213h64.592c-.035-1.57-.062-3.143-.062-4.722z" fill="#f98778"/><path d="m418.814 149.35c-3.866-8.683-11.299-15.303-20.413-18-44.19-13.078-70.076-34.376-82.93-47.924-5.834-6.148-15.435-6.441-21.78-.823-47.803 42.331-135.249 50.462-173.934 51.94-12.664.484-23.99 8.245-28.776 19.98-8.455 20.734-13.118 43.416-13.118 67.189 0 68.079 38.188 127.231 94.31 157.215h167.656c56.122-29.983 94.31-89.136 94.31-157.215-.001-25.766-5.479-50.25-15.325-72.362z" fill="#fdd1ba"/><path d="m472.788 186.688c-5.176-10.141-17.592-14.166-27.732-8.99l-118.552 60.507 18.742 36.722 118.552-60.506c10.141-5.177 14.166-17.593 8.99-27.733z" fill="#bfe7f8"/><path d="m106.317 216.991c0-29.279 6.082-57.181 17.079-82.601-1.255.058-2.471.109-3.64.153-12.664.484-23.99 8.245-28.776 19.98-8.455 20.734-13.118 43.416-13.118 67.189 0 .667.028 1.328.035 1.994l-37.8-16.756c-3.138 7.066-4.895 14.882-4.895 23.112 0 30.826 24.464 55.923 55.034 56.974 15.572 39.479 44.827 72.064 81.937 91.89h10.661c-46.87-39.266-76.517-97.252-76.517-161.935z" fill="#fdbc9a"/><path d="m39.212 186.688c5.176-10.141 17.592-14.166 27.732-8.99l118.552 60.507-18.742 36.722-118.552-60.507c-10.141-5.176-14.166-17.592-8.99-27.732z" fill="#bfe7f8"/><path d="m195.136 378.928h-22.964s-34.024 20.078-47.475 76.768l27.512 24.377c1.244-38.738 17.237-74.018 42.927-101.145z" fill="#fd5f7e"/><path d="m377.439 286.566c-9.338 71.222-36.621 91.641-37.611 92.362-.021.01-.031.021-.031.021-24.974 13.337-53.504 20.903-83.797 20.903s-58.823-7.565-83.797-20.903c0 0-.01-.01-.031-.021-.989-.722-28.272-21.14-37.611-92.362-2.278-17.398 3.803-34.879 16.347-47.155 20.645-20.202 57.349-47.464 105.092-47.464s84.446 27.262 105.092 47.464c12.543 12.275 18.625 29.756 16.347 47.155z" fill="#78c9ea"/><path d="m179.779 455.696v48.804h-60.462c0-18.656 2.061-34.838 5.38-48.804z" fill="#fdd1ba"/><path d="m392.683 504.5h-60.462v-48.804h55.081c3.32 13.966 5.381 30.148 5.381 48.804z" fill="#fdd1ba"/><path d="m106.317 216.991c0-6.323.3-12.578.855-18.762l-40.228-20.532c-10.14-5.176-22.557-1.151-27.732 8.99-5.175 10.141-1.151 22.557 8.99 27.732l60.007 30.626c-1.243-9.181-1.892-18.544-1.892-28.054z" fill="#8ed1ef"/><path d="m152.123 484.951c0-9.993.99-19.769 2.868-29.255h-30.294c-3.319 13.966-5.38 30.148-5.38 48.804h34.082c-.836-6.408-1.276-12.931-1.276-19.549z" fill="#fdbc9a"/></g><g><path d="m308.269 288.397h-104.53c-4.142 0-7.5 3.358-7.5 7.5s3.358 7.5 7.5 7.5h104.53c4.142 0 7.5-3.358 7.5-7.5s-3.358-7.5-7.5-7.5z"/><path d="m206.465 265.612c27.942-10.903 71.094-10.92 99.079 0 3.866 1.508 8.21-.41 9.713-4.261 1.506-3.859-.402-8.208-4.261-9.713-31.433-12.265-78.499-12.285-109.983 0-3.859 1.506-5.767 5.855-4.261 9.713 1.506 3.859 5.856 5.766 9.713 4.261z"/><path d="m305.543 326.182c-27.943 10.903-71.093 10.92-99.078 0-3.86-1.506-8.207.402-9.713 4.261s.402 8.208 4.26 9.713c31.431 12.264 78.495 12.287 109.983 0 3.859-1.506 5.767-5.855 4.261-9.713-1.505-3.858-5.854-5.767-9.713-4.261z"/><path d="m157.126 172.406v17.559c0 4.142 3.358 7.5 7.5 7.5s7.5-3.358 7.5-7.5v-17.559c0-4.142-3.358-7.5-7.5-7.5s-7.5 3.359-7.5 7.5z"/><path d="m354.881 189.966v-17.559c0-4.142-3.358-7.5-7.5-7.5s-7.5 3.358-7.5 7.5v17.559c0 4.142 3.358 7.5 7.5 7.5s7.5-3.358 7.5-7.5z"/><path d="m480.166 207.343c5.1-11.656 1.713-24.856-7.491-32.699-9.844-45.275-34.314-87.193-69.14-118.297-3.089-2.759-7.831-2.492-10.59.598-2.759 3.089-2.492 7.831.598 10.59 29.936 26.737 51.671 62.023 62.077 100.428-10.453-.458-16.066 4.639-20.14 6.202-2.715-9.824-5.474-18.112-9.756-27.746-4.636-10.524-13.672-18.855-25.189-22.264-41.454-12.268-66.178-31.729-79.619-45.895-8.611-9.075-22.753-9.635-32.193-1.275-21.667 19.189-51.869 30.78-80.016 37.886-4.016 1.015-6.449 5.093-5.435 9.108 1.014 4.017 5.094 6.448 9.108 5.436 36.914-9.324 65.945-23.186 86.287-41.2 3.356-2.973 8.349-2.811 11.368.37 14.704 15.496 41.602 36.743 86.243 49.954 6.967 2.062 12.686 7.113 15.69 13.859 3.897 8.751 7.316 18.568 9.802 28.764-15.067 7.69-60.058 30.652-73.191 37.355-59.003-45.869-127.297-44.974-185.149 0-21.927-11.191-51.181-26.121-73.191-37.355 2.018-8.304 4.676-16.421 7.689-23.81 3.642-8.931 12.324-14.943 22.117-15.318 20.628-.789 42.624-2.951 63.493-6.544 4.083-.703 6.822-4.582 6.119-8.664-.677-3.936-4.303-6.615-8.228-6.171-2.094.239-27.007 5.057-61.956 6.39-15.665.599-29.574 10.272-35.435 24.643-2.792 6.848-5.476 14.783-7.508 22.476-7.42-3.761-11.696-6.574-20.146-6.202 11.098-41.069 34.955-78.199 68.085-105.598 69.355-57.358 169.359-63.864 245.996-12.702 3.444 2.3 8.102 1.372 10.402-2.073s1.372-8.103-2.074-10.402c-82.398-55.009-189.664-47.762-263.885 13.619-38.343 31.711-65.095 75.599-75.574 123.837-9.177 7.817-12.607 21.01-7.493 32.7-8.348 22.109-4.052 47.685 12.568 66.009-2.622 9.299-5.602 17.86-8.877 25.498-9.889 23.061 3.123 49.521 27.466 55.625 21.15 5.303 46.517 8.95 75.409 10.856 6.435 5.276 13.221 10.128 20.318 14.505-11.894 10.598-31.674 33.46-41.324 74.128-.001.003-.001.007-.002.01-3.703 15.588-5.581 32.587-5.581 50.526 0 4.142 3.358 7.5 7.5 7.5h273.368c4.142 0 7.5-3.358 7.5-7.5 0-58.956-20.343-100.996-46.907-124.664 7.097-4.377 13.883-9.228 20.318-14.505 28.893-1.906 54.26-5.553 75.409-10.856 11.571-2.902 21.244-10.696 26.54-21.384 5.318-10.733 5.656-23.214.927-34.242-3.275-7.637-6.255-16.197-8.877-25.497 10.781-11.886 16.706-27.168 16.706-43.29.002-7.832-1.393-15.456-4.136-22.719zm-111.536 142.516c6.54-14.848 10.964-31.202 13.89-47.226 2.66-14.581 4.397-25.132.94-38.789l41.909-21.389c-4.698 40.261-24.778 79.257-56.739 107.404zm-22.125 9.59c-2.703 4.236-6.923 9.938-10.776 13.162-49.621 26.258-109.768 26.294-159.45 0-2.374-1.987-17.419-15.772-27.653-53.295-2.968-10.836-5.154-22.516-6.626-33.727-1.916-14.621 3.05-29.861 14.213-40.875 62.082-60.7 138.356-59.903 199.637.054 10.412 10.194 16.178 25.389 14.156 40.82-3.234 24.669-10.1 52.907-23.501 73.861zm-56.269 44.73c-2.135 16.99-16.673 30.174-34.232 30.174s-32.097-13.184-34.232-30.174c21.866 4.083 45.344 4.32 68.464 0zm-203.597-161.724 41.909 21.389c-6.011 23.761 5.034 63.779 14.831 86.016-32.325-28.457-52.068-67.365-56.74-107.405zm-27.903-59.452c3.637.316-.986-1.581 92.26 46.01-4.321 3.998-4.15 3.903-5.331 5.035-4.692 4.591-8.702 10.047-11.703 15.718-89.084-45.466-84.668-42.331-87.517-46.808-5.719-9.259 1.632-20.909 12.291-19.955zm365.538 13.722c25.525-13.001 25.268-13.256 28.533-13.674 5.441-.672 10.773 2.081 13.306 7.043 3.321 6.506.609 14.41-5.717 17.642-10.086 5.148-72.394 36.948-82.351 42.03-5.068-9.586-10.082-14.227-17.034-20.753zm-380.641 23.745c1.098.628 1.275.672 27.177 13.906.948 14.039 3.638 29.006 8.191 43.395-25.243-6.994-40.368-31.938-35.368-57.301zm23.014 119.455c-15.364-3.853-23.589-20.566-17.328-35.165 2.732-6.372 5.266-13.311 7.569-20.725 8.454 5.55 18.07 9.017 28.169 10.139 8.49 19.988 20.691 38.692 35.705 54.67-20.33-2.008-38.466-4.995-54.115-8.919zm64.085 123.27h41.55v33.805h-45.344c.375-11.841 1.646-23.165 3.794-33.805zm208.994 33.805v-33.804h41.55c2.147 10.639 3.418 21.963 3.794 33.804zm37.809-48.805c-7.778 0-32.195 0-45.309 0-4.142 0-7.5 3.358-7.5 7.5v41.305h-137.444v-41.305c0-4.142-3.358-7.5-7.5-7.5h-45.309c10.893-36.294 30.594-54.512 38.302-60.508 10.227 5.129 21.684 9.617 33.747 12.943.42 26.936 22.448 48.723 49.483 48.723 27.034 0 49.063-21.787 49.483-48.723 11.721-3.228 23.205-7.664 33.745-12.942 7.729 6.016 27.416 24.234 38.302 60.507zm67.825-108.27c-15.649 3.924-33.785 6.911-54.115 8.919 15.015-15.981 27.189-34.617 35.705-54.67 10.011-1.112 19.642-4.54 28.169-10.139 2.304 7.414 4.837 14.354 7.57 20.725 6.269 14.62-1.984 31.318-17.329 35.165zm-12.354-62.154c4.478-14.151 7.226-29.098 8.191-43.395 27.295-13.942 26.148-13.317 27.177-13.906 5.102 25.878-10.734 50.475-35.368 57.301z"/></g></g></svg>