<svg id="Capa_1" enable-background="new 0 0 512 512" height="512" viewBox="0 0 512 512" width="512" xmlns="http://www.w3.org/2000/svg"><g><g><path d="m321.877 56.118h-264.516c-27.537 0-49.861 22.324-49.861 49.862v348.26c0 27.538 22.324 49.861 49.861 49.861h264.515c27.538 0 49.861-22.324 49.861-49.861v-348.26c.001-27.538-22.322-49.862-49.86-49.862z" fill="#c1e9fa"/><path d="m325.276 335.645c-16.933-20.664-16.933-50.406 0-71.07 4.456-5.439 1.784-13.664-5.018-15.445l-.002-.001c-25.837-6.763-43.316-30.812-41.775-57.475l.001-.023c.406-7.014-6.584-12.095-13.13-9.545l-.063.025c-24.86 9.683-53.099.506-67.518-21.94l-.036-.055c-3.796-5.91-12.434-5.91-16.231 0l-.036.056c-14.42 22.446-42.659 31.622-67.518 21.939l-.063-.024c-6.547-2.55-13.536 2.531-13.13 9.545l.001.023c1.542 26.662-15.938 50.711-41.774 57.474l-.003.001c-6.802 1.781-9.475 10.006-5.018 15.445 16.933 20.664 16.933 50.406 0 71.07-4.456 5.439-1.784 13.664 5.018 15.445l.002.001c25.837 6.763 43.316 30.812 41.775 57.475l-.001.023c-.406 7.014 6.584 12.095 13.13 9.545l.063-.025c24.86-9.682 53.099-.506 67.518 21.94l.036.055c3.796 5.91 12.434 5.91 16.231 0l.036-.056c14.42-22.446 42.659-31.622 67.519-21.939l.063.024c6.547 2.55 13.536-2.531 13.13-9.545l-.001-.023c-1.542-26.662 15.938-50.711 41.774-57.474l.003-.001c6.801-1.781 9.473-10.007 5.017-15.445z" fill="#ff748f"/><circle cx="189.619" cy="300.11" fill="#f9ed80" r="88.141"/><path d="m120.478 273.382c0-11.985 1.949-23.513 5.54-34.291-15.198 15.837-24.54 37.336-24.54 61.019 0 48.679 39.462 88.141 88.141 88.141 11.87 0 23.19-2.352 33.526-6.607-57.203-2.988-102.667-50.314-102.667-108.262z" fill="#fccb88"/><path d="m290.536 149.684-51.265 18.124-11.534 51.47 16.647 48.737 48.734 16.643 51.469-11.533 15.331-54.059z" fill="#ffdcce"/><path d="m490.021 57.784-35.407-35.407c-19.305-19.305-50.605-19.305-69.911 0l-145.427 145.428 28.032 6.568c11.498 2.694 19.628 12.95 19.628 24.759 3.062 13.066 13.264 23.268 26.329 26.329 13.066 3.062 23.268 13.264 26.329 26.329 2.499 10.665 4.998 21.331 4.998 21.331l145.428-145.428c19.306-19.304 19.306-50.604.001-69.909z" fill="#fccb88"/><path d="m227.737 219.278-7.932 35.409c-2.37 10.608.847 21.686 8.536 29.375 7.861 7.861 19.017 10.844 29.368 8.529l35.409-7.932z" fill="#fccb88"/><path d="m28.607 259.201c0-78.34 26.65-149.655 70.275-203.083h-41.52c-27.538 0-49.862 22.324-49.862 49.862v348.26c0 27.538 22.324 49.861 49.861 49.861h83.651c-68.012-54.339-112.405-143.774-112.405-244.9z" fill="#90d3f1"/></g><g><path d="m339.078 166.099c-2.929-2.929-7.678-2.929-10.606 0-2.929 2.929-2.929 7.678 0 10.606l9.042 9.042c2.929 2.929 7.677 2.929 10.606 0s2.929-7.678 0-10.606z"/><path d="m433.19 71.988c-2.929-2.93-7.678-2.929-10.606 0-2.929 2.929-2.929 7.677 0 10.606l9.042 9.042c2.928 2.929 7.677 2.929 10.606 0s2.929-7.677 0-10.606z"/><path d="m401.497 113.231c-4.132.284-7.252 3.864-6.969 7.996.655 9.544-7.236 17.468-16.816 16.816-4.122-.292-7.712 2.836-7.996 6.969-.284 4.132 2.836 7.712 6.969 7.996 18.637 1.273 34.087-14.172 32.808-32.808-.284-4.132-3.869-7.241-7.996-6.969z"/><path d="m141.592 312.857c-4.142 0-7.5 3.358-7.5 7.5v9.228c0 4.142 3.358 7.5 7.5 7.5s7.5-3.358 7.5-7.5v-9.228c0-4.142-3.358-7.5-7.5-7.5z"/><path d="m237.637 312.857c-4.142 0-7.5 3.358-7.5 7.5v9.228c0 4.142 3.358 7.5 7.5 7.5s7.5-3.358 7.5-7.5v-9.228c-.001-4.142-3.358-7.5-7.5-7.5z"/><path d="m207.202 323.656c-3.122-2.721-7.86-2.396-10.581.727-3.705 4.252-10.298 4.264-14.013 0-2.721-3.123-7.459-3.448-10.581-.727-3.123 2.721-3.448 7.459-.727 10.581 9.691 11.121 26.949 11.109 36.63 0 2.721-3.122 2.395-7.86-.728-10.581z"/><path d="m57.36 511.601h264.509c31.628 0 57.36-25.731 57.36-57.36v-44.038c0-4.142-3.358-7.5-7.5-7.5s-7.5 3.358-7.5 7.5v44.038c0 23.357-19.003 42.36-42.36 42.36h-264.509c-23.357 0-42.36-19.003-42.36-42.36v-265.39c0-4.142-3.358-7.5-7.5-7.5s-7.5 3.358-7.5 7.5v265.39c0 31.629 25.732 57.36 57.36 57.36z"/><path d="m495.312 52.493-35.406-35.406c-22.25-22.25-58.263-22.252-80.515 0l-35.83 35.83c-6.86-2.8-14.255-4.287-21.692-4.287h-264.509c-31.628 0-57.36 25.732-57.36 57.36v52.862c0 4.142 3.358 7.5 7.5 7.5s7.5-3.358 7.5-7.5v-52.862c0-23.357 19.003-42.36 42.36-42.36h264.509c3.361 0 6.648.382 9.837 1.142-103.431 103.442-97.957 97.911-98.405 98.501-1.67 2.213-1.405 3.916-3.552 12.708-10.512-3.473-19.645-10.469-25.71-19.91-6.716-10.454-22.06-10.57-28.886.056-12.441 19.366-37.04 27.358-58.548 18.98-11.628-4.528-24.061 4.485-23.338 16.99 1.322 22.865-13.744 43.93-36.252 49.802-12.055 3.205-16.752 17.8-8.856 27.436 14.615 17.835 14.615 43.726 0 61.562-7.927 9.675-3.155 24.338 8.965 27.465 22.276 5.851 37.473 26.777 36.142 49.797-.72 12.455 11.673 21.509 23.403 16.941 21.446-8.353 46.044-.362 58.52 19.06 6.79 10.57 22.152 10.426 28.886-.056 12.44-19.366 37.037-27.357 58.547-18.98 11.606 4.521 24.063-4.462 23.338-16.989-1.322-22.866 13.745-43.931 36.252-49.802 12.054-3.204 16.753-17.799 8.856-27.436-10.365-12.648-13.601-29.603-8.838-45.071 25.602-5.782 25.531-5.266 27.657-7.392l14.341-14.341v116.114c0 4.142 3.358 7.5 7.5 7.5s7.5-3.358 7.5-7.5v-131.116l116.083-116.083c22.25-22.25 22.253-58.263.001-80.515zm-199.816 223.95-59.543-59.543c1.987-8.867 7.047-31.454 8.975-40.057 28.317 6.635 18.544 4.345 20.663 4.842 8.148 1.909 13.839 9.087 13.839 17.456 0 .576.066 1.15.198 1.711 3.738 15.951 15.969 28.182 31.92 31.92 10.363 2.428 18.309 10.374 20.737 20.738l3.271 13.957c-4.438.994-36.038 8.075-40.06 8.976zm-105.882 104.311c-44.465 0-80.639-36.174-80.639-80.639 0-56.885 57.434-95.592 109.809-75.203l-6.305 28.146c-3.159 14.143 1.605 28.739 12.739 38.327 14.86 12.797 27.143 9.933 44.991 6.095 1.49 45.49-35.117 83.274-80.595 83.274zm65.092-95.218c-16.947 2.801-31.322-12.487-27.588-29.204l4.952-22.102 46.096 46.096c-24.15 5.41-22.37 5.03-23.46 5.21zm51.258 3.934c-3.04 17.918 1.719 36.553 13.503 50.933.901 1.1.586 2.942-1.171 3.451-29.155 7.659-49.049 35.048-47.307 65.171.088 1.526-1.404 2.716-2.983 2.098-28.073-10.934-60.266-.472-76.585 24.929-.823 1.282-2.727 1.376-3.646-.055-16.836-26.207-49.839-35.558-76.612-24.849-1.447.561-3.012-.534-2.919-2.146 1.742-30.118-18.176-57.522-47.362-65.161-.007-.002-.015-.004-.022-.006-1.498-.406-2.088-2.22-1.095-3.431 19.129-23.345 19.128-57.232 0-80.576-.916-1.118-.564-2.942 1.176-3.452 29.153-7.661 49.044-35.049 47.302-65.169-.088-1.523 1.399-2.716 2.984-2.099 28.073 10.934 60.266.472 76.585-24.93.824-1.284 2.728-1.372 3.646.056 8.169 12.715 20.656 22.075 35 26.447-.479 2.137-3.899 17.4-4.36 19.461-61.834-22.399-128.119 23.5-128.119 89.973 0 52.735 42.903 95.638 95.639 95.638 54.88 0 98.884-46.409 95.446-101.6.736-.165 18.038-4.042 20.9-4.683zm42.848-31.175-1.923-8.207c-3.738-15.951-15.969-28.182-31.92-31.92-10.069-2.359-17.916-9.951-20.554-19.998-.426-14.859-10.665-27.636-25.403-31.09l-14.909-3.494 135.894-135.893c16.387-16.387 42.913-16.39 59.303 0l35.406 35.406c16.387 16.387 16.39 42.913 0 59.303z"/></g></g></svg>