<svg id="Capa_1" enable-background="new 0 0 512 512" height="512" viewBox="0 0 512 512" width="512" xmlns="http://www.w3.org/2000/svg"><g><g><path d="m385.943 284.316-23.543 27.237 23.543 27.893h20.24c15.214 0 27.571-12.331 27.571-27.571 0-15.22-12.34-27.561-27.571-27.561h-20.24z" fill="#ffdcce"/><path d="m296.907 365.772-40.907 17.407-35.872-17.407-41.422 17.407c4.708 12.532 12.392 23.611 22.169 32.396v26.256l27.563 31.335 27.562-31.335 27.563 31.335 27.563-31.335v-26.256c1.112-1.002 2.194-2.014 3.246-3.065 8.234-8.244 14.746-18.222 18.923-29.331z" fill="#78cbec"/><path d="m204.019 372.544-25.313 10.637c4.708 12.531 12.391 23.61 22.168 32.396v26.256l27.563 31.334.964-1.096c-15.084-28.276-24.322-62.5-25.382-99.527z" fill="#34b5e1"/><path d="m311.126 441.831v35.101c0 7.613-3.085 14.505-8.074 19.494s-11.871 8.074-19.484 8.074c-15.227 0-27.568-12.341-27.568-27.568v-35.101z" fill="#ffcabd"/><path d="m256 441.831v35.101c0 7.613-3.085 14.505-8.074 19.494s-11.881 8.074-19.494 8.074c-15.217 0-27.558-12.341-27.558-27.568v-35.101h27.127z" fill="#ffdcce"/><path d="m216.32 441.832h-15.446v35.101c0 15.226 12.341 27.567 27.557 27.567 6.76 0 12.948-2.437 17.744-6.475-12.417-15.953-22.598-34.991-29.855-56.193z" fill="#ffcabd"/><path d="m385.943 284.316h-47.389v-44.387h-165.108v44.387h-47.389v55.131h47.389v14.681c0 10.228 1.863 20.015 5.259 29.051h154.59c3.396-9.036 5.259-18.823 5.259-29.051v-14.681h47.389z" fill="#ff748f"/><path d="m126.057 284.316 23.543 27.238-23.543 27.893h-20.24c-15.214 0-27.571-12.331-27.571-27.571 0-15.22 12.34-27.561 27.571-27.561h20.24z" fill="#ffdcce"/><circle cx="256" cy="312.037" fill="#ffcabd" r="38.767"/><circle cx="408.274" cy="170.301" fill="#ffcabd" r="39.101"/><path d="m121.037 89.202c25.401-48.471 76.142-81.702 134.963-81.702 58.741 0 109.552 33.191 134.963 81.702l-21.79 32.784h-226.346z" fill="#ff9e8e"/><path d="m225.008 10.665c-45.336 9.359-83.16 38.826-103.97 78.537l21.79 32.784h5.945c9.688-46.168 37.682-85.802 76.235-111.321z" fill="#fb8978"/><path d="m213.113 239.934h-39.666v44.386l-.001-.004h-47.389v55.131h47.389l.001-.004v14.688c0 10.228 1.863 20.015 5.259 29.05h25.843c-.42-5.855-.643-11.787-.643-17.789 0-57.532 1.148-97.689 9.207-125.458z" fill="#fd5f7e"/><path d="m408.273 159.773c0 83.752-67.821 152.263-152.273 152.263-84.312 0-152.273-68.361-152.273-152.263 0-25.421 6.25-49.451 17.31-70.571l1.72 1.26c5.67 4.15 12.35 6.22 19.04 6.22 6.68 0 13.36-2.07 19.03-6.22s12.35-6.22 19.03-6.22c6.69 0 13.37 2.07 19.04 6.22 5.66 4.15 12.35 6.22 19.03 6.22 6.69 0 13.37-2.07 19.04-6.22s12.35-6.22 19.03-6.22 13.36 2.07 19.03 6.22 12.35 6.22 19.04 6.22c6.68 0 13.37-2.07 19.03-6.22 5.67-4.15 12.35-6.22 19.04-6.22 6.68 0 13.36 2.07 19.03 6.22 11.34 8.29 26.731 8.29 38.071 0l1.72-1.26c11.065 21.11 17.315 45.12 17.315 70.571z" fill="#ffdcce"/><path d="m233.391 310.365c-52.913-31.042-88.334-87.7-88.334-152.459 0-23.136 4.524-45.238 12.748-65.508-4.957 2.843-10.478 4.284-16.008 4.284-6.69 0-13.37-2.07-19.04-6.22l-1.72-1.26c-6.83 13.042-11.818 27.196-14.641 42.099-.883-.06-1.772-.101-2.671-.101-21.595 0-39.101 17.506-39.101 39.101s17.506 39.101 39.101 39.101c2.744 0 5.421-.285 8.005-.823 17.995 53.191 64.585 93.303 121.661 101.786z" fill="#ffcabd"/><g><g><g><ellipse cx="173.444" cy="196.38" fill="#ff889e" rx="30.462" ry="24.258"/></g><g><ellipse cx="338.556" cy="196.38" fill="#ff889e" rx="30.462" ry="24.258"/></g></g></g></g><g><path d="m176.701 177.483c4.142 0 7.5-3.358 7.5-7.5 0-3.859 3.14-6.999 6.999-6.999s6.999 3.14 6.999 6.999c0 4.142 3.358 7.5 7.5 7.5s7.5-3.358 7.5-7.5c0-12.13-9.869-21.999-21.999-21.999s-21.999 9.869-21.999 21.999c0 4.142 3.358 7.5 7.5 7.5z"/><path d="m306.307 177.483c4.142 0 7.5-3.358 7.5-7.5 0-3.859 3.14-6.999 6.999-6.999s6.999 3.14 6.999 6.999c0 4.142 3.358 7.5 7.5 7.5s7.5-3.358 7.5-7.5c0-12.13-9.869-21.999-21.999-21.999s-21.999 9.869-21.999 21.999c0 4.142 3.357 7.5 7.5 7.5z"/><path d="m256.003 201.436c8.062 0 15.729-3.492 21.034-9.58 2.721-3.123 2.396-7.86-.727-10.582-3.123-2.721-7.86-2.396-10.582.727-2.456 2.818-6 4.434-9.725 4.434s-7.27-1.616-9.726-4.434c-2.721-3.123-7.459-3.448-10.582-.727s-3.448 7.459-.727 10.582c5.306 6.088 12.972 9.58 21.035 9.58z"/><path d="m406.185 276.815c-13.841 0-27.69 0-41.557 0 17.771-16.502 31.788-36.987 40.62-60.023 27.061 1.756 49.629-19.808 49.629-46.491 0-24.556-19.095-44.722-43.214-46.465-16.75-72.763-81.272-123.836-155.661-123.836-23.644 0-46.42 5.052-67.696 15.017-3.751 1.757-5.368 6.222-3.611 9.973s6.222 5.367 9.973 3.611c19.27-9.025 39.906-13.601 61.334-13.601 51.76 0 99.045 27.3 125.001 71.692-4.746 2.312-9.997 2.974-14.756 2.18-7.796-1.27-10.392-4.893-16.006-7.777-12.808-6.579-28.994-5.889-41.573 3.318-4.254 3.12-9.301 4.769-14.595 4.769-9.224 0-14.04-4.566-17.241-6.544-13.545-8.368-31.51-7.582-44.29 1.771-8.547 6.256-20.371 6.483-29.214-.002-13.769-10.078-33.208-10.038-46.928.003-4.161 3.047-9.246 4.772-14.6 4.772-3.567 0-7.277-.776-10.792-2.486 9.767-16.636 22.954-31.398 38.445-42.978 3.318-2.48 3.997-7.18 1.517-10.498s-7.18-3.996-10.498-1.517c-30.144 22.532-51.682 55.454-60.129 92.133-24.12 1.742-43.216 21.909-43.216 46.465 0 26.695 22.581 48.245 49.629 46.491 8.832 23.036 22.849 43.521 40.62 60.023-13.866 0-27.713 0-41.557 0-19.338 0-35.071 15.728-35.071 35.061 0 19.338 15.733 35.071 35.071 35.071h60.129c.522 2.777-4.695 40.748 27.428 71.885v58.1c0 19.336 15.727 35.068 35.058 35.068 10.555 0 20.677-4.659 27.581-13.417 6.427 8.161 16.386 13.417 27.556 13.417 19.369 0 35.058-15.684 35.058-35.068 0-19.414 0-38.716 0-58.09 32.023-30.856 26.905-69.105 27.428-71.895h60.129c19.338 0 35.071-15.733 35.071-35.071-.001-19.333-15.734-35.061-35.072-35.061zm-119.239 39.728c-2.191 15.113-15.233 26.761-30.943 26.761-15.712 0-28.754-11.649-30.944-26.764 19.733 3.862 40.657 4.111 61.611.053.091-.017.184-.032.276-.05zm127.522-177.234c14.471 2.886 25.41 15.686 25.41 30.993 0 16.79-13.163 30.563-29.711 31.545 5.481-20.093 6.963-41.71 4.301-62.538zm-312.635 62.537c-16.546-.983-29.706-14.756-29.706-31.545 0-15.308 10.939-28.108 25.411-30.993-2.728 21.252-1.068 42.855 4.295 62.538zm22.267-101.812c12.866 6.415 28.825 5.509 41.161-3.52 8.732-6.392 20.544-6.345 29.206-.004 6.845 5.019 14.959 7.672 23.465 7.672 1.069-.171 12.152.614 23.47-7.668 8.57-6.272 20.384-6.454 29.201 0 11.107 8.131 21.676 7.4 23.47 7.668 1.09-.174 12.174.608 23.46-7.668 4.265-3.122 9.317-4.772 14.611-4.772 11.653 0 13.909 6.127 24.263 9.979 10.648 3.947 22.026 3.046 31.498-1.69 38.425 84.914-12.469 182.802-102.422 201.484-19.693 4.049-39.802 3.97-59.206-.053-90.168-18.89-140.393-116.941-102.177-201.428zm-38.351 211.842c0-11.062 9.004-20.061 20.071-20.061h12.74v40.131h-12.74c-11.067.001-20.071-9.003-20.071-20.07zm142.685 185.124c-11.06 0-20.058-9.002-20.058-20.068v-27.602h40.126v27.602c.001 11.092-8.974 20.068-20.068 20.068zm75.195-20.068c0 11.076-8.965 20.068-20.058 20.068-11.065 0-20.068-9.002-20.068-20.068v-27.602h40.126zm34.928-144.985c-4.142 0-7.5 3.358-7.5 7.5-.392 10.879 1.339 21.273-3.14 36.231h-26.846c-4.142 0-7.5 3.358-7.5 7.5s3.358 7.5 7.5 7.5h20.487c-3.379 6.035-7.6 11.636-12.485 16.527-2.728 2.728-5.443 4.233-5.443 8.37v18.756h-40.126v-21.826c0-4.142-3.358-7.5-7.5-7.5s-7.5 3.358-7.5 7.5v21.826h-40.126v-18.756c0-2.128-.904-4.156-2.487-5.579-6.184-5.557-11.415-12.116-15.447-19.318h80.646c4.142 0 7.5-3.358 7.5-7.5s-3.358-7.5-7.5-7.5h-87c-4.504-15.041-2.747-25.327-3.14-36.231 0-4.142-3.358-7.5-7.5-7.5h-39.89v-40.131h32.465c13.548 9.252 28.268 16.263 43.728 20.926.379 25.187 20.974 45.563 46.249 45.563s45.869-20.375 46.249-45.561c15.464-4.663 30.185-11.674 43.731-20.928h32.463v40.131zm67.628 0h-12.74v-40.131h12.74c11.067 0 20.071 8.999 20.071 20.061 0 11.066-9.004 20.07-20.071 20.07z"/><path d="m38.393 260.25h48.417c4.142 0 7.5-3.358 7.5-7.5s-3.358-7.5-7.5-7.5h-48.417l8.134-8.134c2.929-2.929 2.929-7.678 0-10.606-2.929-2.929-7.678-2.929-10.606 0-22.351 22.37-21.739 21.382-22.561 23.365-.877 2.124-.728 4.474.315 6.416.78 1.452-.307.129 22.246 22.7 2.929 2.929 7.678 2.929 10.606 0 2.929-2.929 2.929-7.678 0-10.606z"/><path d="m497.955 248.585c-.648-.967.502.317-21.871-22.076-2.928-2.929-7.677-2.929-10.606 0s-2.929 7.677 0 10.606l8.134 8.134h-48.418c-4.142 0-7.5 3.358-7.5 7.5s3.358 7.5 7.5 7.5h48.417l-8.134 8.134c-4.739 4.738-1.318 12.803 5.303 12.803 1.919 0 3.839-.732 5.303-2.197l20.936-20.936c2.499-2.496 2.935-6.477.936-9.468z"/></g></g></svg>