<svg id="Capa_1" enable-background="new 0 0 512 512" height="512" viewBox="0 0 512 512" width="512" xmlns="http://www.w3.org/2000/svg"><g><g><path d="m325.906 202.304v194.535l-162.062 49.572-156.344-49.572v-194.535l159.202-64.119z" fill="#f9ed80"/><path d="m177.959 396.839h-170.459v38.913c0 12.828 3.759 25.373 10.817 36.086 6.074 9.215 14.252 16.598 23.666 21.666 9.425 5.079 20.085 7.854 31.122 7.854h158.549z" fill="#ff9e8e"/><path d="m277.838 10.642h-222.272c-22.431 0-40.616 18.184-40.616 40.616 0 12.596 10.211 22.807 22.807 22.807l128.945 28.815 128.944-28.815c12.596 0 22.807-10.211 22.807-22.807.001-22.432-18.184-40.616-40.615-40.616z" fill="#f9ed80"/><path d="m325.906 175.014v27.29h-318.406v-27.29c0-35.876 10.524-70.978 30.253-100.948h257.889c19.739 29.971 30.264 65.072 30.264 100.948z" fill="#ff9e8e"/><path d="m325.906 202.304v194.535l-162.062 49.572-156.344-49.572v-194.535l159.202-64.119z" fill="#f9ed80"/><path d="m47.5 257.317c0-25.591 2.727-50.46 7.836-74.279l-47.836 19.266v194.535l81.605 25.875c-26.368-48.055-41.605-104.713-41.605-165.397z" fill="#fccb88"/><path d="m177.959 396.839h-170.459v38.913c0 12.828 3.759 25.373 10.817 36.086 6.074 9.215 14.252 16.598 23.666 21.666 9.425 5.079 20.085 7.854 31.122 7.854h158.549z" fill="#ff9e8e"/><path d="m88.842 33.413c0-7.979 1.313-15.635 3.699-22.771h-36.975c-22.431 0-40.616 18.184-40.616 40.615 0 12.596 10.211 22.808 22.807 22.808l83.004 18.549c-19.147-12.224-31.919-34.162-31.919-59.201z" fill="#fccb88"/><path d="m325.906 175.014v27.29h-318.406v-27.29c0-35.876 10.524-70.978 30.253-100.948h257.889c19.739 29.971 30.264 65.072 30.264 100.948z" fill="#ff9e8e"/><path d="m446.483 347.262v-135.292h-268.524v235.688c0 29.657 24.042 53.7 53.7 53.7h109.947z" fill="#c1e9fa"/><path d="m388.81 279.137c-18.075 0-32.728 14.653-32.728 32.728v43.105h65.457v-43.105c-.001-18.075-14.654-32.728-32.729-32.728z" fill="#ff748f"/><path d="m295.497 347.262v107.987c0 25.465 20.643 46.108 46.108 46.108h94.407c25.465 0 46.108-20.643 46.108-46.108v-107.987z" fill="#ff748f"/><path d="m312.221 124.499c-19.607 0-35.502 15.895-35.502 35.502v49.98h71.005v-49.98c0-19.607-15.895-35.502-35.503-35.502z" fill="#c1e9fa"/><path d="m220.793 330.323c0-43.167 10.558-83.604 28.96-118.353h-71.794v235.688c0 29.657 24.042 53.7 53.7 53.7h56.105c-41.22-42.812-66.971-103.597-66.971-171.035z" fill="#8ed1ef"/><path d="m304.03 169.27c0-17.148 7.664-32.497 19.742-42.839-3.622-1.246-7.505-1.932-11.551-1.932-19.607 0-35.502 15.895-35.502 35.502v49.98h44.706c-10.713-10.264-17.395-24.703-17.395-40.711z" fill="#8ed1ef"/><path d="m420.927 170.563h-217.411c-21.91 0-39.671 17.761-39.671 39.671 0 13.155 10.665 23.82 23.82 23.82h249.114c13.155 0 23.82-10.665 23.82-23.82-.001-21.91-17.762-39.671-39.672-39.671z" fill="#78cbec"/><path d="m482.122 317.053h-186.625c-12.359 0-22.378 10.019-22.378 22.379v15.66c0 12.359 10.019 22.378 22.378 22.378h186.624c12.359 0 22.379-10.019 22.379-22.378v-15.66c0-12.359-10.019-22.379-22.378-22.379z" fill="#78cbec"/><path d="m76.363 396.839h-68.863v38.913c0 12.828 3.759 25.373 10.817 36.086 6.074 9.215 14.252 16.598 23.666 21.666 9.425 5.079 20.085 7.854 31.122 7.854h77.245c-30.82-28.324-56.165-63.938-73.987-104.519z" fill="#fb8978"/><path d="m99.657 74.066h-61.904c-19.729 29.971-30.253 65.072-30.253 100.948v27.29h44.254c7.378-47.22 24.09-90.8 47.903-128.238z" fill="#fb8978"/><path d="m277.62 170.563h-74.104c-21.91 0-39.672 17.761-39.672 39.671 0 13.156 10.665 23.82 23.82 23.82h51.767c9.566-23.471 22.531-44.883 38.189-63.491z" fill="#34b5e1"/></g><g><path d="m338.324 413.469c-4.142 0-7.5 3.358-7.5 7.5v9.701c0 4.142 3.358 7.5 7.5 7.5s7.5-3.358 7.5-7.5v-9.701c0-4.143-3.358-7.5-7.5-7.5z"/><path d="m439.294 413.469c-4.142 0-7.5 3.358-7.5 7.5v9.701c0 4.142 3.358 7.5 7.5 7.5s7.5-3.358 7.5-7.5v-9.701c0-4.143-3.357-7.5-7.5-7.5z"/><path d="m407.047 424.727c-3.123-2.722-7.861-2.396-10.582.726-1.934 2.219-4.725 3.491-7.656 3.491-2.932 0-5.723-1.272-7.657-3.491-2.722-3.123-7.459-3.448-10.582-.726-3.123 2.721-3.448 7.459-.726 10.582 4.783 5.488 11.695 8.636 18.964 8.636s14.181-3.147 18.964-8.636c2.723-3.123 2.398-7.861-.725-10.582z"/><path d="m482.122 309.553h-28.139v-73.167c29.835-19.694 9.424-73.324-33.056-73.324h-65.703v-3.062c0-19.273-12.745-35.625-30.249-41.071-4.273-13.915-10.1-27.255-17.394-39.817 10.794-4.643 18.373-15.379 18.373-27.855 0-26.531-21.584-48.115-48.115-48.115h-140.026c-4.142 0-7.5 3.358-7.5 7.5s3.358 7.5 7.5 7.5h140.025c18.26 0 33.115 14.855 33.115 33.115 0 8.44-6.867 15.308-15.307 15.308h-257.888c-8.44 0-15.308-6.867-15.308-15.308 0-18.26 14.855-33.115 33.116-33.115h52.247c4.142 0 7.5-3.358 7.5-7.5s-3.358-7.5-7.5-7.5h-52.247c-26.531 0-48.116 21.584-48.116 48.115 0 12.474 7.576 23.208 18.367 27.852-16.92 29.128-25.817 62.062-25.817 95.905v260.738c0 40.462 32.878 73.106 73.106 73.106h362.907c29.56 0 53.608-24.049 53.608-53.608v-71.233c12.857-3.337 22.379-15.04 22.379-28.925v-15.66c0-16.475-13.403-29.879-29.878-29.879zm-118.435 0c1.171-12.831 11.992-22.917 25.123-22.917s23.952 10.085 25.123 22.917zm-23.463-149.552v3.062h-56.004v-3.062c0-17.361 15.792-30.774 33.197-27.511 12.965 2.443 22.807 13.846 22.807 27.511zm-325.224 15.013c0-33.168 9.27-65.387 26.85-93.448h249.697c7.015 11.197 12.732 23.118 17.069 35.582-16.933 1.416-31.285 12.739-36.901 28.429-2.39 6.693-2.469 11.313-2.496 17.485-71.373.049-68.996-.521-76.794 1.329-15.804 3.824-28.347 15.557-33.495 30.412h-143.93zm0 34.79h141.346c-.117 11.43 5.814 21.146 14.113 26.598v152.937h-155.459zm176.564 284.054h-118.458c-31.88 0-58.106-25.839-58.106-58.106v-31.413h155.459v43.319c0 17.413 7.484 34.355 21.105 46.2zm112.886 0c-77.862-.022-74.359.097-77.779-.274-23.136-2.496-41.211-22.138-41.211-45.926v-50.819-155.361c2.017.141-.447.048 69.188.076 4.142 0 7.5-3.358 7.5-7.5s-3.358-7.5-7.5-7.5h-66.983c-3.554 0-7.224-1.197-10.232-3.624-13.197-10.659-3.918-39.063 19.173-44.113 7.537-1.665 224.321-.755 224.321-.755 17.739 0 32.171 14.432 32.171 32.171 0 7.542-5.154 13.995-12.341 15.809-4.098 1.033 4.731.226-156.109.511-4.142 0-7.5 3.358-7.5 7.5s3.358 7.5 7.5 7.5c159.772-.028 152.31.066 154.335-.076v68.075h-10.016c-1.203-21.11-18.752-37.917-40.157-37.917s-38.954 16.807-40.157 37.917h-53.155c-8.238 0-15.707 3.351-21.117 8.761s-8.761 12.88-8.761 21.117v15.66c0 14.034 9.827 25.787 22.379 28.925.552 79.022-4.674 89.516 16.451 109.843zm131.563 0h-94.407c-21.289 0-38.608-17.32-38.608-38.608v-70.28h171.624v70.279c0 21.289-17.32 38.609-38.609 38.609zm60.987-138.766c0 8.202-6.672 14.876-14.874 14.879-.002 0-.003 0-.005 0h-186.623c-8.204 0-14.878-6.674-14.878-14.878v-15.66c0-8.204 6.674-14.878 14.878-14.878h186.624c8.204 0 14.878 6.674 14.878 14.878z"/></g></g></svg>