<svg id="Capa_1" enable-background="new 0 0 512 512" height="512" viewBox="0 0 512 512" width="512" xmlns="http://www.w3.org/2000/svg"><g><g><g><path d="m243.853 365.271c-2.245 2.79-55.823 68.221-128.955 58.959-15.126-1.916-25.836-15.731-23.92-30.858 1.916-15.126 15.731-25.836 30.858-23.92 42.182 5.342 78.644-38.354 79-38.796z" fill="#ffd3bc"/></g><g><path d="m270.263 365.271c2.245 2.79 55.823 68.221 128.955 58.959 15.126-1.916 25.836-15.731 23.92-30.858-1.916-15.126-15.731-25.836-30.858-23.92-42.182 5.342-78.644-38.354-79-38.796z" fill="#ffbe9c"/></g><path d="m200.028 346.182s-24.777 22.52-24.777 68.533l59.368 49.794h42.764l59.368-49.794c0-46.013-24.777-68.533-24.777-68.533z" fill="#78cbec"/><path d="m211.277 390.818c0-16.283 4.953-31.534 13.584-44.636h-24.833s-24.777 22.52-24.777 68.533l59.368 49.793h21.12c-26.796-15.836-44.462-42.926-44.462-73.69z" fill="#34b5e1"/><g><path d="m158.738 482.62 37.607 11.821 36.866-29.516-15.137-39.575-37.607-11.821c-19.074-6.007-39.403 4.597-45.41 23.681-5.997 19.074 4.607 39.413 23.681 45.41z" fill="#5c586f"/></g><g><path d="m353.262 482.62-37.607 11.821-36.866-29.516 15.137-39.575 37.607-11.821c19.074-6.007 39.403 4.597 45.41 23.681 5.997 19.074-4.607 39.413-23.681 45.41z" fill="#5c586f"/></g><path d="m315.655 494.441-26.645 8.383c-19.045 5.988-39.393-4.568-45.41-23.681-5.997-19.074 4.597-39.413 23.681-45.41l26.645-8.383z" fill="#ffbe9c"/><path d="m196.345 494.441 26.645 8.383c19.045 5.988 39.393-4.568 45.41-23.681 5.997-19.074-4.597-39.413-23.681-45.41l-26.645-8.383z" fill="#ffd3bc"/><circle cx="257.058" cy="357.36" fill="#ffbe9c" r="36.69"/><path d="m410.518 81.569c6.449-18.655 5.468-37.436 2.778-51.766-2.653-14.134-15.782-23.789-30.065-22.115-25.878 3.033-71.94 7.272-127.23 7.272-101.598 0-184.255 82.656-184.255 184.255h368.509c0-35.376-10.024-68.454-27.378-96.547-3.91-6.328-4.79-14.068-2.359-21.099z" fill="#b2b0bc"/><path d="m274.018 14.809c-5.885.097-11.891.151-18.018.151-101.598 0-184.255 82.656-184.255 184.255h70.88c5-75.454 58.535-154.797 131.393-184.406z" fill="#a19dae"/><circle cx="401.269" cy="212.095" fill="#ffbe9c" r="49.355"/><path d="m161.511 112.316c81.76 27.348 109.582-34.126 168.102-19.694 10.663 2.63 20.402 8.197 28.232 15.898 26.854 26.405 43.49 63.167 43.423 103.819-.131 79.395-64.818 144.456-144.211 145.021-80.716.575-146.327-64.683-146.327-145.265 0-36.647 13.571-70.125 35.96-95.683 3.688-4.209 9.514-5.871 14.821-4.096z" fill="#ffd3bc"/><path d="m256 256.677c-21.748 27.185-53.792 15.919-70.693 6.992-4.099-2.165-4.391-7.858-.593-10.515 9.688-6.778 15.328-21.622 23.331-29.08 12.432-11.587 33.85-18.625 47.955-5.837 14.105-12.788 35.523-5.75 47.955 5.837 8.002 7.458 13.643 22.301 23.331 29.08 3.798 2.658 3.506 8.35-.593 10.515-16.901 8.927-48.945 20.193-70.693-6.992z" fill="#5c586f"/><path d="m218.277 352.407c-46.207-32.495-76.049-83.893-76.049-141.749 0-32.331 9.32-65.895 25.604-96.382-2.074-.598-4.175-1.242-6.322-1.96-5.307-1.775-11.133-.113-14.82 4.095-11.993 13.69-21.452 29.655-27.654 47.159-2.487-.536-5.236-.831-8.307-.831-27.258 0-49.355 22.097-49.355 49.354 0 27.258 22.097 49.355 49.355 49.355 3.071 0 5.82-.295 8.308-.832 15.852 44.731 52.991 79.388 99.24 91.791z" fill="#ffbe9c"/></g><g><path d="m181.803 270.302c25.192 13.308 53.386 16.659 74.197-2.62 18.366 17.014 44.912 18.091 74.198 2.62 9.046-4.778 9.798-17.409 1.389-23.292-7.978-5.582-13.791-20.289-22.517-28.422-13.99-13.038-36.319-19.98-53.069-9.695-16.749-10.285-39.079-3.344-53.069 9.695-8.775 8.178-14.512 22.82-22.517 28.422-8.401 5.877-7.667 18.508 1.388 23.292zm31.354-40.741c9.043-8.429 26.752-15.789 37.805-5.768 2.858 2.592 7.217 2.592 10.075 0 11.054-10.021 28.762-2.661 37.805 5.768 6.769 6.309 12.309 20.35 22.442 28.462-32.092 16.194-50.006 5.747-59.428-6.03-2.999-3.749-8.712-3.752-11.713 0-9.423 11.777-27.338 22.222-59.428 6.03 10.094-8.081 15.735-22.21 22.442-28.462z"/><path d="m354.34 197.616c2.722-3.123 2.397-7.86-.726-10.582-3.122-2.722-7.86-2.398-10.582.726-7.236 8.302-20.113 8.323-27.368 0-2.722-3.123-7.46-3.448-10.582-.726-3.123 2.721-3.448 7.459-.726 10.582 13.227 15.176 36.771 15.161 49.984 0z"/><path d="m207.644 197.616c2.721-3.123 2.396-7.86-.727-10.582-3.123-2.721-7.86-2.396-10.582.727-7.234 8.302-20.112 8.323-27.367 0-2.722-3.123-7.46-3.448-10.582-.726-3.123 2.721-3.448 7.459-.726 10.582 13.227 15.176 36.771 15.16 49.984-.001z"/><path d="m372.592 285.248c-2.211 3.503-1.164 8.134 2.339 10.345 3.503 2.212 8.135 1.164 10.345-2.339 4.919-7.793 9.086-15.972 12.492-24.427 32.694 2.062 60.358-24.054 60.358-56.731 0-12.898-4.324-24.801-11.589-34.351-3.152-28.215-12.313-54.792-27.278-79.019-2.744-4.442-3.346-9.803-1.651-14.707 5.805-16.791 6.835-35.498 3.061-55.601-3.365-17.926-20.185-30.301-38.31-28.181-28.109 3.294-72.849 7.221-126.359 7.221-33.815 0-67.093 8.975-96.237 25.955-3.579 2.085-4.79 6.677-2.705 10.256 2.086 3.579 6.678 4.79 10.256 2.705 26.855-15.646 57.522-23.916 88.686-23.916 54.234 0 99.599-3.982 128.106-7.323 10.323-1.213 19.905 5.84 21.821 16.05 2.259 12.037 3.661 30.125-2.495 47.932-3.173 9.18-2.056 19.201 3.066 27.492 10.74 17.387 18.245 36.083 22.411 55.784-9.743-5.424-20.496-7.683-30.982-7.051-7.737-19.356-19.477-37.084-34.822-52.172-8.894-8.745-19.854-14.911-31.695-17.832-61.754-15.231-89.419 45.989-167.522 19.864-8.151-2.727-17.116-.268-22.841 6.267-11.132 12.707-20.349 27.42-26.927 43.875-10.704-.644-21.435 1.707-31.032 7.049 8.193-38.748 29.161-73.49 60.259-99.278 3.189-2.644 3.63-7.373.986-10.561-2.646-3.19-7.374-3.629-10.561-.986-38.6 32.009-62.796 76.754-68.32 126.187-7.26 9.548-11.58 21.447-11.58 34.34 0 32.57 27.52 58.715 60.201 56.742 12.738 31.88 35.658 57.533 62.892 74.06-13.265 10.339-33.195 21.777-54.19 19.118-19.209-2.437-36.809 11.214-39.241 30.419-2.438 19.248 11.167 36.804 30.418 39.241 4.876.618 9.81.929 14.766.941-8.945 23.714 3.967 49.682 27.768 57.165 67.162 21.112 21.286 6.691 64.253 20.204 11.923 3.749 24.624 2.192 35.238-4.036 6.768 3.979 14.445 6.043 22.201 6.043 9.515 0 8.86-.68 77.334-22.211 23.749-7.467 36.707-33.508 27.759-57.187 5.417.08 10.765-.143 16.891-.919 9.303-1.178 17.591-5.909 23.336-13.321 18.986-24.491-1.029-60.29-32.159-56.339-21.477 2.72-41.801-9.241-55.218-19.925 10.639-6.616 20.552-14.602 29.525-23.87 2.881-2.976 2.804-7.724-.172-10.606-2.977-2.882-7.724-2.804-10.606.172-17.958 18.549-40.058 31.222-63.801 37.524-132.607 35.13-226.932-123.259-138.736-223.957 1.726-1.97 4.394-2.731 6.8-1.925 84.301 28.197 114.326-32.931 168.688-19.526 11.472 2.83 19.594 8.515 27.728 16.969 43.598 45.615 50.74 114.992 17.045 168.377zm-43.654 121.239c-65.847 20.699-66.935 20.595-72.938 24.096-7.14-4.185-12.318-4.725-35.675-12.383-.001 0-.001 0-.002 0-1.462-.46 6.506 2.045-37.249-11.709 1.331-18.52 7.551-37.527 18.959-51.391 3.573 1.346 7.198 2.556 10.87 3.629.726 23.735 20.248 42.824 44.156 42.824 24.139 0 43.808-19.458 44.174-43.512 2.936-.912 5.84-1.914 8.711-3.003 11.649 14.067 17.696 33.24 18.994 51.449zm-43.047-44.556c-2.199 13.933-14.291 24.622-28.833 24.622-14.389 0-26.38-10.465-28.76-24.184 18.973 3.454 38.656 3.323 57.593-.438zm-170.052 54.862c-11.024-1.396-18.819-11.448-17.423-22.475 1.389-10.966 11.442-18.818 22.475-17.423 23.843 3.023 45.726-7.956 61.127-19.054-8.068 14.115-12.566 30.261-13.846 46.528-11.377.362-21.901 5.203-29.517 12.817-7.657.689-15.318.557-22.816-.393zm32.061 12.481c6.463-7.451 16.499-11.114 26.2-9.555h.002c2.844.456 2.534.473 34.565 10.545l-17.229 54.78-30.453-9.573c-19.81-6.229-26.53-30.684-13.085-46.197zm77.34 66.401-19.493-6.132 17.229-54.78 19.494 6.13c21.863 6.871 27.295 35.635 9.175 49.908-7.209 5.68-17.009 7.828-26.405 4.874zm61.521 0c-6.106 1.92-12.604 1.713-18.481-.438 12.031-15.35 12.757-37.519.004-53.893 2.283-.833-.799.233 20.738-6.582l17.229 54.78zm64.254-20.205-30.454 9.573c-3.561-11.321-13.363-42.487-17.229-54.78 3.857-1.213-11.281 3.547 30.455-9.576 15.071-4.759 31.231 3.615 36.003 18.776 4.749 15.106-3.674 31.259-18.775 36.007zm42.21-98.575c17.803-2.245 29.305 18.226 18.419 32.268-3.291 4.245-8.037 6.955-13.366 7.63-8.283 1.049-16.731 1.103-25.157.164-7.699-7.586-18.089-12.229-29.292-12.589-1.35-17.163-6.402-34.558-15.563-49.383 13.991 10.826 41.418 24.894 64.959 21.91zm-324.352-164.8c0-22.739 18.151-40.982 40.154-41.817-7.473 26.291-7.944 55.657-.032 83.636-22.278-.913-40.122-19.321-40.122-41.819zm334.036 41.824c7.491-26.114 8.091-55.372.105-83.631 22.372.93 40.112 19.403 40.112 41.807.001 22.531-17.893 40.961-40.217 41.824z"/></g></g></svg>