<svg id="Capa_1" enable-background="new 0 0 512 512" height="512" viewBox="0 0 512 512" width="512" xmlns="http://www.w3.org/2000/svg"><g><g><path d="m478.218 33.782c-35.042-35.042-92.06-35.042-127.103 0l-51.604 51.604 35.138 35.138 51.604-51.604c15.667-15.667 41.16-15.667 56.827 0s15.667 41.16 0 56.827l-51.604 51.604 35.138 35.138 51.604-51.604c35.043-35.043 35.043-92.061 0-127.103z" fill="#5c586f"/><path d="m177.351 391.476-51.604 51.604c-15.667 15.667-41.16 15.667-56.827 0s-15.667-41.16 0-56.827l51.604-51.604-35.138-35.138-51.604 51.604c-35.042 35.042-35.042 92.06 0 127.103 35.042 35.042 92.061 35.042 127.103 0l51.604-51.604z" fill="#5c586f"/><g fill="#4f4c5f"><path d="m299.511 85.386 35.138 35.138 44.629-44.629-13.664-13.664c-7.454-7.454-16.041-13.354-25.362-17.585z"/><path d="m466.034 173.069c-6.965-13.771-16.106-26.524-27.238-37.656l-2.691-2.691-44.629 44.629 35.138 35.138z"/></g><g fill="#4f4c5f"><path d="m44.689 340.209c4.195 9.289 10.063 17.925 17.543 25.405l13.664 13.664 44.628-44.628-35.138-35.138z"/><path d="m212.489 426.614-35.138-35.138-44.629 44.629 2.706 2.707c11.075 11.075 23.825 20.243 37.614 27.249z"/></g><path d="m417.583 156.627-73.182-73.182c-16.807-16.806-42.374-21.241-63.843-11.044-46.678 22.171-84.489-11.473-152.059 56.097-67.571 67.571-33.927 105.381-56.098 152.059-10.197 21.469-5.763 47.037 11.044 63.844l73.197 73.198c25.657 25.657 61.778 38.313 97.736 33.452 35.195-4.758 80.178-22.066 127.393-69.28 46.323-46.323 63.858-90.498 68.997-125.389 5.391-36.609-7.02-73.59-33.185-99.755z" fill="#b2b0bc"/><path d="m152.722 261.091c0-70.791 25.497-134.409 66.036-178.304-25.413 2.115-53.411 8.862-90.259 45.711-67.571 67.571-33.927 105.381-56.098 152.059-10.197 21.469-5.763 47.037 11.044 63.844l73.197 73.198c20.121 20.121 46.677 32.242 74.543 34.193-47.687-43.814-78.463-112.927-78.463-190.701z" fill="#a19dae"/><path d="m378.931 195.278-73.182-73.182c-.465-.465-1.164-.594-1.739-.321-26.47 12.572-50.055 13.787-69.007 14.764-24.486 1.262-39.266 2.024-67.854 30.611-28.587 28.587-29.349 43.367-30.61 67.853-.976 18.952-2.192 42.538-14.764 69.007-.273.575-.145 1.275.32 1.74l73.198 73.198c13.752 13.752 33.102 20.457 51.762 17.934 32.456-4.387 64.776-22.475 96.063-53.762 30.833-30.833 48.856-62.695 53.57-94.702 2.846-19.311-3.793-39.176-17.757-53.14z" fill="#fff"/><path d="m152.722 261.091c0-34.203 5.964-66.725 16.687-96.166-.745.725-1.495 1.46-2.259 2.224-28.587 28.587-29.349 43.367-30.61 67.853-.976 18.952-2.192 42.538-14.764 69.007-.273.575-.145 1.275.32 1.74l45.054 45.054c-9.297-27.714-14.428-57.99-14.428-89.712z" fill="#e5e5e5"/></g><g><path d="m404.111 249.157c3.189-21.646-4.241-43.902-19.875-59.536l-73.186-73.186c-2.704-2.701-6.826-3.42-10.257-1.79-25.125 11.933-47.886 13.106-66.176 14.049-25.379 1.308-42.145 2.172-72.772 32.798-30.626 30.626-31.49 47.392-32.798 72.772-.942 18.288-2.114 41.048-14.047 66.173-1.632 3.433-.914 7.556 1.791 10.263l73.199 73.199c15.448 15.448 37.176 22.888 58.071 20.064 34.121-4.612 67.888-23.417 100.364-55.892 31.997-31.999 50.733-65.278 55.686-98.914zm-158.06 139.94c-16.352 2.21-33.347-3.697-45.455-15.805l-70.279-70.279c11.559-26.216 12.748-49.278 13.711-67.978 1.209-23.463 1.875-36.387 28.424-62.936 26.55-26.549 39.475-27.215 62.937-28.424 18.701-.964 41.76-2.151 67.977-13.711l70.264 70.264c12.295 12.295 18.142 29.769 15.642 46.744-4.474 30.377-21.785 60.824-51.454 90.492-30.101 30.099-60.975 47.471-91.767 51.633z"/><path d="m302.654 207.261c-2.929-2.929-7.678-2.929-10.607 0l-84.433 84.433c-2.929 2.929-2.929 7.678 0 10.607s7.678 2.929 10.607 0l84.433-84.433c2.93-2.929 2.93-7.678 0-10.607z"/><path d="m265.769 184.8c3.787-1.678 5.496-6.109 3.817-9.896-1.678-3.787-6.109-5.495-9.896-3.817-16.893 7.487-35.153 20.568-51.418 36.833-16.264 16.264-29.345 34.524-36.833 51.417-1.679 3.787.03 8.217 3.817 9.896 3.795 1.682 8.221-.037 9.896-3.817 6.759-15.247 18.736-31.899 33.727-46.89 14.992-14.991 31.644-26.969 46.89-33.726z"/><path d="m335.012 240.329c-3.788-1.679-8.217.03-9.896 3.817-6.759 15.247-18.737 31.899-33.727 46.89-14.991 14.991-31.643 26.969-46.889 33.727-3.787 1.678-5.496 6.109-3.817 9.896 1.681 3.794 6.115 5.494 9.896 3.817 16.892-7.487 35.152-20.568 51.417-36.833 16.264-16.263 29.345-34.524 36.834-51.417 1.678-3.788-.031-8.218-3.818-9.897z"/><path d="m483.525 28.122c-13.286-13.286-30.03-22.381-48.423-26.302-4.051-.866-8.036 1.72-8.899 5.771-.864 4.051 1.72 8.036 5.771 8.899 15.553 3.316 29.712 11.006 40.944 22.239 32.139 32.14 32.14 84.356 0 116.498l-27.143 27.144c-5.455-10.661-12.653-20.638-20.312-28.752l22.924-22.924c18.592-18.592 18.592-48.842 0-67.435-18.592-18.592-48.842-18.592-67.435 0l-22.886 22.886c-9.068-9.036-14.853-15.893-27.532-21.532l25.886-25.885c13.054-13.054 29.666-21.157 48.038-23.431 4.111-.509 7.031-4.254 6.522-8.365s-4.258-7.028-8.365-6.522c-21.721 2.689-41.362 12.272-56.802 27.711l-31.735 31.735c-12.255-1.839-25.054-.137-36.739 5.413-15.322 7.277-29.998 8.033-45.536 8.834-29.59 1.524-63.128 3.252-108.61 48.735-45.483 45.483-47.211 79.021-48.735 108.611-.801 15.538-1.557 30.214-8.835 45.536-5.55 11.685-7.251 24.484-5.413 36.739l-31.735 31.735c-37.967 37.967-37.967 99.744 0 137.711 37.965 37.965 99.743 37.968 137.711 0l31.332-31.332c18.389 6.629 38.26 8.944 57.864 6.294 18.181-2.459 36.421-7.822 54.213-15.941 3.769-1.72 5.429-6.169 3.71-9.937-1.72-3.769-6.169-5.429-9.937-3.71-16.452 7.508-33.272 12.462-49.995 14.722-33.517 4.531-67.607-7.502-91.429-31.324-78.453-78.453-76.055-75.35-80.263-82.159-8.473-13.824-9.66-31.305-2.508-46.363 8.555-18.012 9.424-34.883 10.265-51.199 1.453-28.205 2.956-57.37 44.362-98.776s70.571-42.908 98.776-44.361c16.316-.841 33.188-1.71 51.2-10.265 15.558-7.391 33.932-5.936 48.117 3.638 6.261 4.219 83.248 82.057 84.724 83.715 21.334 23.905 31.46 56.668 26.733 88.763-6.223 42.254-28.725 83.024-66.881 121.18-15.406 15.405-31.52 28.446-47.893 38.758-3.505 2.208-4.557 6.838-2.35 10.343 2.208 3.504 6.837 4.558 10.343 2.349 17.319-10.907 34.312-24.649 50.507-40.844 40.485-40.485 64.412-84.089 71.115-129.601 2.992-20.312.763-40.901-6.049-59.904l31.383-31.384c37.967-37.967 37.967-99.744 0-137.711zm-300.836 417.334-27.109 27.109c-32.119 32.117-84.38 32.118-116.498 0-32.118-32.119-32.118-84.38 0-116.498l25.886-25.885c5.632 12.69 12.854 18.823 21.532 27.531l-22.886 22.886c-18.61 18.61-18.613 48.823 0 67.435 18.61 18.611 48.822 18.612 67.435 0l22.923-22.923c8.369 7.901 18.145 14.909 28.717 20.345zm-85.583-77.137 46.221 46.221-22.886 22.886c-12.749 12.748-33.472 12.749-46.221 0s-12.749-33.471 0-46.221zm294.452-294.452c12.743-12.743 33.477-12.743 46.221 0 12.743 12.743 12.743 33.478 0 46.221l-22.886 22.886-46.221-46.222z"/></g></g></svg>