<svg id="Capa_1" enable-background="new 0 0 512 512" height="512" viewBox="0 0 512 512" width="512" xmlns="http://www.w3.org/2000/svg"><g><g><path d="m361.811 263.854c31.518 0 57.069-25.551 57.069-57.069s-25.551-57.069-57.069-57.069c-5.451 0-10.716.78-15.708 2.207-5.349-34.365-35.067-60.665-70.933-60.665-27.665 0-51.659 15.657-63.647 38.584-9.96-8.482-22.863-13.612-36.971-13.612-29.676 0-54.053 22.653-56.803 51.609-4.722-.977-9.613-1.494-14.624-1.494-39.651 0-71.795 32.144-71.795 71.795s32.144 71.795 71.795 71.795z" fill="#c1e9fa"/><path d="m275.17 320.715-133.835-34.891-110.005 34.891 33.07 128.912c6.031 23.51 27.22 39.949 51.491 39.949h167.095z" fill="#36d39a"/><path d="m61.215 203.938c0-9.376 1.592-18.466 4.567-27.124-20.659 12.606-34.452 35.354-34.452 61.327 0 39.651 32.144 71.795 71.795 71.795l43.947-7.829c-50.362-15.796-85.857-53.795-85.857-98.169z" fill="#90d3f1"/><path d="m70.628 308.251-39.298 12.464 33.07 128.912c6.031 23.51 27.22 39.949 51.491 39.949h27.311c-43.732-39.419-72.485-105.911-72.574-181.325z" fill="#00c67f"/><path d="m31.33 250.934c-13.161 0-23.83 10.669-23.83 23.83v22.12c0 13.161 10.669 23.83 23.83 23.83h243.84v-69.781h-243.84z" fill="#80dfb5"/><circle cx="73.954" cy="70.997" fill="#90d3f1" r="39.48"/><circle cx="465.02" cy="110.477" fill="#90d3f1" r="39.48"/><circle cx="342.891" cy="48.782" fill="#c1e9fa" r="26.359"/><path d="m337.478 211.304h-59.615c-32.697 0-56.999 30.257-49.946 62.184l8.286 37.509c5.74 25.982 5.74 52.904 0 78.886l-8.286 37.509c-7.053 31.927 17.249 62.184 49.946 62.184h59.615z" fill="#fccb88"/><path d="m494.989 389.883c-5.74-25.982-5.74-52.904 0-78.886l8.286-37.509c7.053-31.927-17.249-62.184-49.946-62.184h-115.851c-32.697 0-56.999 30.257-49.946 62.184l8.286 37.509c5.74 25.982 5.74 52.904 0 78.886l-8.286 37.509c-7.053 31.927 17.249 62.184 49.946 62.184h115.851c32.697 0 56.999-30.257 49.946-62.184z" fill="#f9ed80"/><path d="m70.625 307.9c0-19.705 1.968-38.798 5.638-56.966h-44.933c-13.161 0-23.83 10.669-23.83 23.83v22.12c0 13.161 10.669 23.83 23.83 23.83h39.582c-.183-4.241-.287-8.511-.287-12.814z" fill="#36d39a"/></g><g><path d="m335.144 333.516c-4.142 0-7.5 3.358-7.5 7.5v11.579c0 4.142 3.358 7.5 7.5 7.5s7.5-3.358 7.5-7.5v-11.579c0-4.142-3.358-7.5-7.5-7.5z"/><path d="m455.658 333.516c-4.142 0-7.5 3.358-7.5 7.5v11.579c0 4.142 3.358 7.5 7.5 7.5s7.5-3.358 7.5-7.5v-11.579c0-4.142-3.358-7.5-7.5-7.5z"/><path d="m416.215 346.597c-3.123-2.722-7.861-2.396-10.581.726-5.411 6.208-15.039 6.226-20.465 0-2.722-3.123-7.459-3.448-10.581-.726-3.123 2.721-3.448 7.459-.726 10.581 11.4 13.08 31.693 13.065 43.08 0 2.721-3.122 2.395-7.86-.727-10.581z"/><path d="m73.953 117.978c25.905 0 46.98-21.075 46.98-46.98s-21.075-46.98-46.98-46.98-46.98 21.075-46.98 46.98 21.075 46.98 46.98 46.98zm0-78.96c17.634 0 31.98 14.346 31.98 31.98s-14.346 31.98-31.98 31.98-31.98-14.346-31.98-31.98 14.346-31.98 31.98-31.98z"/><path d="m465.017 63.499c-25.905 0-46.98 21.075-46.98 46.98s21.075 46.98 46.98 46.98 46.98-21.075 46.98-46.98-21.076-46.98-46.98-46.98zm0 78.959c-17.634 0-31.98-14.346-31.98-31.98s14.346-31.98 31.98-31.98 31.98 14.346 31.98 31.98-14.347 31.98-31.98 31.98z"/><path d="m309.03 48.783c0 18.67 15.189 33.859 33.859 33.859 18.669 0 33.858-15.189 33.858-33.859 0-18.669-15.189-33.858-33.858-33.858-18.67 0-33.859 15.189-33.859 33.858zm52.717 0c0 10.399-8.46 18.859-18.858 18.859-10.399 0-18.859-8.46-18.859-18.859 0-10.398 8.46-18.858 18.859-18.858 10.398 0 18.858 8.46 18.858 18.858z"/><path d="m510.595 275.107c8.096-36.647-19.816-71.302-57.269-71.302h-27.024c-1.737-38.007-36.235-66.766-74.41-60.819-4.035-15.433-12.703-29.408-24.91-39.955-35.717-30.86-90.993-23.983-117.672 15.868-37.639-24.056-88.098-3.392-97.792 40.39-49.38-5.219-91.326 35.776-87.427 84.999-13.796 3.277-24.091 15.693-24.091 30.476v22.12c0 15.235 10.933 27.958 25.364 30.753l31.771 123.853c6.886 26.84 31.047 45.585 58.755 45.585h337.435c37.53 0 65.348-34.73 57.269-71.301l-8.286-37.509c-5.466-24.745-5.466-50.905 0-75.65zm-271.922 206.968h-122.782c-20.857 0-39.043-14.11-44.226-34.313l-30.668-119.548h40.604c4.142 0 7.5-3.358 7.5-7.5s-3.358-7.5-7.5-7.5h-50.271c-9.005 0-16.33-7.326-16.33-16.33v-22.12c0-9.004 7.326-16.33 16.33-16.33h123.744c4.142 0 7.5-3.358 7.5-7.5s-3.358-7.5-7.5-7.5h-116.019c-3.572-42.321 34.78-77.023 77.173-68.249 4.368.906 8.564-2.188 8.987-6.635 3.852-40.569 51.498-58.499 81.444-32.996 3.661 3.118 9.28 2.029 11.509-2.235 19.417-37.134 67.965-45.759 99.007-18.938 11.542 9.973 19.183 23.716 21.515 38.697.693 4.454 5.136 7.295 9.472 6.058 30.735-8.785 61.262 13.37 63.127 44.669-136.56 0-134.209-.25-139.796.348-22.098 2.331-41.588 17.179-49.132 39.281h-37.287c-4.142 0-7.5 3.358-7.5 7.5s3.358 7.5 7.5 7.5h34.253c-.796 11.637 1.249 15.794 9.676 54.78h-117.402c-4.142 0-7.5 3.358-7.5 7.5s3.358 7.5 7.5 7.5h119.965c7.112 56.162-15.244 89.512-11.966 117.177 2.165 18.268 12.61 29.88 12.551 29.78 1.757 2.186 4.152 4.769 6.522 6.904zm59.614 0c-11.364-.032-20.632.058-22.908-.069-23.248-1.299-41.037-20.58-41.179-43.234-.046-7.289.808-8.338 9.335-47.318 14.932-67.682-12.088-108.083-9.04-134.121 3.787-31.884 35.153-38.073 33.614-37.438 6.751-1.535 11.018-1.069 30.178-1.09-15.684 14.132-22.693 35.425-18.08 56.302l7.017 31.761c.407 3.354 11.036 37.186 1.27 81.397l-8.287 37.509c-4.616 20.893 2.417 42.186 18.08 56.301zm189.375-90.575 8.286 37.509c6.025 27.274-14.748 53.066-42.622 53.066h-115.85c-13.3 0-25.704-5.947-34.032-16.316-14.19-17.667-8.589-36.646-8.59-36.75l8.286-37.508c5.935-26.863 5.935-55.26 0-82.121l-8.286-37.509c-5.269-23.851 9.979-46.77 32.865-51.974 8.542-1.944 125.607-1.091 125.607-1.091 27.931 0 48.635 25.848 42.622 53.066l-8.286 37.509c-5.934 26.86-5.934 55.257 0 82.119z"/></g></g></svg>