<svg id="Capa_1" enable-background="new 0 0 512 512" height="512" viewBox="0 0 512 512" width="512" xmlns="http://www.w3.org/2000/svg"><g><g><path d="m381.179 122.4-63.431-40.073-74.274-37.417-74.264 37.417-42.919 40.353c-26.064 24.501-40.844 58.681-40.844 94.445v95.878l158.031 26.405 183.074-26.405v-108.283c.001-33.409-17.125-64.483-45.373-82.32zm-9.74 128.676c0 9.439-7.656 17.095-17.095 17.095h-43.37c-9.44 0-17.095-7.656-17.095-17.095v-94.626c0-13.468 14.841-21.645 26.224-14.46l31.645 19.991c12.335 7.786 19.691 21.144 19.691 35.734z" fill="#78cbec"/><path d="m426.553 440.237c0 5.622-.731 11.183-2.174 16.564-1.433 5.391-3.567 10.582-6.363 15.452-11.464 19.951-32.718 32.247-55.725 32.247h-212.571c-11.504 0-22.567-3.076-32.197-8.638-9.62-5.572-17.797-13.628-23.529-23.609-5.592-9.74-8.548-20.783-8.548-32.016l158.031-22.375z" fill="#78cbec"/><path d="m158.182 429.939-72.734 10.298c0 11.233 2.956 22.276 8.548 32.016 5.732 9.98 13.909 18.037 23.529 23.609 9.63 5.562 20.693 8.638 32.197 8.638h47.625c-15.626-22.639-28.843-47.665-39.165-74.561z" fill="#34b5e1"/><path d="m132.666 289.949c0-86.681 27.548-165.789 72.897-225.938l-36.353 18.316-42.919 40.354c-26.064 24.5-40.844 58.681-40.844 94.445v95.878l48.437 8.093c-.791-10.261-1.218-20.645-1.218-31.148z" fill="#34b5e1"/><path d="m281.067 7.5h-75.177c-20.256 0-36.677 16.421-36.677 36.677v38.15h148.531v-38.15c0-20.256-16.421-36.677-36.677-36.677z" fill="#c1e9fa"/><path d="m85.447 313.004h341.105v127.233h-341.105z" fill="#c1e9fa"/><g fill="#90d3f1"><path d="m133.341 313.004h-47.894v127.233h76.883c-16.256-38.824-26.407-81.808-28.989-127.233z"/><path d="m192.624 76.851c0-27.883 11.337-52.808 29.144-69.351h-15.878c-20.256 0-36.677 16.421-36.677 36.677v38.15h23.564c-.098-1.812-.153-3.637-.153-5.476z"/></g></g><g><path d="m281.067 0h-75.177c-24.359 0-44.177 19.818-44.177 44.177v34.905l-40.557 38.133c-27.459 25.812-43.208 62.228-43.208 99.91v223.111c0 39.47 32.023 71.763 71.773 71.763h145.042c4.142 0 7.5-3.358 7.5-7.5s-3.358-7.5-7.5-7.5h-145.043c-28.455 0-52.496-21.062-56.272-49.263h325.108c-3.768 28.277-27.958 49.264-56.266 49.264h-37.528c-4.142 0-7.5 3.358-7.5 7.5s3.358 7.5 7.5 7.5h37.528c39.067 0 71.763-31.677 71.763-71.763 0-7.521 0-231.361 0-235.517 0-36.195-18.269-69.34-48.868-88.661l-59.941-37.868v-34.014c0-24.359-19.818-44.177-44.177-44.177zm-75.177 15h75.177c16.088 0 29.177 13.089 29.177 29.177v30.65h-133.532v-30.65c0-16.088 13.089-29.177 29.178-29.177zm213.163 189.72v100.784h-230.602c-4.142 0-7.5 3.358-7.5 7.5s3.358 7.5 7.5 7.5h230.602v112.233h-326.106v-112.233h65.504c4.142 0 7.5-3.358 7.5-7.5s-3.358-7.5-7.5-7.5h-65.504v-88.378c0-33.56 14.026-65.992 38.482-88.981l40.752-38.317h143.395l61.597 38.914c26.224 16.557 41.88 44.961 41.88 75.978z"/><path d="m286.378 156.451v94.625c0 13.562 11.033 24.595 24.595 24.595h43.37c13.562 0 24.595-11.033 24.595-24.595v-53.36c0-17.182-8.668-32.912-23.185-42.075l-31.647-19.993c-16.397-10.348-37.728 1.41-37.728 20.803zm77.56 41.265v53.36c0 5.291-4.304 9.595-9.595 9.595h-43.37c-5.291 0-9.595-4.304-9.595-9.595v-94.625c0-7.549 8.312-12.164 14.719-8.119l31.647 19.993c10.141 6.4 16.194 17.387 16.194 29.391z"/><path d="m168.491 364.357v15.375c0 4.142 3.358 7.5 7.5 7.5s7.5-3.358 7.5-7.5v-15.375c0-4.142-3.358-7.5-7.5-7.5s-7.5 3.358-7.5 7.5z"/><path d="m336.009 387.232c4.142 0 7.5-3.358 7.5-7.5v-15.375c0-4.142-3.358-7.5-7.5-7.5s-7.5 3.358-7.5 7.5v15.375c0 4.142 3.358 7.5 7.5 7.5z"/><path d="m256 396.384c10.251 0 20.001-4.44 26.748-12.182 2.721-3.123 2.396-7.86-.727-10.582-3.124-2.721-7.86-2.396-10.582.727-3.897 4.473-9.525 7.038-15.439 7.038s-11.542-2.565-15.44-7.038c-2.722-3.122-7.459-3.447-10.582-.727-3.123 2.722-3.448 7.459-.727 10.582 6.748 7.742 16.497 12.182 26.749 12.182z"/></g></g></svg>