<svg id="Capa_1" enable-background="new 0 0 512 512" height="512" viewBox="0 0 512 512" width="512" xmlns="http://www.w3.org/2000/svg"><g><g><path d="m108.572 384.642s-57.621 40.509-57.621 119.858h410.097c0-79.349-57.621-119.858-57.621-119.858z" fill="#c1e9fa"/><path d="m90.817 496.414c0-59.122 34.932-107.547 79.223-111.772h-61.468s-57.621 40.509-57.621 119.858h40.089c-.145-2.671-.223-5.366-.223-8.086z" fill="#90d3f1"/><path d="m255.915 7.5c-90.975.046-164.237 74.919-164.237 165.894v167.994c0 24.124 13.595 46.168 35.13 57.04 26.377 13.316 68.478 27.244 129.192 27.244s102.814-13.927 129.192-27.244c21.535-10.872 35.13-32.916 35.13-57.04v-169.566c0-90.781-73.615-164.368-164.407-164.322z" fill="#90d3f1"/><path d="m179.4 245.813c-14.139 18.998-43.17 15.626-53.507-5.299-11.918-24.141-16.506-50.208-14.369-75.962.105-1.267 1.121-2.22 2.367-2.22h284.22c1.246 0 2.262.953 2.367 2.22 2.136 25.774-2.461 51.832-14.369 75.962-10.316 20.883-39.348 24.34-53.507 5.299z" fill="#c1e9fa"/><path d="m104.746 216.411c0-77.589 32.238-147.095 83.125-193.975-56.838 26.259-96.193 84.282-96.193 150.959v167.994c0 24.124 13.595 46.168 35.13 57.04 17.471 8.82 41.847 17.904 73.952 23.036-58.274-46.603-96.014-121.1-96.014-205.054z" fill="#78cbec"/><path d="m131.207 188.034c0-8.827.942-17.425 2.715-25.703h-20.032c-1.246 0-2.262.953-2.367 2.22-2.136 25.753 2.451 51.821 14.369 75.962 5.553 11.242 16.503 17.408 27.639 17.771-14.029-19.669-22.324-43.959-22.324-70.25z" fill="#78cbec"/><path d="m434.173 163.216c-1.814-21.803-20.36-38.887-42.214-38.887h-271.918c-21.863 0-40.4 17.084-42.214 38.887-2.585 31.242 2.826 63.486 17.765 93.736 12.815 25.951 38.276 39.468 63.776 39.328l.02-.03 47.284-77.433c-.01.01-.03.02-.04.04-8.296 6.713-16.312 15.19-23.917 25.42-13.527 18.176-41.302 14.95-51.191-5.07-11.403-23.096-15.791-48.035-13.747-72.674.1-1.212 1.072-2.124 2.264-2.124h271.918c1.192 0 2.164.912 2.264 2.124 2.044 24.659-2.355 49.588-13.747 72.674-9.87 19.98-37.645 23.286-51.191 5.07-7.615-10.24-15.631-18.717-23.927-25.44-.01-.01-.03-.02-.04-.03l47.294 77.443.02.03c25.49.15 50.941-13.336 63.776-39.328 23.596-47.795 17.484-88.335 17.765-93.736z" fill="#5c586f"/><path d="m151.467 255.292c-8.239-2.067-15.722-7.541-19.943-16.086-11.403-23.096-15.791-48.035-13.747-72.674.1-1.212 1.072-2.124 2.265-2.124h13.449c2.838-14.491 8.236-28.025 15.686-40.079h-29.136c-21.863 0-40.4 17.084-42.214 38.887-2.585 31.242 2.826 63.486 17.765 93.736 12.815 25.951 38.276 39.468 63.776 39.328l.02-.03 11.391-18.654c-7.308-6.558-13.801-14.055-19.312-22.304z" fill="#4f4c5f"/><path d="m362.04 313.24c0 32.34-47.469 58.55-106.04 58.55s-106.04-26.209-106.04-58.55c0-4.359.859-9.782 2.513-15.902 6.496-24.309 25.243-59.613 50.626-82.934.011-.021.032-.032.043-.043 15.558-14.291 33.607-24.083 52.859-24.083s37.29 9.782 52.848 24.073c.011.011.032.021.043.032 25.383 23.332 44.13 58.636 50.636 82.955 1.653 6.121 2.512 11.543 2.512 15.902z" fill="#fff"/><path d="m302.191 280.436c-12.459-21.397-24.626-31.673-24.998-32.091-8.124-7.462-16.045-11.917-21.191-11.917-6.614 0-16.705 7.478-21.146 11.946l-.741.745c-.1.113-11.927 10.03-24.358 31.405-9.924 17.065.014 38.926 19.399 42.657 16.675 3.209 36.281 3.35 53.687.001 19.426-3.737 29.303-25.649 19.348-42.746z" fill="#dadada"/></g><g><path d="m175.347 184.438c-4.142 0-7.5 3.358-7.5 7.5v15.498c0 4.142 3.358 7.5 7.5 7.5s7.5-3.358 7.5-7.5v-15.498c0-4.142-3.358-7.5-7.5-7.5z"/><path d="m336.652 184.438c-4.142 0-7.5 3.358-7.5 7.5v15.498c0 4.142 3.358 7.5 7.5 7.5s7.5-3.358 7.5-7.5v-15.498c0-4.142-3.358-7.5-7.5-7.5z"/><path d="m282.578 243.115c-.611-.496-14.55-14.186-26.577-14.186-12.252 0-26.325 14.017-26.465 14.158-9.317 8.799-17.659 18.872-26.264 33.667-12.538 21.56-.023 49.08 24.465 53.793 17.958 3.456 38.561 3.457 56.521.001 24.798-4.772 36.815-32.585 24.413-53.886-10.459-17.963-20.838-28.729-26.093-33.547zm-1.154 72.704c-16.159 3.109-34.694 3.108-50.852-.001-14.33-2.758-21.67-18.906-14.333-31.522 10.698-18.394 23.935-30.634 23.935-30.634 4.792-4.821 12.779-9.733 15.827-9.733 2.128 0 8.178 2.647 16.117 9.94 9.494 9.056 16.936 18.914 23.59 30.341 7.381 12.673.058 28.848-14.284 31.609z"/><path d="m438.329 410.438c-9.195-12.796-18.389-21.744-24.265-26.853 8.797-11.988 13.759-26.65 13.759-42.197v-91.412c16.392-38.981 14.601-71.936 13.973-83.379-.221-4.055-.069-3.056-.148-4.003-1.21-14.556-8.76-27.318-19.76-35.642-20.189-74.9-87.993-126.952-165.888-126.952-.029 0-.06 0-.089 0-26.879.014-52.621 6.136-76.511 18.199-3.698 1.867-5.182 6.377-3.314 10.075 1.867 3.698 6.378 5.182 10.075 3.314 21.777-10.995 45.247-16.576 69.758-16.588h.081c66.609 0 125.149 41.702 147.417 103.183-3.429-.823-7.575-1.354-11.458-1.354-284.756.029-274.1-.769-282.868 1.235 10.366-27.873 28.536-52.633 52.223-70.835 3.285-2.524 3.901-7.232 1.377-10.517s-7.231-3.9-10.517-1.377c-29.759 22.868-51.556 55.203-61.612 91.287-11.241 8.315-18.983 21.221-20.21 35.974-2.476 29.931 2.304 59.895 13.826 87.354v91.437c0 15.547 4.961 30.209 13.759 42.197-31.991 27.812-54.485 71.446-54.485 120.916 0 4.142 3.358 7.5 7.5 7.5h410.097c4.142 0 7.5-3.358 7.5-7.5-.001-42.985-16.434-74.877-30.22-94.062zm-56.517-18.705c-70.19 35.436-181.718 35.296-251.623 0-18.535-9.355-31.01-28.35-31.01-50.345v-65.295c11.281 13.44 26.813 22.714 44.455 26.176-.775 4.031-1.173 7.707-1.173 10.972 0 50.19 86.271 78.194 157.702 60.969 4.027-.971 6.504-5.022 5.533-9.049s-5.021-6.503-9.049-5.533c-64.619 15.582-139.186-10.055-139.186-46.387 0-19.313 20.321-65.388 50.712-93.313 31.139-28.571 62.562-30.403 95.602-.053 30.884 28.271 50.765 74.667 50.765 93.366 0 14.007-11.818 27.686-32.424 37.529-3.737 1.786-5.32 6.263-3.535 10s6.263 5.319 10 3.535c26.03-12.434 40.958-31.046 40.958-51.064 0-3.265-.397-6.941-1.171-10.967 17.542-3.445 33.118-12.669 44.453-26.177v65.292c.001 21.743-12.34 40.921-31.009 50.344zm-36.643-144.412c-8.509-13.757-19.025-27.266-31.202-38.459-16.361-14.928-35.711-26.083-57.966-26.083-37.548 0-69.506 32.752-89.172 64.538-10.881 4.155-23.316-.775-28.58-11.43-9.774-19.798-14.341-41.819-13.306-63.978h262.115c1.034 22.153-3.533 44.176-13.305 63.977-5.3 10.728-17.778 15.563-28.584 11.435zm-259.868-83.484c1.423-17.109 15.435-30.817 32.502-31.927 2.04-.134 274.704-.113 276.44.003 16.599 1.118 30.794 14.319 32.42 31.535-.088 8.375 5.138 45.393-16.981 90.182-8.966 18.154-25.599 30.592-45.223 34.123-2.495-7.461-5.885-15.615-10.091-23.988 13.506-.463 26.397-8.212 32.833-21.24 11.676-23.661 16.689-50.153 14.496-76.61-.424-5.135-4.611-9.007-9.739-9.007h-271.917c-5.128 0-9.315 3.873-9.739 9.004-2.196 26.465 2.817 52.958 14.497 76.616 6.37 12.894 19.172 20.763 32.828 21.23-4.208 8.375-7.596 16.53-10.088 23.99-19.643-3.541-36.268-15.987-45.222-34.118-13.505-27.341-19.605-58.495-17.016-89.793zm309.453 333.163v-43.532c0-4.142-3.358-7.5-7.5-7.5s-7.5 3.358-7.5 7.5v43.532h-247.508v-43.532c0-4.142-3.358-7.5-7.5-7.5s-7.5 3.358-7.5 7.5v43.532h-58.616c2.021-42.114 22.088-78.663 49.422-102.319 4.676 4.149 9.922 7.69 15.376 10.442 74.24 37.479 190.758 37.553 265.143 0 5.403-2.727 10.624-6.226 15.376-10.442 12.774 11.072 46.629 45.585 49.417 102.319z"/></g></g></svg>