<svg id="Capa_1" enable-background="new 0 0 512 512" height="512" viewBox="0 0 512 512" width="512" xmlns="http://www.w3.org/2000/svg"><g><g><path d="m256 435.547c-46.65 0-90.493-18.16-123.454-51.133-32.948-32.962-51.093-76.791-51.093-123.414s18.145-90.452 51.093-123.414c32.961-32.974 76.804-51.133 123.454-51.133 96.246 0 174.547 78.302 174.547 174.547s-78.302 174.547-174.547 174.547z" fill="#4f4c5f"/><g><path d="m256 139.609c-66.935 0-121.391 54.456-121.391 121.392 0 66.935 54.456 121.391 121.391 121.391 66.936 0 121.392-54.456 121.392-121.391-.001-66.937-54.457-121.392-121.392-121.392z" fill="#f9ed80"/></g><path d="m285.675 372.387c-66.786-.176-121.066-54.56-121.066-121.387 0-47.946 27.943-89.485 68.397-109.198-55.977 10.778-98.397 60.123-98.397 119.198 0 66.935 54.456 121.391 121.391 121.391 10.235 0 20.174-1.285 29.675-3.683z" fill="#fccb88"/><path d="m312.349 404.244c8.653 15.05 21.118 28.037 36.905 37.136 19.706 11.379 41.608 15.476 62.613 13.138 5.728-.638 7.991 7.162 2.817 9.7-46.663 22.895-103.51 22.876-151.902-5.076-2.308-1.319-4.572-2.713-6.79-4.137-2.203 1.424-4.467 2.818-6.775 4.137-48.391 27.951-105.237 27.97-151.891 5.077-5.174-2.539-2.91-10.337 2.818-9.7 20.997 2.335 42.899-1.763 62.601-13.139 48.242-27.806 65.46-92.027 37.607-140.343-27.801-48.209-92.124-65.391-140.358-37.608-19.694 11.377-34.194 28.297-42.671 47.649-2.312 5.278-10.198 3.339-9.809-2.41 3.502-51.85 31.938-101.073 80.33-129.013 2.278-1.319 4.557-2.563 6.88-3.762-.195-3.193-.3-6.43-.3-9.683 0-55.879 28.402-105.12 71.56-134.082 4.785-3.211 10.407 2.648 6.992 7.289-12.521 17.019-19.915 38.034-19.915 60.781 0 17.822 4.542 34.58 12.516 49.194 17.432 31.912 51.293 53.556 90.204 53.556 37.087 0 72.718-21.1 90.339-53.781 7.929-14.539 12.411-31.222 12.411-48.969 0-22.748-7.408-43.764-19.935-60.783-3.416-4.641 2.206-10.501 6.992-7.29 43.161 28.962 71.565 78.204 71.565 134.085 0 3.193-.09 6.355-.27 9.488 2.443 1.259 4.856 2.578 7.27 3.957 48.399 27.943 76.836 77.175 80.332 129.033.388 5.75-7.498 7.689-9.809 2.411-8.477-19.36-22.978-36.288-42.688-47.669-48.42-27.96-112.42-10.813-140.343 37.608-18.761 32.535-17.1 72.237.704 103.206z" fill="#5c586f"/><ellipse cx="256" cy="265" fill="#f9ed80" rx="29.675" ry="29.675" transform="matrix(.811 -.585 .585 .811 -106.626 199.707)"/></g><g><path d="m256 227.854c-20.498 0-37.175 16.677-37.175 37.174 0 20.498 16.677 37.175 37.175 37.175s37.174-16.677 37.174-37.175c0-20.497-16.676-37.174-37.174-37.174zm0 59.35c-12.227 0-22.175-9.948-22.175-22.175s9.948-22.175 22.175-22.175 22.175 9.948 22.175 22.175-9.948 22.175-22.175 22.175z"/><path d="m424.579 171.328c1.69-58.57-26.645-113.078-74.812-145.4-11.744-7.877-25.601 6.565-17.211 17.964 13.472 18.305 19.567 40.011 18.311 61.819-28.541-17.517-61.087-26.727-94.867-26.727-34.054 0-66.736 9.249-95.267 26.843-1.293-21.916 4.851-43.671 18.287-61.934 8.376-11.385-5.456-25.851-17.213-17.961-49.23 33.037-76.655 88.441-74.793 145.608-50.727 28.038-83.113 79.395-86.98 136.651-.953 14.105 18.482 18.894 24.162 5.925 10.04-22.919 28.255-40.187 49.807-49.239 1.453 70.572 42.723 130.018 100.336 158.938-18.946 16.911-45.375 26.391-73.364 23.277-14.05-1.565-19.662 17.651-6.951 23.887 52.499 25.762 113.36 22.357 161.975-7.101 26.433 16.003 56.632 24.444 87.439 24.442 25.438-.001 50.942-5.76 74.548-17.342 12.693-6.229 7.123-25.447-6.951-23.887-27.732 3.089-54.272-6.166-73.428-23.362 14.258-7.175 27.513-16.198 39.513-26.912 3.09-2.758 3.359-7.499.6-10.589-2.758-3.09-7.5-3.358-10.589-.6-12.137 10.835-25.668 19.787-40.287 26.659-8.276-10.436-13.968-22.013-17.371-34.012 45.487-20.787 76.277-66.929 75.381-119.344 13.045-2.271 25.936-1.806 38.188 1.066.262 37.524-11.81 74.136-36.343 104.926-2.581 3.24-2.047 7.958 1.192 10.539 3.24 2.581 7.958 2.047 10.539-1.192 25.12-31.526 38.76-69.283 39.576-109.414 21.768 9.229 39.826 26.505 49.798 49.279 5.668 12.947 25.114 8.206 24.162-5.923-3.87-57.402-36.433-108.935-87.387-136.884zm-235.055-2.712c39.583-28.508 92.858-28.662 132.627-.237-38.008 36.501-96.251 35.495-132.627.237zm66.476-74.632c33.171 0 65.05 9.672 92.507 28.017-3.06 13.057-8.707 24.929-16.347 35.114-45.312-33.241-107.038-33.406-152.596.208-7.869-10.502-13.41-22.311-16.444-35.206 27.42-18.422 59.424-28.133 92.88-28.133zm-167.041 166.076c12.467-2.891 25.399-3.233 38.186-1.026-.227 14.074 1.807 27.64 5.863 40.549 1.241 3.952 5.45 6.147 9.403 4.907 3.952-1.242 6.148-5.452 4.907-9.403-3.269-10.405-5.014-21.221-5.192-32.181 43.224 14.693 68.637 55.561 63.375 100.181-19.069-9.505-35.411-24.406-46.63-42.686-2.166-3.529-6.783-4.636-10.315-2.469-3.531 2.166-4.636 6.785-2.469 10.315 13.391 21.819 33.254 39.366 56.386 49.995-3.479 12.345-9.205 23.853-17.383 34.133-17.502-8.203-33.372-19.366-47.237-33.236-32.588-32.601-49.219-75.475-48.894-119.079zm217.509 103.057c-5.498-45.829 21.727-86.251 63.409-100.351-.652 43.451-25.914 81.778-63.409 100.351zm149.269-106.154c-53.341-30.799-123.826-10.735-152.559 43.945-37.651 71.483 13.586 161.222 96.461 161.774-44.619 17.489-96.359 13.79-139.596-13.962-2.475-1.588-5.651-1.584-8.122.013-41.157 26.591-93.017 32.192-139.555 13.95 106.454-.718 150.326-141.492 60.924-201.014-52.337-34.963-124.309-20.801-156.9 34.788 7.314-48.398 37.176-90.845 81.776-113.869 2.64-1.363 4.227-4.156 4.046-7.122-3.045-49.967 18.432-98.236 57.612-129.503-19.215 33.811-18.538 74.635-.829 107.051.001.001.001.002.002.003 32.773 59.993 112.122 76.752 166.708 32.256 42.263-34.449 51.956-93.752 26.052-139.309 38.548 30.765 60.558 78.488 57.637 129.333-.169 2.958 1.418 5.739 4.052 7.097 45.811 23.602 74.979 66.5 82.164 114.078-9.589-16.361-23.188-29.874-39.873-39.509z"/></g></g></svg>