<svg id="Capa_1" enable-background="new 0 0 512 512" height="512" viewBox="0 0 512 512" width="512" xmlns="http://www.w3.org/2000/svg"><g><g><path d="m236.834 69.29c-10.775-16.63-13.656-38.207-14.37-50.959-.343-6.132-5.47-10.902-11.611-10.83-62.964.738-87.082 16.719-86.188 31.738l7.109 28.276 32.299 26.265z" fill="#ccccca"/><path d="m361.26 142.761s22.214-20.881 26.057-85.777c.734-12.399-7.975-23.38-20.236-25.362-23.862-3.857-68.436-4.134-134.662 22.76-58.997 23.958-106.539 5.297-107.755-15.143 0 80.362 26.076 103.522 26.076 103.522l105.26 34.074z" fill="#dadada"/><path d="m71.446 192.043v235.298c0 42.614 34.545 77.159 77.159 77.159h214.788c42.614 0 77.159-34.545 77.159-77.159v-235.298z" fill="#f9ed80"/><path d="m99.36 335.013c0-52.935 14.862-102.121 40.32-142.97h-68.234v235.298c0 42.614 34.546 77.16 77.159 77.16h10.05c-36.899-45.193-59.295-104.513-59.295-169.488z" fill="#fccb88"/><path d="m426.578 142.761h-341.156c-19.619 0-35.524 15.905-35.524 35.524v27.515c0 19.619 15.905 35.524 35.524 35.524h341.156c19.619 0 35.524-15.905 35.524-35.524v-27.515c0-19.619-15.905-35.524-35.524-35.524z" fill="#ff748f"/><ellipse cx="256" cy="368.559" fill="#fff" rx="137.964" ry="81.239"/><path d="m99.258 185.888c0-15.583 4.208-30.259 11.627-43.126h-25.463c-19.619 0-35.524 15.905-35.524 35.524v27.514c0 19.619 15.905 35.524 35.524 35.524h33.98c-12.643-15.424-20.144-34.623-20.144-55.436z" fill="#fd5f7e"/></g><g><path d="m357.361 432.466c28.44-16.747 44.103-39.443 44.103-63.907s-15.663-47.161-44.103-63.907c-56.254-33.125-146.448-33.136-202.721 0-28.44 16.747-44.104 39.443-44.104 63.907s15.663 47.16 44.104 63.907c56.253 33.125 146.447 33.136 202.721 0zm-231.825-63.907c0-18.935 13.039-37.041 36.714-50.982 51.579-30.371 135.927-30.367 187.499 0 23.676 13.941 36.714 32.047 36.714 50.982s-13.039 37.041-36.714 50.981c-51.578 30.372-135.926 30.368-187.499 0-23.675-13.941-36.714-32.046-36.714-50.981z"/><path d="m179.637 378.251c4.142 0 7.5-3.358 7.5-7.5v-14.674c0-4.142-3.358-7.5-7.5-7.5s-7.5 3.358-7.5 7.5v14.674c0 4.142 3.358 7.5 7.5 7.5z"/><path d="m332.362 378.251c4.142 0 7.5-3.358 7.5-7.5v-14.674c0-4.142-3.358-7.5-7.5-7.5s-7.5 3.358-7.5 7.5v14.674c0 4.142 3.358 7.5 7.5 7.5z"/><path d="m281.787 375.241c2.721-3.123 2.396-7.86-.727-10.582-3.123-2.721-7.86-2.395-10.582.727-7.654 8.782-21.28 8.808-28.957 0-2.721-3.123-7.458-3.448-10.581-.727s-3.448 7.459-.728 10.582c13.647 15.659 37.941 15.644 51.575 0z"/><path d="m440.554 370.128c-4.142 0-7.5 3.358-7.5 7.5v49.713c0 38.411-31.249 69.66-69.66 69.66h-214.788c-38.411 0-69.66-31.249-69.66-69.66v-99.25c0-4.142-3.358-7.5-7.5-7.5s-7.5 3.358-7.5 7.5v99.25c0 46.682 37.979 84.66 84.66 84.66h214.788c46.681 0 84.66-37.978 84.66-84.66v-49.713c0-4.143-3.358-7.5-7.5-7.5z"/><path d="m426.578 135.261h-50.94c7.353-13.18 16.777-37.49 19.166-77.834.967-16.331-10.437-30.608-26.526-33.209-25.943-4.194-70.02-3.773-133.812 21.279-2.976-10.245-4.109-20.343-4.514-27.586-.572-10.214-9.06-18.039-19.188-17.91-43.668.512-73.659 8.202-86.731 22.239-4.749 5.099-7.113 10.982-6.87 17.038.006 51.773 10.741 81.058 19.063 95.982h-50.804c-23.723 0-43.023 19.3-43.023 43.024v27.516c0 15.905 8.681 29.811 21.548 37.257v55.033c0 4.142 3.358 7.5 7.5 7.5s7.5-3.358 7.5-7.5v-49.749c8.163 1.234 7.564.105 347.631.483 1.963-.035 3.873-.09 6.476-.483v99.287c0 4.142 3.358 7.5 7.5 7.5s7.5-3.358 7.5-7.5v-104.571c12.866-7.446 21.548-21.352 21.548-37.257v-27.515c0-23.723-19.301-43.024-43.024-43.024zm-291.567-102.798c14.478-15.547 61.777-17.296 75.93-17.462 2.181-.001 3.916 1.622 4.035 3.749.466 8.335 1.81 20.092 5.428 32.083-49.76 16.688-87.485.828-88.253-12.039.08-.401-.469-2.757 2.86-6.331zm-2.05 29.784c7.333 4.561 16.889 7.888 27.984 9.581 24.655 3.889 50.893-.997 74.296-10.497 63.213-25.67 105.935-26.299 130.643-22.305 8.461 1.368 14.457 8.898 13.947 17.515-2.946 49.739-17.069 72.276-22.002 78.721h-203.733c-4.706-5.985-17.773-26.507-21.135-73.015zm321.641 143.553c0 15.449-12.566 28.018-28.013 28.024-1.097 0-340.73 0-341.167 0-15.452 0-28.023-12.571-28.023-28.024v-27.515c0-15.453 12.571-28.024 28.023-28.024h341.156c15.452 0 28.024 12.571 28.024 28.024z"/></g></g></svg>