<svg id="Capa_1" enable-background="new 0 0 512 512" height="512" viewBox="0 0 512 512" width="512" xmlns="http://www.w3.org/2000/svg"><g><g><path d="m41.907 59.948v398.768c0 25.285 20.498 45.783 45.783 45.783h117.098l51.212-20.422 51.211 20.423h117.099c25.285 0 45.783-20.498 45.783-45.783v-398.769z" fill="#ff748f"/><path d="m63.605 254.384c0-73.258 22.517-140.71 60.321-194.435h-82.019v398.768c0 25.285 20.498 45.783 45.783 45.783h86.496c-67.317-58.12-110.581-148.546-110.581-250.116z" fill="#fd5f7e"/><g fill="#f9ed80"><path d="m459.405 7.5h-406.81c-20.78 0-37.626 16.846-37.626 37.626v29.645c0 20.78 16.846 37.626 37.626 37.626h406.81c20.78 0 37.626-16.846 37.626-37.626v-29.645c0-20.78-16.846-37.626-37.626-37.626z"/><path d="m128.521 154.362c-18.894 0-34.211 15.317-34.211 34.211v34.841c0 8.429 6.833 15.262 15.262 15.262h37.9c8.429 0 15.262-6.833 15.262-15.262v-34.841c-.002-18.894-15.319-34.211-34.213-34.211z"/><path d="m383.479 154.362c18.895 0 34.211 15.317 34.211 34.211v34.841c0 8.429-6.833 15.262-15.262 15.262h-37.9c-8.429 0-15.262-6.833-15.262-15.262v-34.841c.002-18.894 15.319-34.211 34.213-34.211z"/><path d="m128.521 378.289c-18.894 0-34.211 15.317-34.211 34.211v34.841c0 8.429 6.833 15.262 15.262 15.262h37.9c8.429 0 15.262-6.833 15.262-15.262v-34.841c-.002-18.894-15.319-34.211-34.213-34.211z"/></g><path d="m204.789 429.5c0-28.283 22.928-51.211 51.211-51.211 28.283 0 51.211 22.928 51.211 51.211v75h-102.422z" fill="#c1e9fa"/><path d="m383.479 378.289c18.895 0 34.211 15.317 34.211 34.211v34.841c0 8.429-6.833 15.262-15.262 15.262h-37.9c-8.429 0-15.262-6.833-15.262-15.262v-34.841c.002-18.894 15.319-34.211 34.213-34.211z" fill="#f9ed80"/><path d="m96.216 401.237c-1.23 3.528-1.907 7.316-1.907 11.264v34.841c0 8.429 6.833 15.262 15.262 15.262h24.613c-14.721-18.668-27.485-39.255-37.968-61.367z" fill="#fccb88"/><path d="m77.453 51.191c0-15.554 3.04-30.336 8.501-43.691h-33.359c-20.78 0-37.626 16.846-37.626 37.626v29.645c0 20.78 16.846 37.626 37.626 37.626h42.415c-11.068-17.386-17.557-38.472-17.557-61.206z" fill="#fccb88"/></g><g><path d="m192.622 347.508c3.873 1.475 8.204-.469 9.678-4.339l4.149-10.893h28.278l4.103 10.871c1.473 3.901 5.815 5.823 9.665 4.369 3.875-1.462 5.832-5.79 4.369-9.665l-23.825-63.133c-2.237-5.923-8.521-5.799-8.37-5.751-3.646.004-6.895 2.188-8.274 5.563-.733 1.793 2.78-7.303-24.111 63.3-1.475 3.871.467 8.204 4.338 9.678zm28.031-52.526 8.413 22.294h-16.904z"/><path d="m120.456 340.99c.12 1.819.89 3.54 2.192 4.832 2.392 2.374 5.412 2.197 5.312 2.177.532-.002 13.079-.051 18.091-.138 42.176-.738 43.379-77.001-.646-77.001h-17.599c-4.042 0-7.5 3.237-7.5 7.563v.002c.053 64.487-.136 61.158.15 62.565zm24.948-55.13c12.972 0 17.593 12.175 17.593 23.569 0 15.98-8.644 23.284-17.209 23.434-2.38.042-6.625.075-10.383.098-.076-23.412-.037-18.415-.087-47.101z"/><path d="m364.927 332.999c-6.504 0-12.769-2.627-16.756-7.028-2.781-3.068-7.523-3.303-10.594-.521-3.069 2.781-3.302 7.524-.521 10.594 6.785 7.486 17.204 11.955 27.872 11.955 27.99 0 39.097-34.635 8.156-46.048-7.95-2.932-15.345-6.127-17.523-7.083-3.158-2.467-2.513-8.36 3.643-10.215 9.308-2.806 17.876 3.997 18.087 4.167 3.17 2.631 7.875 2.212 10.53-.946 2.665-3.171 2.255-7.902-.916-10.567-.596-.5-14.792-12.208-32.029-7.017-18.465 5.563-21.525 28.029-7.113 37.425 2.021 1.316 16.516 6.975 20.128 8.308 2.927 1.08 9.634 4.145 8.717 9.279-.675 3.784-5.229 7.697-11.681 7.697z"/><path d="m291.972 347.999h.019c4.133 0 7.489-3.346 7.5-7.481l.075-30.492 19.076-29.304c2.26-3.472 1.277-8.118-2.194-10.377-3.471-2.26-8.117-1.278-10.377 2.194l-14.009 21.521-14.164-21.692c-2.265-3.469-6.913-4.443-10.38-2.179-3.468 2.265-4.444 6.912-2.179 10.38l19.228 29.447-.075 30.467c-.012 4.14 3.338 7.506 7.48 7.516z"/><path d="m222.158 240.567c4.142 0 7.5-3.358 7.5-7.5v-76.478c0-4.142-3.358-7.5-7.5-7.5h-16.346c-4.142 0-7.5 3.358-7.5 7.5s3.358 7.5 7.5 7.5h8.846v68.978c0 4.142 3.358 7.5 7.5 7.5z"/><path d="m303.904 159.04c-.98-11.769-13.66-16.896-21.931-6.749-4.4 5.398-26.076 44.558-30.376 52.353-2.753 4.991.862 11.123 6.567 11.123h30.694c-.038 5.318-.079 10.425-.118 15.007-.036 4.185 3.35 7.564 7.501 7.564 4.111 0 7.463-3.315 7.498-7.436.024-2.774.07-8.309.121-15.136h2.33c4.142 0 7.5-3.358 7.5-7.5s-3.358-7.5-7.5-7.5h-2.229c.109-18.631.172-38.975-.057-41.726zm-14.948 41.728h-18.053c6.937-12.427 13.756-24.403 18.156-31.8.015 7.722-.031 19.541-.103 31.8z"/><path d="m128.521 146.862c-23 0-41.711 18.711-41.711 41.711v34.841c0 12.551 10.21 22.762 22.761 22.762h37.9c12.551 0 22.762-10.211 22.762-22.762v-34.841c-.001-23-18.712-41.711-41.712-41.711zm26.711 76.553c0 4.28-3.482 7.762-7.762 7.762h-37.9c-4.28 0-7.761-3.482-7.761-7.762v-34.841c0-14.729 11.983-26.711 26.711-26.711s26.711 11.983 26.711 26.711v34.841z"/><path d="m425.19 188.573c0-23-18.711-41.711-41.711-41.711s-41.711 18.711-41.711 41.711v34.841c0 12.551 10.211 22.762 22.762 22.762h37.899c12.551 0 22.762-10.211 22.762-22.762v-34.841zm-15 34.842c0 4.28-3.482 7.762-7.762 7.762h-37.899c-4.28 0-7.762-3.482-7.762-7.762v-34.841c0-14.729 11.983-26.711 26.711-26.711s26.711 11.983 26.711 26.711v34.841z"/><path d="m86.81 447.342c0 12.551 10.21 22.762 22.761 22.762h37.9c12.551 0 22.762-10.211 22.762-22.762v-34.842c0-23-18.711-41.711-41.711-41.711-23 0-41.711 18.711-41.711 41.711v34.842zm15-34.842c0-14.729 11.983-26.711 26.711-26.711s26.711 11.983 26.711 26.711v34.841c0 4.28-3.482 7.762-7.762 7.762h-37.9c-4.28 0-7.761-3.482-7.761-7.762v-34.841z"/><path d="m383.479 370.789c-23 0-41.711 18.711-41.711 41.711v34.841c0 12.551 10.211 22.762 22.762 22.762h37.899c12.551 0 22.762-10.211 22.762-22.762v-34.841c-.001-23-18.712-41.711-41.712-41.711zm26.711 76.553c0 4.28-3.482 7.762-7.762 7.762h-37.899c-4.28 0-7.762-3.482-7.762-7.762v-34.842c0-14.729 11.983-26.711 26.711-26.711s26.711 11.983 26.711 26.711v34.842z"/><path d="m157.408 39.258c-4.142 0-7.5 3.358-7.5 7.5v18.945c0 4.142 3.358 7.5 7.5 7.5s7.5-3.358 7.5-7.5v-18.945c0-4.142-3.358-7.5-7.5-7.5z"/><path d="m354.592 39.258c-4.142 0-7.5 3.358-7.5 7.5v18.945c0 4.142 3.358 7.5 7.5 7.5s7.5-3.358 7.5-7.5v-18.945c0-4.142-3.358-7.5-7.5-7.5z"/><path d="m286.92 59.485c-3.122-2.721-7.86-2.396-10.582.727-10.751 12.337-29.9 12.368-40.678 0-2.721-3.124-7.459-3.448-10.582-.727s-3.448 7.459-.727 10.582c16.716 19.184 46.529 19.238 63.295 0 2.723-3.123 2.397-7.86-.726-10.582z"/><path d="m470.093 240.88c-4.142 0-7.5 3.358-7.5 7.5v210.337c0 21.109-17.174 38.283-38.284 38.283h-109.598v-67.5c0-32.374-26.338-58.711-58.711-58.711s-58.711 26.338-58.711 58.711v67.5h-109.599c-21.109 0-38.283-17.174-38.283-38.283v-103.796c0-4.142-3.358-7.5-7.5-7.5s-7.5 3.358-7.5 7.5v103.795c0 29.381 23.903 53.284 53.283 53.284h336.619c29.381 0 53.284-23.903 53.284-53.283v-210.337c0-4.142-3.358-7.5-7.5-7.5zm-257.804 256.12v-67.5c0-24.103 19.609-43.711 43.711-43.711s43.711 19.609 43.711 43.711v67.5z"/><path d="m459.405 0h-406.81c-24.883 0-45.126 20.243-45.126 45.126v29.645c0 18.413 11.091 34.276 26.938 41.285v208.866c0 4.142 3.358 7.5 7.5 7.5s7.5-3.358 7.5-7.5v-205.138c1.026.073 409.484.26 413.186 0v98.596c0 4.142 3.358 7.5 7.5 7.5s7.5-3.358 7.5-7.5v-102.325c15.847-7.009 26.938-22.872 26.938-41.284v-29.645c0-24.883-20.244-45.126-45.126-45.126zm30.126 74.771c0 15.524-12.061 29.738-30.126 30.126-420.976-.097-409.028.596-415.217-1.203-12.532-3.649-21.719-15.23-21.719-28.923v-29.645c0-16.611 13.514-30.126 30.126-30.126h406.81c16.611 0 30.126 13.515 30.126 30.126z"/></g></g></svg>