<svg id="Capa_1" enable-background="new 0 0 512 512" height="512" viewBox="0 0 512 512" width="512" xmlns="http://www.w3.org/2000/svg"><g><g><path d="m444.554 27.382h-364.093c-31.858 0-57.684 25.826-57.684 57.684v272.374c0 31.858 25.826 57.684 57.684 57.684h364.093c31.858 0 57.684-25.826 57.684-57.684v-272.373c.001-31.858-25.826-57.685-57.684-57.685z" fill="#c7c5cb"/><g><path d="m266.923 329.104c-72.097-25.456-123.603-92.676-123.603-171.603 0-50.947 21.468-97.01 56.075-130.119h-118.934c-31.858 0-57.684 25.826-57.684 57.685v272.373c0 31.858 25.826 57.685 57.684 57.685h186.462z" fill="#b2b0bc"/></g><path d="m295.77 71.4h-136.638c-25.889 0-46.876 20.987-46.876 46.876v183.513h230.389v-183.513c.001-25.889-20.986-46.876-46.875-46.876z" fill="#ff748f"/><path d="m356.281 266.871c-11.194-11.194-29.344-11.194-40.539 0l-48.82 48.819 40.539 40.539 48.82-48.819c11.195-11.195 11.195-29.345 0-40.539z" fill="#fccb88"/><path d="m83.591 415.124h229.321v89.376h-229.321z" fill="#ffdcce"/><path d="m407.619 165.084c-12.446-2.574-21.226-11.529-23.79-23.676-.921-4.364-4.628-7.574-9.088-7.574h-.825c-4.461 0-8.167 3.21-9.088 7.574-2.564 12.147-11.345 21.102-23.791 23.676-4.343.898-7.442 4.749-7.442 9.184v.596c0 4.577 3.21 8.282 7.574 9.204 12.134 2.562 21.082 11.326 23.667 23.75.907 4.357 4.742 7.482 9.193 7.482h.5c4.533 0 8.383-3.099 9.282-7.442 2.575-12.449 11.534-21.231 23.686-23.792 4.361-.919 7.564-4.629 7.564-9.085v-.597c0-4.551-3.098-8.402-7.442-9.3z" fill="#f9ed80"/><path d="m17.203 38.75c12.446-2.574 21.226-11.529 23.79-23.676.922-4.364 4.629-7.574 9.089-7.574h.825c4.461 0 8.167 3.21 9.088 7.574 2.565 12.148 11.346 21.102 23.791 23.676 4.343.898 7.442 4.749 7.442 9.184v.596c0 4.577-3.21 8.282-7.574 9.204-12.134 2.562-21.082 11.326-23.668 23.75-.907 4.357-4.742 7.482-9.193 7.482h-.5c-4.533 0-8.383-3.099-9.282-7.442-2.575-12.449-11.534-21.231-23.686-23.792-4.361-.919-7.564-4.629-7.564-9.085v-.597c0-4.551 3.099-8.402 7.442-9.3z" fill="#f9ed80"/><path d="m143.32 157.501c0-31.139 8.025-60.451 22.16-86.101h-6.348c-25.889 0-46.876 20.987-46.876 46.875v183.513h103.796c-44.247-33.385-72.732-85.597-72.732-144.287z" fill="#fd5f7e"/><path d="m198.252 226.796c0-15.831-12.834-28.665-28.665-28.665-15.831 0-28.665 12.834-28.665 28.665 0-15.831-12.834-28.665-28.665-28.665-15.831 0-28.665 12.834-28.665 28.665v160.647l114.661 27.681 114.661-27.681v-160.647c0-15.831-12.834-28.665-28.665-28.665-15.831 0-28.665 12.834-28.665 28.665 0-15.831-12.834-28.665-28.665-28.665-15.833 0-28.667 12.834-28.667 28.665z" fill="#f9ed80"/><path d="m147.511 415.125h-63.92v89.375h130.16c-26.992-25.479-49.508-55.71-66.24-89.375z" fill="#ffcabd"/><path d="m312.912 387.443h-229.321c-10.577 0-19.152 8.575-19.152 19.152v17.058c0 10.577 8.575 19.152 19.152 19.152h229.321c10.577 0 19.152-8.575 19.152-19.152v-17.058c0-10.577-8.574-19.152-19.152-19.152z" fill="#fccb88"/><path d="m114.44 273.712c0-25.645 1.895-50.567 5.818-74.441-2.54-.737-5.223-1.14-8.001-1.14-15.831 0-28.665 12.834-28.665 28.665v160.647l57.467 13.874c-17.103-39.029-26.619-82.194-26.619-127.605z" fill="#fccb88"/><path d="m135.367 387.443h-51.776c-10.577 0-19.152 8.575-19.152 19.152v17.058c0 10.577 8.575 19.152 19.152 19.152h79.448c-10.934-17.378-20.227-35.906-27.672-55.362z" fill="#fab659"/></g><g><path d="m164.716 152.428c4.142 0 7.5-3.358 7.5-7.5v-12.056c0-4.142-3.358-7.5-7.5-7.5s-7.5 3.358-7.5 7.5v12.056c0 4.142 3.358 7.5 7.5 7.5z"/><path d="m290.189 152.428c4.142 0 7.5-3.358 7.5-7.5v-12.056c0-4.142-3.358-7.5-7.5-7.5s-7.5 3.358-7.5 7.5v12.056c0 4.142 3.358 7.5 7.5 7.5z"/><path d="m249.647 149.497c2.721-3.123 2.396-7.86-.727-10.581s-7.86-2.396-10.581.727c-5.757 6.605-16 6.621-21.772 0-2.721-3.123-7.459-3.448-10.581-.726-3.123 2.721-3.448 7.459-.726 10.581 11.743 13.476 32.655 13.462 44.387-.001z"/><path d="m15.782 65.075c.84.177 1.648.403 2.44.652-1.947 6.241-2.942 12.719-2.942 19.344v62.886c0 4.142 3.358 7.5 7.5 7.5s7.5-3.358 7.5-7.5v-62.886c0-3.056.272-6.071.811-9.03 1.195 2.132 2.105 4.717 2.578 7.008 1.602 7.745 8.571 13.422 16.626 13.422h.5c8.007 0 14.929-5.734 16.536-13.454 1.339-6.436 4.809-11.526 9.871-14.738 6.56-4.154 11.248-2.289 16.81-8.026 3.149-3.248 4.717-7.551 4.717-11.718-.128-5.703-1.709-9.968-6.179-13.648h352.002c27.672 0 50.184 22.512 50.184 50.184v185.79c0 4.142 3.358 7.5 7.5 7.5s7.5-3.358 7.5-7.5v-185.79c0-35.943-29.241-65.184-65.184-65.184h-364.088c-3.473 0-6.953.288-10.397.844-1.242-2.15-2.172-4.557-2.73-7.201-3.806-18.03-29.868-18.05-33.678 0-1.987 9.412-8.537 15.929-17.971 17.88-17.561 3.632-18.269 29.795.094 33.665zm1.482-17.021c0-.973.601-1.777 1.461-1.955 15.313-3.167 26.382-14.185 29.61-29.471.165-.782.783-1.624 1.749-1.624h.826c.967 0 1.585.841 1.75 1.623 3.217 15.238 14.338 26.31 29.61 29.471.873.18 1.46.999 1.46 1.839v.596c0 .979-.715 1.678-1.624 1.865-14.979 3.166-26.219 13.984-29.46 29.56-.159.766-.775 1.348-1.522 1.481-.253.045-.4.023-.828.029-1.685 0-2.015-1.6-1.94-1.474-3.053-14.747-13.73-26.279-29.48-29.599-.776-.164-1.611-.78-1.611-1.747v-.594z"/><path d="m509.738 300.861c0-4.142-3.358-7.5-7.5-7.5s-7.5 3.358-7.5 7.5v56.581c0 27.672-22.513 50.184-50.184 50.184h-104.989c-.057-.223 1.104-14.424-11.761-23.123-2.244-1.517-4.733-2.695-7.391-3.476v-27.141l41.172-41.171c14.1-14.101 14.1-37.044 0-51.145-3.384-3.384-7.28-5.947-11.438-7.706v-57.386c3.695 3.178 6.244 7.568 7.348 12.872 1.623 7.796 8.577 13.454 16.535 13.454h.5c8.025 0 15.017-5.645 16.626-13.423 1.952-9.437 8.472-15.988 17.888-17.973 18.333-3.864 17.684-30.026.094-33.665-9.434-1.952-15.985-8.469-17.971-17.88-1.681-7.963-8.436-13.525-16.427-13.525h-.825c-7.991 0-14.745 5.561-16.427 13.525-1.113 5.273-3.66 9.636-7.343 12.798v-34.381c0-29.983-24.393-54.375-54.375-54.375h-136.636c-29.983 0-54.375 24.392-54.375 54.375v73.142c-16.354 3.463-28.665 18.008-28.665 35.378v154.228c-9.696 2.843-17.011 11.036-18.75 20.945-16.313-8.511-27.064-25.655-27.064-44.53v-179.486c0-4.142-3.358-7.5-7.5-7.5s-7.5 3.358-7.5 7.5v179.485c0 26.945 16.872 51.168 41.662 60.782v5.431c0 12.092 8.097 22.322 19.152 25.57v55.275c0 4.142 3.358 7.5 7.5 7.5h229.319c4.142 0 7.5-3.358 7.5-7.5v-55.275c11.055-3.249 19.151-13.478 19.151-25.57v-1.029h104.989c35.943 0 65.184-29.241 65.184-65.184v-56.581zm-158.76 1.247-30.565 30.565v-59.864c.151-.132 1.74-1.882 3.95-3.341h.001c4.77-3.146 10.568-4.141 15.8-3.068 16.395 3.254 22.817 23.705 10.814 35.708zm21.188-159.147c.165-.782.783-1.623 1.75-1.623.209.073 2.138-.449 2.575 1.623 5.493 26.024 29.504 29.414 29.609 29.471 1.758.364 1.43 2.424 1.461 2.552 0 .967-.835 1.583-1.611 1.747-15.293 3.224-26.315 14.293-29.484 29.612-.178.86-.975 1.461-1.937 1.461-.1-.029-1.981.267-2.351-1.51-3.111-14.948-13.889-26.259-29.46-29.56-2.011-.424-1.564-2.303-1.624-2.461 0-.89.613-1.664 1.464-1.84 14.938-3.093 26.315-13.874 29.608-29.472zm-252.407-24.682c0-21.712 17.663-39.375 39.375-39.375h136.637c21.712 0 39.376 17.663 39.376 39.375v41.029c-5.467 2.872-8.935 8.112-9.051 15.559 0 6.28 3.451 12.029 9.051 14.945v61.159c-5.127.11-10.14 1.311-14.733 3.515-.06-28.496.14-28.168-.187-31.38-1.85-18.155-17.227-32.472-35.978-32.472-11.659 0-22.047 5.546-28.665 14.138-14.527-18.859-42.822-18.835-57.33 0-14.527-18.86-42.821-18.835-57.33 0-5.382-6.987-13.066-11.655-21.165-13.355zm-7.5 87.355c11.67 0 21.165 9.495 21.165 21.165v31.678c0 4.142 3.358 7.5 7.5 7.5s7.5-3.358 7.5-7.5v-31.678c0-11.67 9.495-21.165 21.165-21.165s21.165 9.495 21.165 21.165v31.678c0 4.142 3.358 7.5 7.5 7.5s7.5-3.358 7.5-7.5v-31.678c0-11.67 9.495-21.165 21.165-21.165 11.669 0 21.162 9.492 21.165 21.16v31.683c0 4.142 3.358 7.5 7.5 7.5s7.5-3.358 7.5-7.5c0-.926 0-33.772 0-31.678 0-11.67 9.495-21.165 21.165-21.165s21.165 9.495 21.165 21.165v153.146h-214.32v-153.146c0-11.67 9.495-21.165 21.165-21.165zm193.154 291.366h-214.319v-46.694h214.319zm19.151-73.345c0 6.425-5.227 11.652-11.651 11.652h-229.319c-6.425 0-11.652-5.227-11.652-11.652 0-9.789 0-7.509 0-17.058 0-6.425 5.227-11.652 11.652-11.652h229.319c6.37 0 11.651 5.206 11.651 11.651z"/></g></g></svg>